<svg width="555" height="380" viewBox="0 0 555 380" fill="none" xmlns="http://www.w3.org/2000/svg">
<g clip-path="url(#clip0_57_387)">
<path opacity="0.593913" d="M549.444 221.198L293.965 366.467C286.432 370.72 274.203 370.72 266.671 366.467L11.1922 220.591C7.47031 218.465 5.60937 215.63 5.60937 212.884C5.60937 210.049 7.47031 207.302 11.1922 205.176L266.671 59.9073C274.203 55.6548 286.432 55.6548 293.965 59.9073L549.444 205.783C556.852 209.212 556.852 217.409 549.444 221.198Z" stroke="#BFC9D1"/>
<path opacity="0.593913" d="M549.444 211.13L293.965 356.399C286.432 360.652 274.203 360.652 266.671 356.399L11.1922 210.524C7.47031 208.397 5.60937 205.562 5.60937 202.816C5.60937 199.981 7.47031 197.234 11.1922 195.108L266.671 49.8394C274.203 45.5869 286.432 45.5869 293.965 49.8394L549.444 195.715C556.852 199.144 556.852 207.341 549.444 211.13Z" stroke="#BFC9D1"/>
<path d="M141.488 283.758L422.819 123.817C431.113 119.135 137.39 286.099 141.488 283.758Z" stroke="#BFC9D1" stroke-dasharray="1.64 3.28"/>
<path d="M70.4863 244.358L351.817 84.4172C360.111 79.7352 66.3879 246.699 70.4863 244.358Z" stroke="#BFC9D1" stroke-dasharray="1.64 3.28"/>
<path d="M211.669 323.569L493 163.627C501.294 158.945 207.571 325.91 211.669 323.569Z" stroke="#BFC9D1" stroke-dasharray="1.64 3.28"/>
<path d="M350.897 323.462L67.79 163.653C57.2586 157.711 356.1 326.433 350.897 323.462Z" stroke="#BFC9D1" stroke-dasharray="1.64 3.69"/>
<path d="M422.081 283.372L139.203 122.612C128.671 116.669 427.284 286.344 422.081 283.372Z" stroke="#BFC9D1" stroke-dasharray="1.64 3.69"/>
<path d="M492.616 243.5L208.152 82.8016C197.621 76.8591 497.82 246.472 492.616 243.5Z" stroke="#BFC9D1" stroke-dasharray="1.64 3.69"/>
<mask id="mask0_57_387" style="mask-type:alpha" maskUnits="userSpaceOnUse" x="189" y="150" width="186" height="108">
<path d="M282.218 256.612C332.913 256.612 374.009 232.945 374.009 203.752C374.009 174.558 332.913 150.892 282.218 150.892C231.524 150.892 190.428 174.558 190.428 203.752C190.428 232.945 231.524 256.612 282.218 256.612Z" fill="#1B127D" stroke="#1B127D"/>
</mask>
<g mask="url(#mask0_57_387)">
<path d="M282.218 256.612C332.913 256.612 374.009 232.945 374.009 203.752C374.009 174.558 332.913 150.892 282.218 150.892C231.524 150.892 190.428 174.558 190.428 203.752C190.428 232.945 231.524 256.612 282.218 256.612Z" fill="#1C0D3F" stroke="#BFC9D1"/>
<path opacity="0.75" d="M282.218 285.185C332.913 285.185 374.009 261.518 374.009 232.325C374.009 203.131 332.913 179.465 282.218 179.465C231.524 179.465 190.428 203.131 190.428 232.325C190.428 261.518 231.524 285.185 282.218 285.185Z" stroke="#BFC9D1"/>
<path opacity="0.5" d="M282.218 313.757C332.913 313.757 374.009 290.091 374.009 260.898C374.009 231.704 332.913 208.038 282.218 208.038C231.524 208.038 190.428 231.704 190.428 260.898C190.428 290.091 231.524 313.757 282.218 313.757Z" stroke="#BFC9D1"/>
<path opacity="0.25" d="M282.218 342.33C332.913 342.33 374.009 318.664 374.009 289.471C374.009 260.277 332.913 236.611 282.218 236.611C231.524 236.611 190.428 260.277 190.428 289.471C190.428 318.664 231.524 342.33 282.218 342.33Z" stroke="#BFC9D1"/>
</g>
<path fill-rule="evenodd" clip-rule="evenodd" d="M136.307 112.464C136.772 111.621 137.469 111.07 138.398 110.779C139.299 110.489 140.17 110.576 141.012 111.041C141.854 111.505 142.435 112.202 142.697 113.102C142.755 113.277 142.784 113.422 142.813 113.567H142.871L146.182 129.829H146.211C146.444 130.613 146.356 131.368 145.95 132.094C145.572 132.82 144.962 133.313 144.178 133.546C143.394 133.778 142.639 133.691 141.884 133.284C141.186 132.907 140.722 132.326 140.489 131.513V131.455C140.46 131.426 140.46 131.397 140.46 131.368L136.191 115.309C136.176 115.266 136.154 115.215 136.133 115.164C136.111 115.113 136.089 115.063 136.075 115.019C135.755 114.177 135.842 113.306 136.307 112.464ZM135.349 144.522C136.22 143.651 137.266 143.245 138.514 143.274C139.734 143.303 140.78 143.767 141.622 144.668C142.464 145.568 142.871 146.613 142.842 147.833C142.842 148.181 142.784 148.501 142.697 148.82C142.667 149.289 142.628 149.758 142.591 150.224L142.591 150.224C142.556 150.651 142.521 151.075 142.494 151.492C141.913 159.913 141.477 166.94 141.128 172.574C141.099 172.893 141.07 173.445 141.041 174.2V174.055L140.983 176.233V176.581V177.569L140.78 183.725V183.812C140.751 184.451 140.519 184.973 140.054 185.438C139.56 185.874 139.008 186.106 138.369 186.106C137.701 186.077 137.149 185.816 136.743 185.351C136.278 184.886 136.075 184.335 136.075 183.667V183.376L135.087 175.42C133.809 165.169 133.054 159.332 132.851 157.909C132.676 156.748 132.56 155.644 132.56 154.541C132.531 151.811 132.967 149.227 133.896 146.758L134.042 146.787C134.216 145.916 134.651 145.161 135.349 144.522ZM127.129 148.588C125.909 148.559 124.834 148.965 123.963 149.807C123.295 150.475 122.859 151.259 122.569 152.16L122.453 152.102C122.075 153.089 121.785 154.105 121.552 155.122C121.204 156.661 121.059 158.258 121.059 159.884C121.059 160.987 121.117 162.12 121.291 163.252C121.523 164.675 122.22 170.512 123.411 180.792L124.341 188.748C124.312 188.807 124.312 188.923 124.312 189.068C124.283 189.707 124.515 190.258 124.951 190.752C125.386 191.217 125.909 191.478 126.577 191.507C127.216 191.507 127.797 191.304 128.291 190.839C128.755 190.375 128.988 189.852 129.017 189.213V189.126L129.249 182.941C129.249 182.781 129.256 182.621 129.264 182.462C129.271 182.302 129.278 182.142 129.278 181.982C129.307 181.866 129.307 181.721 129.307 181.605L129.394 179.427V179.572C129.423 178.817 129.453 178.265 129.482 177.975C129.859 172.342 130.382 165.314 131.021 156.922C131.05 156.835 131.05 156.719 131.05 156.632C131.137 155.818 131.195 155.005 131.253 154.192C131.34 153.873 131.369 153.553 131.399 153.205C131.457 152.014 131.079 150.969 130.237 150.04C129.394 149.111 128.349 148.646 127.129 148.588Z" fill="#FED8C3"/>
<path d="M127.477 123.847C129.452 123.905 131.108 124.66 132.473 126.083C133.809 127.506 134.448 129.19 134.39 131.165V131.194L132.444 153.292C132.386 154.57 131.921 155.673 131.079 156.632C131.137 155.818 131.224 155.005 131.282 154.192C131.369 153.873 131.398 153.524 131.427 153.205C131.485 152.014 131.079 150.94 130.266 150.04C129.423 149.14 128.378 148.646 127.158 148.588C125.909 148.53 124.863 148.936 123.992 149.807C123.324 150.475 122.859 151.23 122.656 152.131L122.54 152.072C122.162 153.06 121.872 154.047 121.639 155.093C121.378 154.454 121.233 153.786 121.204 153.06H121.175C120.971 147.513 120.739 141.996 120.449 136.508C120.797 136.624 121.175 136.653 121.581 136.595C122.395 136.508 123.063 136.159 123.585 135.549C124.137 134.911 124.34 134.185 124.253 133.371C124.253 133.342 124.253 133.342 124.253 133.313L124.166 124.515C125.183 124.05 126.286 123.818 127.477 123.847Z" fill="#37474F"/>
<path d="M137.942 99.7422C138.128 99.8429 138.284 99.9785 138.44 100.114L148.921 112.085L152.445 114.543C152.445 114.543 154.513 114.96 155.561 114.902C156.609 114.844 159.16 115.975 159.114 116.828C159.027 118.425 155.828 116.73 155.94 117.534C156.096 118.651 159.702 121.125 159.377 121.59C159.113 121.972 157.776 122.209 157.252 122.238C156.728 122.267 151.984 120.76 151.074 120.152C151.035 120.119 151.035 120.119 151.035 120.119C150.996 120.085 150.996 120.085 150.957 120.051L133.624 106.758C133.476 106.691 133.398 106.623 133.251 106.556C132.255 105.812 131.579 104.857 131.292 103.691C131.036 102.489 131.213 101.419 131.893 100.48C132.542 99.5757 133.412 99.0472 134.572 98.8934C135.833 98.7038 136.946 98.9984 137.942 99.7422Z" fill="#FED8C3"/>
<path d="M122.906 77.4547C122.944 77.4145 122.943 77.3754 122.942 77.3364C123.235 76.6243 123.647 75.9871 124.099 75.3879C125.421 73.7085 127.111 72.6053 129.093 72.1586C131.538 71.5034 133.967 71.6307 136.299 72.5036C137.967 72.0266 139.495 72.1401 140.924 72.882C142.234 73.549 143.162 74.5787 143.71 75.971C144.296 77.3621 144.374 78.7285 143.982 80.108C143.553 81.5277 142.608 82.6882 141.184 83.5103C141.228 83.7045 141.272 83.8597 141.316 84.054C141.547 85.2987 141.345 86.4774 140.675 87.6693C140.564 87.907 140.413 88.1068 140.262 88.3065C141.275 88.1608 142.183 88.4481 143.023 89.1283C143.945 89.9235 144.482 90.9251 144.596 92.2122C144.653 92.8362 144.59 93.3854 144.486 93.8576C145.225 93.7195 145.79 94.3293 146.098 95.5718C146.447 96.8524 146.215 98.3447 145.481 100.047C144.747 101.749 142.435 102.987 138.507 103.762C135.001 107.067 130.477 107.506 124.97 105.002C123.533 105.355 122.444 105.542 121.741 105.601C121.038 105.621 120.017 105.493 118.721 105.295C117.424 105.058 116.432 104.538 115.667 103.778C114.86 102.901 114.44 101.857 114.406 100.646C114.344 99.8266 114.557 99.0776 114.969 98.4014C115.456 97.6448 116.221 97.0367 117.186 96.5795C116.425 95.9362 115.972 95.1278 115.826 94.1152C115.719 93.1016 116.008 92.2333 116.651 91.4723L116.841 91.2714C117.183 90.9099 117.72 90.5429 118.492 90.1693C119.379 89.7143 119.995 89.3842 120.263 89.1811C120.684 88.8565 121.024 88.4168 121.322 87.9001C121.386 83.2062 121.913 79.7113 122.906 77.4547Z" fill="#1C0D3F"/>
<path d="M128.485 84.8785L129.847 84.6448C130.971 84.2614 132.046 83.5666 133.15 82.5192C134.026 81.6737 134.932 80.5146 135.83 79.0821C136.503 78.0077 137.188 77.3239 137.843 76.9927C138.597 77.3625 139.204 78.0882 139.703 79.1687C140.409 80.6344 140.779 82.6568 140.813 85.275C140.833 87.3854 140.568 89.0738 140.017 90.3402C139.611 91.2117 139.158 91.7717 138.579 92.0616C137.963 92.3916 136.792 92.4636 135.067 92.2775L135.078 95.4827C135.202 97.082 134.516 97.7268 132.942 97.3801C132.352 97.2403 131.482 96.9129 130.335 96.4369C129.149 95.962 128.544 95.3144 128.52 94.4551L128.518 94.377C128.512 94.1817 128.507 93.9863 128.501 93.791C128.497 93.6348 128.492 93.4785 128.489 93.3614L128.291 89.1059C127.867 89.3133 127.438 89.3644 127.007 89.2983C126.536 89.2334 126.177 89.0089 125.856 88.7052C125.251 88.0576 124.919 87.3633 124.779 86.5463C124.639 85.7293 124.776 85.0609 125.231 84.5399C125.685 84.0189 126.189 83.8484 126.895 83.9459C127.523 84.0064 128.04 84.3437 128.485 84.8785Z" fill="#FED8C3"/>
<path d="M129.586 90.3044C129.839 90.9619 130.284 91.4967 130.842 91.8719C131.52 92.361 132.943 92.9075 135.072 93.5122L135.079 92.3784C134.06 92.2897 132.999 92.085 131.934 91.7631C130.631 91.3305 129.836 90.8447 129.586 90.3044Z" fill="black" fill-opacity="0.0862745"/>
<path d="M127.514 190.733C128.059 190.591 128.306 190.408 128.29 190.212L128.241 189.594C128.405 190.007 129.078 190.64 130.232 191.562C131.522 192.539 132.728 193.293 133.878 193.757C135.608 194.502 136.49 194.889 136.558 194.916C137.48 195.399 138.01 195.88 138.149 196.392C138.34 197.13 138.124 197.704 137.507 198.179C136.888 198.621 135.928 198.895 134.597 199.034C133.298 199.171 132.069 198.943 130.91 198.381C130.399 198.128 129.604 197.602 128.493 196.808C127.662 196.253 126.772 195.768 125.855 195.35C125.175 195.045 124.734 194.851 124.564 194.767C124.118 194.508 123.831 194.204 123.675 193.889C123.516 193.541 123.486 192.758 123.585 191.539C123.666 190.518 123.822 190.015 124.055 190.061L124.084 190.419C124.26 190.569 124.565 190.708 124.934 190.809C125.334 190.908 125.798 190.969 126.253 190.932C126.613 190.936 127.034 190.87 127.514 190.733Z" fill="#1C0D3F"/>
<path d="M124.689 192.038C123.98 191.571 123.78 190.906 124.049 190.002C124.279 189.099 124.55 188.548 124.784 188.272C125.252 187.799 125.839 187.56 126.505 187.556C127.172 187.552 127.762 187.783 128.236 188.251C128.591 188.602 128.829 189.032 128.91 189.502C129.345 190.049 129.543 190.322 129.582 190.4C130.017 190.986 130.648 191.531 131.515 192.114C132.657 192.931 133.839 193.669 135.059 194.329C135.649 194.678 135.926 194.951 135.888 195.147C135.81 195.383 135.537 195.542 134.988 195.663C134.401 195.862 133.734 195.905 132.949 195.832C131.929 195.759 130.947 195.452 129.963 194.948C129.412 194.716 128.782 194.327 128.034 193.783C126.46 193.086 125.319 192.505 124.689 192.038Z" fill="#FED8C3"/>
<path d="M121.207 154.434L121.476 152.297C123.643 152.408 127.309 152.628 132.471 152.919C132.281 156.426 131.801 163.09 131.072 172.911C128.726 175.128 125.702 175.146 121.919 172.89C121.377 166.913 121.016 162.692 120.954 160.261C120.873 158.184 120.956 156.215 121.207 154.434Z" fill="#37474F"/>
<path d="M130.225 150.032C131.066 150.939 131.455 152.004 131.409 153.228C131.364 154.452 130.897 155.486 129.991 156.308C129.086 157.13 128.02 157.538 126.796 157.493C125.572 157.447 124.539 156.981 123.717 156.075C122.875 155.168 122.486 154.122 122.532 152.898C122.577 151.674 123.043 150.641 123.95 149.799C124.837 148.956 125.902 148.568 127.126 148.613C128.35 148.659 129.383 149.125 130.225 150.032Z" fill="#37474F"/>
<path d="M130.986 149.177C132.052 150.325 132.544 151.674 132.486 153.223C132.429 154.773 131.838 156.082 130.691 157.123C129.543 158.189 128.195 158.681 126.645 158.623C125.096 158.566 123.787 157.975 122.746 156.828C121.681 155.68 121.188 154.356 121.246 152.806C121.303 151.256 121.894 149.947 123.042 148.882C124.165 147.815 125.513 147.323 127.063 147.38C128.613 147.438 129.921 148.029 130.986 149.177Z" fill="#37474F"/>
<path d="M135.661 99.8031C134.867 99.2435 134.411 98.5025 134.252 97.5869C134.087 96.6315 134.268 95.7802 134.827 94.9863C135.386 94.1924 136.127 93.7361 137.082 93.5707C138.038 93.4053 138.889 93.5859 139.643 94.1524C140.437 94.712 140.933 95.4461 141.098 96.4015C141.264 97.3569 141.083 98.2082 140.517 98.9623C139.957 99.7562 139.216 100.212 138.301 100.371C137.313 100.583 136.455 100.363 135.661 99.8031Z" fill="#FFA8A7"/>
<path d="M137.665 116.805C136.871 116.246 136.415 115.505 136.256 114.589C136.091 113.634 136.271 112.782 136.831 111.988C137.39 111.195 138.131 110.738 139.086 110.573C140.042 110.407 140.893 110.588 141.647 111.155C142.44 111.714 142.937 112.448 143.102 113.404C143.267 114.359 143.087 115.21 142.521 115.964C141.961 116.758 141.22 117.215 140.305 117.373C139.31 117.545 138.459 117.365 137.665 116.805Z" fill="#FFA8A7"/>
<path d="M134.283 97.6229L141.183 96.8272L143.132 113.732L136.232 114.527L134.283 97.6229Z" fill="#FFA8A7"/>
<path d="M135.345 108.375L135.877 111.451C136.846 111.759 137.945 111.806 139.179 111.632C140.407 111.42 141.637 110.969 142.834 110.326C142.877 110.319 142.912 110.273 142.955 110.266C142.806 109.658 142.584 108.627 142.217 107.264C141.189 107.878 140.086 108.307 138.852 108.481C137.666 108.686 136.483 108.653 135.345 108.375Z" fill="url(#paint0_linear_57_387)"/>
<path d="M133.801 101.783C133.766 101.353 133.773 100.481 133.816 99.1264C133.8 98.5747 133.797 98.0999 133.814 97.7405L133.807 97.702C133.589 96.6704 133.814 95.6809 134.366 94.7534C135.002 93.8512 135.851 93.2684 136.928 93.082C137.998 92.8571 138.987 93.0819 139.882 93.6794C140.733 94.2451 141.257 94.9861 141.532 95.8891C141.546 95.966 141.552 96.0044 141.604 96.0747L141.631 96.2285C141.664 96.4208 141.697 96.6131 141.685 96.7736L141.762 96.7603L141.772 97.2735L142.977 104.234C143.72 106.007 143.951 107.115 143.697 107.476C143.449 107.876 143.028 108.186 142.465 108.363C142.453 108.523 141.595 108.83 139.873 109.406C138.221 109.929 136.836 109.932 135.678 109.419C135.678 109.419 135.17 109.23 134.231 108.838C133.529 108.445 133.3 107.811 133.583 106.93C133.846 105.934 133.945 104.214 133.801 101.783Z" fill="url(#paint1_linear_57_387)"/>
<path d="M135.345 108.375L135.877 111.451C136.846 111.759 137.945 111.806 139.179 111.632C140.407 111.42 141.637 110.969 142.834 110.326C142.877 110.319 142.912 110.273 142.955 110.266C142.806 109.658 142.584 108.627 142.217 107.264C141.189 107.878 140.086 108.307 138.852 108.481C137.666 108.686 136.483 108.653 135.345 108.375Z" fill="black" fill-opacity="0.1098"/>
<path d="M133.801 101.783C133.766 101.353 133.773 100.481 133.816 99.1264C133.8 98.5747 133.797 98.0999 133.814 97.7405L133.807 97.702C133.589 96.6704 133.814 95.6809 134.366 94.7534C135.002 93.8512 135.851 93.2684 136.928 93.082C137.998 92.8571 138.987 93.0819 139.882 93.6794C140.733 94.2451 141.257 94.9861 141.532 95.8891C141.546 95.966 141.552 96.0044 141.604 96.0747L141.631 96.2285C141.664 96.4208 141.697 96.6131 141.685 96.7736L141.762 96.7603L141.772 97.2735L142.977 104.234C143.72 106.007 143.951 107.115 143.697 107.476C143.449 107.876 143.028 108.186 142.465 108.363C142.453 108.523 141.595 108.83 139.873 109.406C138.221 109.929 136.836 109.932 135.678 109.419C135.678 109.419 135.17 109.23 134.231 108.838C133.529 108.445 133.3 107.811 133.583 106.93C133.846 105.934 133.945 104.214 133.801 101.783Z" fill="#ED26B7"/>
<path d="M142.3 143.402C143.461 144.454 144.068 145.754 144.145 147.303C144.222 148.852 143.747 150.206 142.695 151.343C141.644 152.504 140.344 153.111 138.795 153.188C137.247 153.265 135.893 152.79 134.756 151.738C133.595 150.687 132.99 149.411 132.913 147.862C132.835 146.313 133.31 144.959 134.361 143.798C135.387 142.638 136.688 142.031 138.236 141.954C139.784 141.877 141.139 142.351 142.3 143.402Z" fill="#263238"/>
<path d="M141.992 120.363C143.463 121.695 144.232 123.342 144.329 125.304C144.427 127.266 143.826 128.982 142.493 130.422C141.161 131.893 139.514 132.661 137.553 132.759C135.591 132.857 133.876 132.255 132.436 130.922C130.965 129.591 130.198 127.974 130.101 126.012C130.003 124.05 130.604 122.335 131.936 120.864C133.236 119.394 134.883 118.625 136.845 118.528C138.806 118.43 140.521 119.032 141.992 120.363Z" fill="#263238"/>
<path d="M144.19 147.494L132.919 148.184C132.085 141.096 131.128 133.709 130.01 126.029L144.408 125.318L144.19 147.494Z" fill="#263238"/>
<path d="M132.596 149.137L132.848 146.999C135.014 147.092 138.681 147.281 143.844 147.528C143.683 151.035 143.26 157.701 142.614 167.525C140.287 169.761 137.265 169.804 133.466 167.62C132.874 161.649 132.477 157.433 132.356 155.006C132.294 152.889 132.361 150.92 132.596 149.137Z" fill="#37474F"/>
<path d="M141.592 144.663C142.441 145.562 142.838 146.624 142.803 147.848C142.767 149.072 142.31 150.109 141.411 150.939C140.512 151.788 139.451 152.185 138.227 152.15C137.003 152.115 135.966 151.657 135.137 150.758C134.288 149.859 133.89 148.817 133.925 147.593C133.96 146.369 134.418 145.332 135.317 144.483C136.197 143.633 137.258 143.236 138.482 143.271C139.706 143.306 140.743 143.764 141.592 144.663Z" fill="#37474F"/>
<path d="M142.351 143.779C143.426 144.918 143.929 146.262 143.885 147.812C143.84 149.362 143.261 150.675 142.123 151.726C140.984 152.801 139.641 153.304 138.091 153.259C136.542 153.215 135.229 152.636 134.178 151.497C133.103 150.359 132.6 149.039 132.644 147.489C132.689 145.939 133.268 144.627 134.407 143.551C135.521 142.475 136.864 141.972 138.414 142.017C139.963 142.061 141.276 142.641 142.351 143.779Z" fill="#37474F"/>
<path d="M139.502 184.912C140.051 184.784 140.302 184.607 140.292 184.412L140.258 183.793C140.412 184.209 141.067 184.86 142.197 185.811C143.46 186.82 144.645 187.605 145.783 188.099C147.491 188.888 148.362 189.298 148.429 189.327C149.338 189.833 149.855 190.327 149.981 190.843C150.152 191.585 149.921 192.153 149.291 192.579C148.661 193.005 147.694 193.253 146.361 193.358C145.06 193.461 143.837 193.2 142.695 192.609C142.191 192.342 141.41 191.797 140.32 190.974C139.505 190.398 138.661 189.888 137.723 189.449C137.052 189.126 136.649 188.919 136.481 188.83C136.042 188.56 135.763 188.249 135.616 187.93C135.466 187.579 135.456 186.796 135.588 185.613C135.696 184.595 135.865 184.096 136.097 184.149L136.116 184.507C136.288 184.661 136.59 184.808 136.955 184.919C137.353 185.028 137.814 185.101 138.27 185.076C138.63 185.089 139.052 185.034 139.502 184.912Z" fill="#1C0D3F"/>
<path d="M136.65 186.147C135.954 185.663 135.771 184.993 136.064 184.097C136.317 183.2 136.602 182.657 136.843 182.388C137.323 181.927 137.915 181.703 138.582 181.717C139.248 181.73 139.831 181.977 140.292 182.457C140.638 182.817 140.865 183.252 140.934 183.724C141.354 184.282 141.544 184.56 141.582 184.639C142.001 185.235 142.617 185.797 143.468 186.402C144.588 187.248 145.749 188.016 146.951 188.706C147.532 189.071 147.801 189.351 147.758 189.546C147.674 189.779 147.397 189.931 146.846 190.037C146.254 190.221 145.587 190.247 144.804 190.153C143.787 190.054 142.813 189.721 141.843 189.231C141.299 188.946 140.68 188.541 139.946 187.978C138.393 187.241 137.268 186.63 136.65 186.147Z" fill="#FED8C3"/>
<path d="M121.498 118.33C122.009 116.957 122.755 115.662 123.815 114.485C125.896 112.131 128.487 110.915 131.549 110.759C134.61 110.642 137.279 111.663 139.595 113.783C141.086 115.196 142.106 116.884 142.655 118.768C142.655 118.807 142.812 119.357 143.125 120.456C143.439 121.515 143.635 122.693 143.713 123.988C144.026 127.049 143.084 129.717 140.924 131.993C138.765 134.268 135.938 135.406 132.445 135.405C129.736 135.404 127.303 135.011 125.183 134.147C124.712 133.99 124.241 133.833 123.81 133.597C123.77 133.558 123.692 133.518 123.613 133.479C119.453 131.83 118.67 126.924 121.302 118.88L121.459 118.37C121.459 118.37 121.459 118.33 121.498 118.33Z" fill="#37474F"/>
<path d="M120.218 120.699C121.542 117.259 123.206 114.992 125.286 113.972C133.643 109.211 139.692 111.292 143.356 120.176C144.225 122.331 144.868 124.599 145.245 127.018C146.453 134.768 147.132 139.72 147.245 141.837C147.433 145.314 147.959 154.954 148.787 170.754L148.144 171.737C147.501 172.493 146.706 173.248 145.761 173.929C142.66 176.12 138.501 177.329 133.246 177.63C127.99 177.93 123.491 177.211 119.787 175.471C117.934 174.601 116.611 173.694 115.818 172.786C116.465 155.436 117.036 143.643 117.529 137.406C117.946 132 118.553 127.654 119.272 124.327C119.537 123.08 119.84 121.871 120.218 120.699Z" fill="#1B127D"/>
<path fill-rule="evenodd" clip-rule="evenodd" d="M137.329 177.29C138.085 177.102 138.804 176.951 139.522 176.8C139.637 172.906 139.11 162.889 137.981 146.748C137.416 138.734 136.851 131.061 136.248 123.803C136.549 129.586 136.848 139.679 137.109 154.043C137.332 166.782 137.406 174.531 137.329 177.29ZM144.097 175.062C144.778 174.722 145.383 174.382 145.95 173.967C145.763 167.087 145.123 157.863 144.03 146.372C143.54 140.626 142.824 133.482 141.881 124.976C142.71 135.409 143.312 146.145 143.649 157.183C143.874 164.327 144.023 170.262 144.097 175.062ZM130.335 177.78C129.654 177.78 128.86 177.742 127.953 177.666C128.107 168.745 128.336 160.505 128.603 152.907C129.098 138.694 129.592 129.585 130.16 125.616C130.008 128.942 129.894 133.591 129.816 139.564C129.699 151.622 129.885 164.361 130.335 177.78ZM120.014 175.622C120.656 175.925 121.261 176.19 121.828 176.379C121.378 165.001 121.608 152.527 122.481 139.033C122.785 134.497 123.165 129.847 123.657 125.085C122.445 133.4 121.535 142.586 120.965 152.565C120.472 160.729 120.167 168.403 120.014 175.622Z" fill="black" fill-opacity="0.2"/>
<path d="M132.473 126.722C129.365 126.983 126.519 126.664 123.963 125.821C121.378 124.95 120.013 124.166 119.839 123.498C119.664 122.83 119.519 121.93 119.403 120.827L144.352 119.317C144.468 120.449 144.062 121.495 143.103 122.482C142.174 123.44 141.07 124.253 139.85 124.892C137.962 125.88 135.523 126.489 132.473 126.722Z" fill="url(#paint2_linear_57_387)"/>
<path d="M123.965 125.784C121.407 124.908 120.039 124.147 119.861 123.455C119.684 122.809 119.542 121.884 119.439 120.819L144.358 119.289C144.504 120.4 144.075 121.476 143.111 122.424C142.148 123.418 141.057 124.183 139.841 124.811C137.977 125.823 135.531 126.43 132.504 126.631C129.356 126.973 126.523 126.66 123.965 125.784Z" fill="#ED26B7"/>
<path d="M135.552 92.6882C137.265 92.9495 138.659 93.8207 139.705 95.2436C140.054 95.7082 140.344 96.2309 140.576 96.7536C140.925 97.2763 141.244 97.799 141.506 98.3217C141.593 98.4959 141.68 98.6701 141.738 98.8444L141.912 99.28C142.697 100.616 143.045 101.981 142.958 103.433C142.9 104.333 142.668 105.233 142.261 106.075C142.551 108.195 142.958 109.763 143.452 110.779C144.004 111.883 144.178 112.986 144.033 114.119C144.062 114.148 144.091 114.177 144.091 114.206C144.41 114.671 144.672 115.135 144.817 115.629C145.194 116.674 145.282 117.807 145.078 118.997C144.991 119.549 144.817 120.043 144.556 120.449C144.004 121.408 143.103 122.046 141.854 122.424C140.054 123.673 136.336 124.428 130.73 124.689C125.067 124.95 121.378 124.021 119.664 121.93C119.49 121.408 119.345 120.914 119.258 120.478C119.083 119.462 119.112 118.62 119.345 117.952C120.536 115.6 120.565 112.435 119.432 108.456C118.27 104.449 117.951 101.835 118.444 100.587C118.503 100.209 118.59 99.8607 118.706 99.5703C118.735 99.4832 118.735 99.4252 118.735 99.3961C119.548 97.1311 122.133 95.2145 126.49 93.6174C126.635 93.5593 126.809 93.5012 126.954 93.4722C126.954 93.4432 126.984 93.4432 126.984 93.4432C128 93.1818 129.307 92.9205 130.905 92.6882C132.27 92.4558 133.809 92.4268 135.552 92.6882Z" fill="#ED26B7"/>
<path d="M144.126 114.256C144.296 114.527 144.423 114.76 144.55 114.953C141.241 117.452 136.918 118.403 131.621 117.844C137.558 117.645 141.754 116.461 144.126 114.256Z" fill="black" fill-opacity="0.1176"/>
<path d="M127.262 93.6225C127.262 93.6225 127.26 93.5441 127.218 93.3881C127.374 93.3457 127.529 93.2641 127.723 93.1817C128.931 92.7649 130.926 92.5281 133.67 92.433C133.791 92.5874 133.871 92.6642 133.871 92.6642C134.037 93.0922 134.204 93.5986 134.294 94.185C134.471 95.1618 134.289 95.8322 133.746 96.157C133.088 96.6017 132.187 96.6593 131.044 96.3689C130.058 96.1145 129.226 95.7001 128.548 95.1649C127.911 94.7073 127.508 94.1665 127.262 93.6225Z" fill="#FED8C3"/>
<path d="M126.951 108.835C125.611 108.157 124.778 107.311 124.418 106.338C127.248 108.398 130.155 109.24 133.105 108.906C130.915 109.852 128.874 109.816 126.951 108.835Z" fill="black" fill-opacity="0.0862745"/>
<path d="M120.246 122.197C119.654 121.428 119.438 120.585 119.558 119.664C119.683 118.703 120.107 117.944 120.877 117.352C121.646 116.759 122.488 116.543 123.449 116.668C124.41 116.793 125.169 117.218 125.721 117.982C126.313 118.751 126.53 119.594 126.405 120.555C126.279 121.516 125.815 122.27 125.051 122.823C124.282 123.415 123.439 123.631 122.518 123.511C121.597 123.391 120.838 122.967 120.246 122.197Z" fill="#FFA8A7"/>
<path d="M119.189 99.6177L126.301 99.6997L126.061 120.561L118.949 120.479L119.189 99.6177Z" fill="#FED8C3"/>
<path d="M122.977 96.3678C124.058 96.3521 125.008 96.7035 125.777 97.4868C126.507 98.1871 126.902 99.0164 126.986 99.9422C126.993 99.9999 127.004 100.086 127.011 100.144L126.996 100.263C126.992 100.468 126.985 100.645 126.977 100.821L127.035 100.814L126.979 101.318L127.068 108.709C127.471 110.561 127.519 111.667 127.208 111.998C126.901 112.358 126.429 112.562 125.794 112.64C125.665 112.539 125.539 112.466 125.384 112.398C124.672 112.075 123.743 111.897 122.507 111.844C121.005 111.765 120.047 111.824 119.603 112.025C119.131 112.229 118.914 112.373 118.954 112.456C118.964 112.542 118.554 112.3 117.756 111.754C116.957 111.209 116.811 110.495 117.288 109.617C117.762 108.711 118.144 107.055 118.434 104.649C118.603 103.166 118.779 101.974 118.9 101.052C118.954 100.782 118.984 100.544 119.045 100.332C119.03 99.2515 119.385 98.3302 120.136 97.5358C120.919 96.7667 121.864 96.3582 122.977 96.3678Z" fill="#ED26B7"/>
<path d="M118.773 113.605L118.796 110.484C119.701 110.061 120.776 109.835 122.022 109.805C123.268 109.814 124.555 110.058 125.84 110.496C125.883 110.496 125.926 110.536 125.969 110.536C125.921 111.16 125.871 112.213 125.775 113.617C124.661 113.179 123.503 112.937 122.257 112.928C121.012 112.919 119.85 113.184 118.773 113.605Z" fill="black" fill-opacity="0.1098"/>
<path d="M118.773 113.605L118.796 110.484C119.701 110.061 120.776 109.835 122.022 109.805C123.268 109.814 124.555 110.058 125.84 110.496C125.883 110.496 125.926 110.536 125.969 110.536C125.921 111.16 125.871 112.213 125.775 113.617C124.661 113.179 123.503 112.937 122.257 112.928C121.012 112.919 119.85 113.184 118.773 113.605Z" fill="#ED26B7"/>
<path d="M126.088 118.234C126.274 118.335 126.43 118.471 126.586 118.606L137.067 130.577L140.591 133.036C140.591 133.036 142.658 133.452 143.707 133.394C144.755 133.336 147.306 134.467 147.26 135.32C147.173 136.917 143.974 135.222 144.086 136.026C144.241 137.143 147.847 139.617 147.523 140.082C147.259 140.464 145.922 140.701 145.397 140.73C144.873 140.759 140.13 139.252 139.22 138.645C139.181 138.611 139.181 138.611 139.181 138.611C139.142 138.577 139.142 138.577 139.103 138.543L121.769 125.25C121.622 125.183 121.544 125.115 121.397 125.048C120.4 124.304 119.371 123.585 119.084 122.418C118.936 121.725 118.931 119.704 119.084 119.099C119.197 118.654 119.745 117.126 120.032 116.728C120.682 115.824 121.717 116.408 122.877 116.254C124.138 116.065 125.091 117.491 126.088 118.234Z" fill="#FED8C3"/>
<path d="M436.223 190.19C434.426 187.918 431.462 189.07 429.224 189.752L428.763 194.341C428.763 194.341 428.766 194.376 428.733 194.378C428.731 194.645 427.665 198.233 427.682 198.911C427.69 199.219 428.549 199.352 429.169 197.827C429.247 199.631 429.049 200.805 429.475 201.276C430.163 202.038 431.38 201.548 432.332 201.594C433.284 201.639 433.889 199.189 434.61 198.478C435.266 197.772 435.645 195.662 435.653 194.646C435.649 194.611 435.679 194.575 435.676 194.54C435.673 194.505 435.67 194.47 435.667 194.435L436.223 190.19Z" fill="#DDAD92"/>
<path d="M439.83 178.665C439.896 178.534 439.929 178.402 439.962 178.27C440.225 177.382 440.225 176.494 439.929 175.638L439.732 177.218C439.732 177.349 439.732 177.481 439.699 177.579C439.699 177.612 439.699 177.645 439.699 177.678C439.502 178.863 438.91 179.784 437.956 180.475C436.97 181.165 435.885 181.396 434.701 181.198C433.517 181.001 432.596 180.409 431.939 179.455C431.544 178.895 431.281 178.303 431.182 177.711L428.19 192.482L428.256 192.515C430.163 194.95 432.629 195.509 435.621 194.259H435.72L439.83 178.665Z" fill="#20CA8B"/>
<path d="M438.647 151.458C437.496 151.261 436.411 151.491 435.457 152.182C434.47 152.873 433.879 153.794 433.681 154.945C433.648 155.143 433.615 155.373 433.583 155.57L433.517 155.538L431.083 176.56L431.116 176.593C431.083 176.954 431.116 177.316 431.182 177.645C431.281 178.237 431.544 178.83 431.938 179.389C432.629 180.376 433.55 180.935 434.701 181.132C435.884 181.33 436.97 181.1 437.956 180.409C438.91 179.718 439.501 178.797 439.699 177.612C439.699 177.579 439.699 177.547 439.699 177.514C439.732 177.382 439.732 177.283 439.732 177.152L439.929 175.573L442.099 156.755C442.132 156.656 442.165 156.524 442.198 156.426C442.395 155.307 442.165 154.222 441.474 153.235C440.784 152.248 439.83 151.656 438.647 151.458Z" fill="#20CA8B"/>
<path fill-rule="evenodd" clip-rule="evenodd" d="M424.591 246.802C423.486 244.993 426.29 243.601 430.186 241.559C434.082 239.517 437.519 234.183 437.519 234.183L444.615 234.081C444.615 234.081 447.8 239.989 447.8 241.559C447.8 243.129 442.025 244.381 442.025 244.381L437.519 245.854L427.477 249.037C427.477 249.037 424.879 248.871 424.591 246.802Z" fill="#2A2A2A"/>
<path d="M446.44 197.02C446.455 194.183 446.515 191.519 446.569 189.114L432.762 188.804L431.95 192.568L434.71 239.824C434.71 239.824 439.212 240.572 442.264 239.824C445.315 239.076 445.784 237.065 445.788 236.893C446.059 220.48 446.259 207.246 446.44 197.02Z" fill="#263238"/>
<path fill-rule="evenodd" clip-rule="evenodd" d="M436.074 254.811C434.968 253.002 437.856 251.079 441.752 249.037C445.648 246.995 448.419 241.614 448.419 241.614L455.514 241.512C455.514 241.512 458.7 247.42 458.7 248.99C458.7 250.56 454.737 251.824 454.737 251.824L449.553 253.661L441.752 256.379C441.752 256.379 436.362 256.88 436.074 254.811Z" fill="#2A2A2A"/>
<path d="M460.14 185.812C460.189 185.471 460.189 185.131 460.237 184.79C460.382 181.137 459.216 177.923 456.741 175.196C454.266 172.469 451.21 171.058 447.571 170.864C443.932 170.719 440.731 171.889 438.015 174.373C435.298 176.858 433.892 179.975 433.748 183.628C433.748 183.774 433.748 183.872 433.748 184.018C433.651 184.602 433.603 185.187 433.554 185.771C433.41 189.57 434.527 192.784 436.905 195.414C439.331 198.043 442.534 199.406 446.415 199.405C449.471 199.404 452.188 198.916 454.613 197.941C455.68 197.649 456.651 197.113 457.621 196.431C459.076 194.92 459.851 193.41 459.948 191.852C460.045 190.342 460.093 189.465 460.093 189.222C460.141 187.761 460.189 186.592 460.14 185.812Z" fill="#37474F"/>
<path d="M459.415 203.967C459.559 201.04 459.76 193.934 459.923 191.453L446.118 194.906L445.136 198.757L445.9 247.354C445.9 247.354 450.515 248.297 453.168 247.354C455.821 246.412 456.941 245.273 456.953 245.096C457.969 228.166 458.77 214.515 459.415 203.967Z" fill="#37474F"/>
<path d="M442.113 156.778C442.13 156.683 442.155 156.539 442.171 156.443C442.37 155.295 442.161 154.223 441.497 153.221C440.776 152.258 439.845 151.653 438.696 151.454C437.546 151.255 436.466 151.512 435.464 152.176C434.453 152.888 433.848 153.819 433.649 154.967C433.616 155.159 433.583 155.35 433.589 155.598L433.493 155.581L431.037 176.598L431.133 176.615C431.055 177.636 431.336 178.572 431.93 179.415C432.603 180.369 433.534 180.974 434.683 181.173C435.88 181.38 436.961 181.124 437.915 180.451C438.87 179.778 439.475 178.848 439.682 177.652C439.691 177.604 439.691 177.604 439.699 177.556C439.724 177.412 439.749 177.269 439.717 177.165L442.113 156.778Z" fill="#20CA8B"/>
<path d="M458.587 187.94C458.635 187.597 458.635 187.255 458.635 186.913C458.781 183.248 457.607 180.023 455.115 177.287C452.623 174.551 449.546 173.134 445.882 172.989C442.218 172.843 438.995 174.017 436.26 176.51C433.525 179.003 432.11 182.132 431.964 185.797C431.964 185.943 431.964 186.041 431.964 186.188C431.867 186.774 431.818 187.361 431.769 187.947C431.624 191.759 432.748 194.984 435.192 197.623C437.635 200.261 440.81 201.58 444.718 201.578C447.795 201.578 450.531 201.088 452.973 200.11C454.047 199.816 455.024 199.279 456.001 198.545C457.466 197.03 458.247 195.515 458.344 194C458.441 192.485 458.49 191.605 458.49 191.361C458.587 189.894 458.636 188.721 458.587 187.94Z" fill="#37474F"/>
<path d="M443.119 149.583C443.086 149.057 442.034 148.925 439.995 149.221C437.923 149.55 436.279 150.636 435.063 152.412C433.846 154.189 433.221 156.426 433.254 159.091C433.254 161.755 432.761 171.822 431.774 189.357C435.392 192.121 440.488 193.601 447.032 193.765C449.696 193.831 452.162 193.667 454.496 193.206C456.7 192.811 459.207 192.028 460.193 191.337L460.555 169.262C460.555 167.65 459.791 165.572 460.054 162.545C460.251 160.045 460.218 158.4 460.021 157.544C459.001 154.616 455.746 152.149 450.189 150.142C449.827 150.504 449.432 150.8 449.005 150.998C447.361 151.754 445.848 151.688 444.434 150.8C443.218 150.142 442.79 149.715 443.119 149.583Z" fill="#A3FFB0"/>
<path d="M450.54 149.415C448.369 148.149 445.737 147.949 442.548 148.763C441.86 148.993 441.218 149.371 440.718 149.947C440.169 150.521 439.815 151.149 439.605 151.829C439.395 152.557 439.176 153.724 439.047 155.284C438.981 156.113 438.917 156.845 438.903 157.528L440.792 155.857L442.483 156.722L444.831 156.477L446.382 159.439C449.343 157.839 451.436 155.733 452.613 153.071C452.445 151.749 452.075 150.716 451.406 150.018L450.54 149.415Z" fill="url(#paint3_linear_57_387)"/>
<path d="M446.476 159.587C449.437 157.987 451.53 155.881 452.707 153.219C452.539 151.897 452.17 150.864 451.501 150.167L450.538 149.512C448.367 148.247 445.736 147.998 442.546 148.861C441.858 149.091 441.215 149.468 440.715 150.044C440.167 150.619 439.812 151.247 439.603 151.926C439.393 152.654 439.174 153.822 439.044 155.382C438.979 156.211 438.915 156.942 438.901 157.626L440.79 155.955L442.481 156.82L444.829 156.575L446.476 159.587Z" fill="black" fill-opacity="0.5176"/>
<path d="M442.411 153.058C442.431 154.475 442.455 155.696 442.533 156.674C448.252 153.91 450.835 151.716 450.28 150.191C448.696 148.889 446.41 148.5 443.42 149.074C442.761 150.281 442.441 151.593 442.411 153.058Z" fill="#DDAD92"/>
<path d="M446.845 124.846C447.425 124.4 448.103 124.192 448.876 124.181C449.89 124.113 450.768 124.462 451.506 125.145C452.124 125.878 452.381 126.675 452.238 127.58C453.084 127.442 453.776 127.437 454.357 127.601C455.022 127.801 455.54 128.255 455.992 128.917C456.27 129.428 456.427 129.947 456.425 130.517C456.422 131.087 456.252 131.588 455.96 132.096C456.571 132.096 457.082 132.428 457.487 133.012C457.846 133.517 458.001 133.995 457.952 134.487C457.944 134.976 457.809 135.393 457.512 135.82C457.212 136.206 456.864 136.474 456.385 136.628C456.761 136.766 457.064 137.031 457.256 137.466C457.488 137.898 457.559 138.341 457.507 138.793C457.416 139.247 457.24 139.666 456.9 140.055C456.597 140.401 456.208 140.671 455.727 140.785C455.992 141.093 456.181 141.488 456.254 141.971C456.33 142.496 456.238 142.95 455.939 143.336C455.639 143.723 455.252 144.034 454.815 144.185C454.336 144.339 453.85 144.372 453.353 144.242C453.391 144.81 453.218 145.269 452.878 145.659C452.537 146.048 452.067 146.324 451.467 146.486C451.068 146.594 450.573 146.505 450.027 146.256C449.438 145.97 449.049 145.63 448.86 145.235C448.625 144.762 447.925 144.646 446.755 144.806C446.593 144.817 446.395 144.911 446.074 144.973C445.836 145.071 445.674 145.082 445.552 145.09C442.507 145.212 439.613 144.55 436.873 143.146C435.73 142.489 434.698 141.662 433.733 140.627C432.855 140.279 432.406 139.657 432.306 138.768C432.211 137.96 432.454 137.333 432.997 136.93C432.616 136.711 432.267 136.368 432.078 135.974C431.848 135.582 431.737 135.141 431.745 134.652C431.756 134.203 431.929 133.744 432.148 133.363C432.407 132.979 432.712 132.673 433.144 132.441C432.844 132.217 432.663 131.944 432.598 131.582C432.493 131.222 432.552 130.892 432.693 130.557C432.874 130.219 433.103 130 433.417 129.817C433.73 129.633 434.092 129.568 434.462 129.624C434.035 129.327 433.806 128.935 433.689 128.414C433.614 127.889 433.705 127.435 434.005 127.049L434.043 127.006C434.424 126.614 434.856 126.381 435.383 126.346C435.91 126.311 436.407 126.44 436.834 126.737C436.801 126.251 436.893 125.797 437.15 125.372C437.406 124.948 437.752 124.64 438.228 124.445C438.703 124.251 439.19 124.218 439.687 124.348C440.184 124.477 440.606 124.693 440.957 125.077C440.911 124.999 441.059 124.785 441.438 124.353C441.586 124.139 441.816 123.92 442.127 123.696C442.672 123.334 443.232 123.174 443.883 123.171C444.491 123.13 445.069 123.255 445.62 123.584C446.166 123.833 446.561 124.254 446.845 124.846Z" fill="#263238"/>
<path d="M448.742 138.468C448.289 137.287 448.015 136.646 448.016 136.598C447.661 135.37 447.501 134.149 447.536 132.884C445.522 131.804 443.201 131.301 440.519 131.469C438.131 131.597 436.414 132.084 435.416 132.933C435.31 133.27 435.251 133.61 435.193 133.949C435.136 134.239 435.128 134.531 435.071 134.822C435.005 135.453 434.891 136.034 434.875 136.618C434.681 138.317 434.64 139.776 434.656 140.945C434.649 141.189 434.692 141.384 434.685 141.628C434.796 142.897 435.001 144.266 435.349 145.736C435.658 146.865 436.071 147.753 436.685 148.403C436.78 148.503 436.922 148.653 437.017 148.705L437.304 148.908L437.351 148.958C437.351 148.958 437.4 148.959 437.398 149.008C437.447 149.009 437.446 149.058 437.494 149.059C437.494 149.059 437.494 149.059 437.543 149.06L437.975 149.267C438.215 149.371 438.457 149.427 438.748 149.484C439.767 149.561 440.741 149.54 441.718 149.421C441.815 149.424 441.963 149.379 442.06 149.382L441.901 153.322C441.686 155.75 443.08 156.374 445.985 155.189C446.183 155.049 446.479 154.911 446.825 154.726C448.952 153.52 450.046 152.674 450.063 152.09L450.345 143.772L450.812 144.467C451.336 144.871 452.113 144.941 453.144 144.63C453.929 144.408 454.58 143.745 455.144 142.738C455.759 141.636 455.885 140.617 455.471 139.728C455.15 139.038 454.723 138.636 454.094 138.521C453.997 138.518 453.852 138.466 453.754 138.512C453.169 138.544 452.628 138.723 452.227 139.15C451.826 139.577 451.526 139.861 451.376 140.003C451.027 140.285 450.827 140.474 450.824 140.572C450.822 140.669 450.58 140.614 450.145 140.504C449.711 140.346 449.244 139.651 448.742 138.468Z" fill="#DDAD92"/>
<path d="M444.749 150.165C446.321 149.625 447.407 149.072 447.911 148.453C448.465 147.787 448.874 147.068 449.239 146.203C448.777 147.066 448.078 147.679 447.24 148.093C446.648 148.369 445.568 148.728 444.001 149.073L441.8 149.498L441.867 150.571C442.597 150.543 443.525 150.423 444.749 150.165Z" fill="black" fill-opacity="0.149"/>
<path d="M450.568 136.773C450.098 135.542 449.588 135.723 449.035 137.411C449.066 139.896 448.82 141.495 448.243 142.258C447.824 142.782 447.208 143.154 446.392 143.424C445.526 143.691 444.516 143.712 443.411 143.486C442.707 143.369 441.604 143.094 440.099 142.76C439.446 142.644 438.787 142.723 438.126 142.899C437.005 143.257 436.343 143.433 436.242 143.431C435.937 143.519 435.685 143.512 435.484 143.458C435.233 143.402 435.035 143.251 434.943 142.956C434.614 142.07 434.504 140.606 434.609 138.662L434.284 137.63L434.307 140.406C434.301 142.451 434.313 143.815 434.445 144.5C434.561 145.769 434.69 146.552 434.832 146.897C435.062 147.682 435.5 148.279 436.145 148.687C436.937 149.244 438.039 149.568 439.451 149.656C440.962 149.796 442.58 149.695 444.308 149.305C447.408 148.613 449.205 147.544 449.7 146.097C450.248 144.554 450.545 143.005 450.637 141.498C450.723 140.234 450.847 139.41 451.008 139.074C451.218 138.787 451.038 138.003 450.568 136.773Z" fill="#263238"/>
<path d="M453.076 140.217C455.528 141.467 457.631 139.298 459.293 137.823L457.873 133.677C457.873 133.677 457.857 133.649 457.884 133.634C457.78 133.403 457.28 129.883 456.996 129.304C456.867 129.041 456.073 129.266 456.141 130.829C455.359 129.302 455.065 128.21 454.511 127.972C453.614 127.587 452.758 128.492 451.919 128.83C451.079 129.168 451.527 131.523 451.186 132.422C450.899 133.292 451.408 135.264 451.804 136.144C451.82 136.173 451.809 136.216 451.826 136.245C451.842 136.274 451.859 136.303 451.875 136.331L453.076 140.217Z" fill="#DDAD92"/>
<path d="M461.636 161.672C460.988 162.676 460.108 163.319 458.968 163.587C457.798 163.841 456.689 163.652 455.685 163.003C454.681 162.355 454.069 161.489 453.815 160.319C453.532 159.135 453.722 158.026 454.357 157.051C454.47 156.886 454.583 156.721 454.696 156.556L454.606 156.514L458.407 150.573C459.659 148.188 467.423 149.645 465.833 155.19C465.833 155.19 465.819 155.219 465.806 155.249C465.806 155.249 465.792 155.279 465.762 155.265L465.748 155.295C465.748 155.295 465.748 155.295 465.734 155.325C465.649 155.43 465.564 155.536 465.478 155.641L461.805 161.388C461.763 161.477 461.708 161.596 461.636 161.672Z" fill="#20CA8B"/>
<path d="M466.257 152.128C466.497 153.3 466.318 154.374 465.691 155.363C465.033 156.363 464.108 157.004 462.937 157.243C461.766 157.482 460.723 157.292 459.723 156.633C458.692 155.986 457.953 155.085 457.725 153.944C457.621 153.595 457.7 153.829 457.641 153.601L451.645 137.017C454.81 137.784 457.165 136.847 458.698 134.178L465.618 150.121C465.693 150.234 465.737 150.358 465.792 150.513C465.965 150.905 466.107 151.309 466.177 151.703C466.177 151.703 466.188 151.734 466.199 151.765C466.199 151.765 466.21 151.796 466.179 151.807L466.19 151.838C466.19 151.838 466.19 151.838 466.201 151.869C466.214 152.004 466.226 152.139 466.239 152.274L466.179 151.807C466.212 151.9 466.255 152.024 466.257 152.128Z" fill="#20CA8B"/>
</g>
<defs>
<linearGradient id="paint0_linear_57_387" x1="141.064" y1="109.677" x2="140.379" y2="103.809" gradientUnits="userSpaceOnUse">
<stop stop-color="#FA1E58"/>
<stop offset="1" stop-color="#FECD85"/>
</linearGradient>
<linearGradient id="paint1_linear_57_387" x1="134.825" y1="100.728" x2="139.464" y2="107.579" gradientUnits="userSpaceOnUse">
<stop stop-color="#6D6AFE"/>
<stop offset="1" stop-color="#3FB0F7"/>
</linearGradient>
<linearGradient id="paint2_linear_57_387" x1="139.241" y1="119.572" x2="139.233" y2="123.998" gradientUnits="userSpaceOnUse">
<stop stop-color="#6D6AFE"/>
<stop offset="1" stop-color="#3FB0F7"/>
</linearGradient>
<linearGradient id="paint3_linear_57_387" x1="439.718" y1="148.069" x2="439.368" y2="158.315" gradientUnits="userSpaceOnUse">
<stop stop-color="#94E69A"/>
<stop offset="1" stop-color="#17ADC9"/>
</linearGradient>
<clipPath id="clip0_57_387">
<rect width="555" height="379" fill="white" transform="translate(0 0.5)"/>
</clipPath>
</defs>
</svg>
