<svg width="212" height="35" xmlns="http://www.w3.org/2000/svg">
  <g fillRule="nonzero" fill="none">
      <g fill="#000">
          <path d="M62.2620479 15.95030166c2.3442294.02902955 4.2237469 1.94801014 4.2040665 4.29233667-.0196805 2.34432647-1.9311502 4.23148207-4.2755366 4.22115107-2.3443863-.010331-4.2391499-1.9142595-4.2381685-4.25866846.0010461-1.13765775.4572005-2.2276112 1.2667789-3.02689159.8095784-.79928041 1.9052818-1.2414449 3.0428597-1.22792769zm0 7.07590364c1.6424699 0 2.6650602-1.176506 2.6650602-2.82108436 0-1.64457831-1.0225903-2.81686747-2.6650602-2.81686747s-2.6587349 1.17439759-2.6587349 2.81686747c0 1.64246986 1.0183734 2.82108436 2.6587349 2.82108436zM56.6999997 17.48945829v5.96686751c-1.1786145.714759-3.11204819 1.1111445-4.57951807 1.1111445-4.10301205 0-6.47921687-2.9222891-6.47921687-6.36114454 0-3.58433735 2.61656626-6.35903615 6.3063253-6.35903615 2.22228916 0 3.57379514.60090362 4.51204824 1.575l-1.1596386 1.24608434c-.99307229-.95722891-2.13795181-1.27981928-3.35240964-1.27981928-2.76837349 0-4.5626506 2.16957832-4.5626506 4.81777109 0 2.74096385 2.03463855 4.81987954 4.69969879 4.81987954 1.14487952 0 2.24126506-.2108434 2.975-.6325301v-3.37349402h-2.68403614v-1.53704819l4.32439759.0063253z"/>
          <path d="M52.12048163 24.6981932c-3.89427711 0-6.6120482-2.6713855-6.6120482-6.49186744 0-3.69819277 2.7683735-6.49186747 6.43915663-6.49186747 2.08524096 0 3.54849394.51445783 4.61114454 1.61506024l.0843374.08855422-1.33885543 1.4379518-.09698796-.09066265c-.86867469-.84337349-1.93554216-1.24819277-3.25963855-1.24819277-2.56807229 0-4.42771084 1.97349398-4.42771084 4.68915663 0 2.67138554 1.96506024 4.68704824 4.5689759 4.68704824 1.11536145 0 2.14006024-.2108434 2.84216868-.5756025v-3.16265056h-2.68825302v-1.80481928h4.58795182v6.17560244l-.0590362.0379518c-1.2756024.7759036-3.30602405 1.1301205-4.65120477 1.1301205v.0042168zm-.17289157-12.71807226c-3.58433735 0-6.1756024 2.6186747-6.1756024 6.22620482 0 3.66656624 2.61024095 6.22620484 6.34849397 6.22620484 1.28614457 0 3.21325297-.3310241 4.44879517-1.0542169v-5.75602409H52.506325v1.26506025h2.68403614v3.58433734l-.06536144.0358434c-.74006024.4216867-1.84698795.651506-3.04036145.651506-2.75361445 0-4.83253012-2.12740964-4.83253012-4.95271084 0-2.86957831 1.97560241-4.95060241 4.69548193-4.95060241 1.34728916 0 2.4436747.40060241 3.34608434 1.22710843l.9825301-1.05421686c-.99939757-.98463856-2.38042167-1.44216868-4.32861444-1.44216868v-.0063253zM62.2620479 24.59488c-2.4193462-.0209174-4.3656495-1.995445-4.3517346-4.4148417.0139148-2.41939666 1.982801-4.37140666 4.4022278-4.36449442 2.4194268.00691223 4.3771272 1.97014039 4.3772176 4.38957706.0063445 1.17277348-.4593419 2.29880016-1.2921918 3.12451136-.8328499.8257112-1.9628436 1.2816873-3.135519 1.2652477zm0-8.51385545c-2.2726099.02671133-4.0957216 1.8861632-4.077579 4.15885763.0181426 2.27269442 1.8707074 4.10280392 4.1434541 4.09323042 2.2727467-.0095735 4.1098281-1.855225 4.1088237-4.12799166.004683-1.10401795-.4352939-2.1634352-1.220705-2.93932623-.7854112-.77589101-1.8501151-1.20291607-2.9539938-1.18477016zm0 7.07801205c-1.671988 0-2.8-1.1870482-2.8-2.95180723s1.128012-2.95180723 2.8-2.95180723c1.6719879 0 2.8 1.18915663 2.8 2.95180723 0 1.76265063-1.1280121 2.95180723-2.8 2.95180723zm0-5.64006024c-1.5138554 0-2.5301205 1.07951807-2.5301205 2.68614458 0 1.60662646 1.0204819 2.68825306 2.5301205 2.68825306 1.5096385 0 2.5301205-1.0795181 2.5301205-2.68825306 0-1.60873494-1.020482-2.68614458-2.5301205-2.68614458zM71.7521081 15.95030166c2.344812.02671354 4.2264516 1.94469819 4.208306 4.28959216-.0181458 2.34489398-1.9292424 4.23352908-4.2741869 4.22395158-2.3449446-.0095776-4.2405501-1.9137605-4.2395408-4.25872446.0004894-1.13709444.4558847-2.22673074 1.2646709-3.02601105.8087861-.79928032 1.9037301-1.24176185 3.0407508-1.22880823zm0 7.07590364c1.6424699 0 2.6650603-1.176506 2.6650603-2.82108436 0-1.64457831-1.0225904-2.81686747-2.6650603-2.81686747-1.6424698 0-2.6608433 1.17439759-2.6608433 2.81686747 0 1.64246986 1.0183735 2.82108436 2.6608433 2.82108436z"/>
          <path d="M71.7521081 24.59488c-2.4193463-.0209174-4.3656495-1.995445-4.3517347-4.4148417.0139149-2.41939666 1.9828011-4.37140666 4.4022279-4.36449442 2.4194269.00691223 4.3771272 1.97014039 4.3772177 4.38957706.0057665 1.1725973-.4601043 2.29828576-1.2928269 3.12387076-.8327227.8255851-1.9623798 1.2817485-3.134884 1.2658883zm0-8.51385545c-2.2723183.02786928-4.0943689 1.88781893-4.0754592 4.16022955.0189099 2.2724106 1.8716613 4.1017804 4.1441288 4.0918302 2.2724674-.0099501 4.109128-1.8554743 4.1081377-4.12796336.0046942-1.10438977-.435571-2.164136-1.2214427-2.94009001-.7858716-.77595401-1.8511234-1.20272539-2.9553646-1.18400638zm0 7.07801205c-1.686747 0-2.8-1.1870482-2.8-2.95180723s1.1237952-2.95180723 2.8-2.95180723c1.6762049 0 2.7978916 1.18915663 2.7978916 2.95180723 0 1.76265063-1.1237952 2.95180723-2.7978916 2.95180723zm0-5.64006024c-1.5180723 0-2.5301204 1.07951807-2.5301204 2.68614458 0 1.60662646 1.0141566 2.68825306 2.5301204 2.68825306 1.5159639 0 2.5301205-1.0795181 2.5301205-2.68825306 0-1.60873494-1.016265-2.68614458-2.5301205-2.68614458zM85.484337 24.2554221h-1.5433734v-1.1596385h-.033735c-.5945783.8686747-1.7246988 1.3641566-2.8210843 1.3641566-2.5090362 0-4.1135542-1.861747-4.1135542-4.25692769 0-2.42680723 1.6213855-4.25481928 4.1135542-4.25481928 1.1659638 0 2.2728915.52921687 2.8210843 1.37048193h.033735v-5.361747h1.5433734V24.2554221zm-1.5433734-4.05240959c0-1.63825302-1.0225904-2.81686747-2.6650603-2.81686747s-2.6650602 1.17861445-2.6650602 2.81686747c0 1.63825299 1.0246988 2.82108429 2.6650602 2.82108429 1.6403615 0 2.6650603-1.1743975 2.6650603-2.81897586v-.00210843z"/>
          <path d="M81.0861443 24.59488c-2.498494 0-4.248494-1.8069277-4.248494-4.38975906 0-2.58283133 1.7415663-4.38343374 4.248494-4.38343374 1.0296376-.01703277 2.0187142.40095161 2.7240964 1.15120482v-5.14668674h1.8048192V24.3903619h-1.8048192v-.9551205c-.7069376.7490099-1.6942014 1.1692847-2.7240964 1.1596386zm0-8.51385545c-2.3445783 0-3.9870482 1.68674699-3.9870482 4.12409639 0 2.43734936 1.6424699 4.12620486 3.9870482 4.12620486 1.1027108 0 2.1674699-.5123494 2.7135542-1.3093374l.0421687-.0569277h.2003012l.0316265.1328313v1.0289157h1.2756024V12.08765106h-1.2756024v5.36385542h-.2108434l-.0716867-.06325301c-.5186747-.79277108-1.5834338-1.30722892-2.7135543-1.30722892h.0084338zm.189759 7.07801205c-1.6719879 0-2.7957831-1.1870482-2.7957831-2.95180723s1.1237952-2.95180723 2.7957831-2.95180723c1.671988 0 2.7978916 1.18915663 2.7978916 2.95180723 0 1.76265063-1.1216868 2.95180723-2.7978916 2.95180723zm0-5.64006024c-1.5159638 0-2.5301205 1.07951807-2.5301205 2.68614458 0 1.60662646 1.0183735 2.68825306 2.5301205 2.68825306 1.511747 0 2.5301205-1.0795181 2.5301205-2.68825306 0-1.60873494-1.0162651-2.68614458-2.5301205-2.68614458zM87.5231925 12.06867516h3.689759c5.1087349 0 6.3569277 3.89849397 6.3569277 6.1376506 0 3.09518072-2.3066265 6.05120484-6.6331325 6.05120484h-3.4135542V12.06867516zm1.6424698 10.65180724h1.5349398c2.7683735 0 5.1256024-1.52228917 5.1256024-4.51415664 0-1.53915663-.8012048-4.60271084-4.7313253-4.60271084h-1.9292169v9.11686748z"/>
          <path d="M90.9367467 24.3903619h-3.5442771V11.93795227h3.8204819c5.1256024 0 6.4876506 3.94066265 6.4876506 6.26837349 0 3.07198795-2.3192771 6.18403614-6.7638554 6.18403614zm-3.2912651-.2635542h3.2828314c4.467771 0 6.5024096-3.07198797 6.5024096-5.92048194 0-.61566265-.1728916-6.00692771-6.2262048-6.00692771h-3.5590362V24.1268077zm3.0466868-1.2756024h-1.6677711v-9.37831328h2.0620482c4.7292168 0 4.8620482 4.25060241 4.8620482 4.73343374 0 3.20903614-2.6376506 4.63855424-5.2563253 4.63855424v.0063253zm-1.4042169-.2635542h1.4042169c2.3024096 0 4.9948795-1.14487956 4.9948795-4.38132534 0-.45753012-.1286145-4.47198795-4.6006024-4.47198795h-1.798494v8.85542169-.0021084zM98.7737949 17.15000046c.8846943-.7826797 2.0278654-1.21005439 3.2090361-1.1996988 2.3909639 0 3.3840362 1.29879518 3.3840362 2.69879518v4.13042166a13.1292541 13.1292541 0 0 0 .0674698 1.4759036h-1.366265c-.033735-.4090361-.0506024-.8180722-.0506024-1.2313253h-.0358434c-.6831325 1.0415663-1.6087349 1.4358434-2.8358434 1.4358434-1.5033132 0-2.8042168-.8539156-2.8042168-2.4268072 0-2.08313254 1.9987951-2.80210845 4.4614457-2.80210845h1.1280121v-.34367469c0-.8433735-.6156627-1.70993976-1.9313253-1.70993976-1.1786145 0-1.7457831.49969879-2.3066265.92560241l-.9192771-.95301205zm4.3454819 3.20903614c-1.4569277 0-3.2343373.25722892-3.2343373 1.560241 0 .9192771.6852409 1.3114457 1.7457831 1.3114457 1.7078313 0 2.3066265-1.2650602 2.3066265-2.35722887v-.51445783h-.8180723z"/>
          <path d="M101.1521081 24.59488c-1.7289156 0-2.9349397-1.0542169-2.9349397-2.5596386 0-1.89759034 1.6298193-2.93493974 4.5921686-2.93493974h.9972892v-.21084337c0-.75903615-.5650602-1.575-1.8006024-1.575-1.0542169 0-1.5939759.41114458-2.1084337.80963855l-.2108434.15391567-1.0942771-1.13433735.0969879-.09277109c.9075517-.80367141 2.081193-1.24172068 3.2933735-1.22921687 2.5933735 0 3.5147591 1.46114458 3.5147591 2.83162651v4.12620479a11.83249612 11.83249612 0 0 0 .0695783 1.4759036l.0168674.145482h-1.638253v-.1201808c-.0253012-.2930722-.0421686-.5903614-.0484939-.8876506-.6493976.8265061-1.5349398 1.2123494-2.7409639 1.2123494l-.0042169-.0105421zm1.6572289-5.23102412c-1.9777108 0-4.3286144.46174699-4.3286144 2.67138552 0 1.5876506 1.3430723 2.2960844 2.6713855 2.2960844 1.2650603 0 2.1084338-.4216868 2.7262049-1.3768073l.0400602-.0611445h.2108434l.0337349.1328313c0 .3668674.0126506.7358434.0421687 1.1006024h1.098494a13.10185315 13.10185315 0 0 1-.0527109-1.3388554v-4.13885546c0-1.24186747-.8539156-2.56807229-3.2533132-2.56807229-1.1029415-.01053396-2.1740166.3696454-3.023494 1.07319278l.7442771.77379518.0210843-.01475904c.5271085-.40481928 1.1301205-.86445783 2.275-.86445783 1.4189759 0 2.0641567.95301205 2.0641567 1.84066265v.47439759h-1.2692772zM101.6307226 23.36988c-1.2081325 0-1.876506-.5144579-1.876506-1.4463856 0-.77168671.5840361-1.68674695 3.3734939-1.68674695h.9509037v.64518072c0 1.14909643-.6325302 2.49216863-2.4394579 2.49216863l-.0084337-.0042168zm1.4885542-2.87168677c-1.4168675 0-3.1036145.24457831-3.1036145 1.42530117 0 .7801205.5460844 1.1807229 1.6150603 1.1807229 1.6024096 0 2.1759036-1.1469879 2.1759036-2.226506v-.37951807h-.6873494zM111.7322286 17.48945829h-2.2054217v3.675c0 .90451811 0 1.86174701 1.161747 1.86174701.3785008.0159819.7547118-.0660872 1.0921687-.238253v1.4021084c-.3563253.2108434-1.0753012.271988-1.3810241.271988-2.3762048 0-2.4078313-1.4548193-2.4078313-2.7515061v-4.21686744h-1.7795181V16.1590366h1.7795181v-2.27921687h1.5349397v2.275h2.2054217v1.33463856z"/>
          <path d="M110.3996985 24.59488c-2.5427711 0-2.5427711-1.6656627-2.5427711-2.8843374v-4.08825299h-1.7774096v-1.58975903h1.7774096v-2.27921687h1.8006024v2.27921687h2.2075301v1.59819277h-2.2075301v3.54216867c0 1.07740968.0716868 1.72891568 1.0310241 1.72891568.3547168.0193398.7084139-.0532879 1.0268072-.2108434l.2108434-.126506v1.7183735l-.0653614.0379518c-.4216868.238253-1.2081326.2909638-1.4506024.2909638l-.0105422-.0168674zm-4.0566265-7.24036147h1.7795181v4.35602407c0 1.2292169 0 2.6207832 2.2771084 2.6207832.4270112.001374.8506988-.0750755 1.2503012-.2256025v-1.1048192c-.3081501.1109275-.6340001.1645212-.9614458.1581325-1.2966867 0-1.2966867-1.1069277-1.2966867-1.99457831v-3.80993976h2.2096385v-1.06686747h-2.2096385v-2.27289157h-1.2650603v2.27289157h-1.779518v1.06686747h-.0042169zM113.2376503 17.15000046c.8853566-.78435793 2.0304915-1.21190496 3.213253-1.1996988 2.3909639 0 3.373494 1.29879518 3.373494 2.69879518v4.13042166a12.60421075 12.60421075 0 0 0 .0695783 1.4759036h-1.3683735c-.0337349-.4090361-.0506024-.8180722-.0506024-1.2313253h-.0379518c-.6810241 1.0415663-1.6045181 1.4358434-2.8337349 1.4358434-1.5054217 0-2.8063253-.8539156-2.8063253-2.4268072 0-2.08313254 2.0009036-2.80210845 4.4614457-2.80210845h1.1280121v-.34367469c0-.8433735-.6135542-1.70993976-1.9292169-1.70993976-1.1786144 0-1.7436747.49969879-2.3192771.92560241l-.9003012-.95301205zm4.3475904 3.20903614c-1.4527109 0-3.232229.25722892-3.232229 1.560241 0 .9192771.685241 1.3114457 1.7436747 1.3114457 1.7078314 0 2.3066266-1.2650602 2.3066266-2.35722887v-.51445783h-.8180723z"/>
          <path d="M115.6138551 24.59488c-1.7310241 0-2.9370482-1.0542169-2.9370482-2.5596386 0-1.89759034 1.6319277-2.93493974 4.5921687-2.93493974h.9972892v-.21084337c0-.75903615-.5629518-1.575-1.798494-1.575-1.0542169 0-1.5960844.41114458-2.1084338.80963855l-.2108433.15391567-1.1006024-1.13433735.0969879-.09277109c.9115362-.80538365 2.0897435-1.2434544 3.3060241-1.22921687 2.5933735 0 3.514759 1.46114458 3.514759 2.83162651v4.12620479c-.005737.4864871.0160853.9729087.0653615 1.4569277l.0210843.145482h-1.638253v-.1201808c-.0253012-.2930722-.0421687-.5903614-.0527108-.8876506-.6472892.8265061-1.5328313 1.2123494-2.7409639 1.2123494l-.0063253.0084338zm1.6551205-5.23102412c-1.973494 0-4.326506.46174699-4.326506 2.67138552 0 1.5876506 1.3388554 2.2960844 2.6713855 2.2960844 1.2650603 0 2.1084338-.4216868 2.7240964-1.3768073l.0421687-.0611445h.2108434l.0337349.1328313c0 .3668674.014759.7358434.0400602 1.1006024h1.098494c-.0358434-.364759-.0548193-.7885542-.0548193-1.3388554v-4.13885546c0-1.24186747-.8433735-2.56807229-3.2490964-2.56807229-1.1035118-.01012227-2.1751135.36997904-3.0256024 1.07319278l.7463856.77379518.0189759-.01475904c.5292169-.40481928 1.128012-.86445783 2.2771084-.86445783 1.4189759 0 2.0620482.95301205 2.0620482 1.84066265v.47439759h-1.2692771zM116.0903611 23.36988c-1.2102409 0-1.8743975-.5144579-1.8743975-1.4463856 0-.77168671.5819277-1.68674695 3.3734939-1.68674695h.9509036v.64518072c0 1.14909643-.6325301 2.49216863-2.4394578 2.49216863l-.0105422-.0042168zm1.4948796-2.87590364c-1.4147591 0-3.0993976.24457831-3.0993976 1.42530124 0 .7801204.539759 1.1807229 1.6108433 1.1807229 1.6045181 0 2.1759037-1.146988 2.1759037-2.22650607v-.37951807h-.6873494z"/>
      </g>
      <path fill="#4E4D4D" d="M21.413253 27.7259036v.0716868-.0716868"/>
      <path d="M22.9924699 17.4873494h-5.3975904c.0053333 1.7998487.2898406 3.5879772.8433735 5.3006024 2.6022293-.4305067 4.5223523-2.6632492 4.5584337-5.3006024M34.9346386 18.3855422c-.3248498 5.8529249-3.5740837 11.1491762-8.6445784 14.0906626 2.6291009 1.51854 5.6084854 2.3258805 8.6445784 2.3424699V18.3855422z" fill="#6A6A6A"/>
      <path d="M12.1740964 17.4873494H.21084337C.21705543 22.0875392 2.04745728 26.4974884 5.30060241 29.75l8.45481929-8.4611446c-1.0017737-1.0104947-1.5692052-2.3723304-1.5813253-3.7951807" fill="#8B8B8A"/>
      <path d="M17.578012 22.8596386c-1.4303255-.0048526-2.8021104-.5685481-3.8225903-1.5707832L5.30060241 29.75c3.26027665 3.2482319 7.67519129 5.0716683 12.27740959 5.0707839V22.8596386" fill="#3C3C3B"/>
      <path d="M17.6454819 11.9611446V.00840989C12.99401.00299268 8.53307626 1.85583245 5.25421687 5.15512048l8.43373493 8.47379522c1.0427026-1.0633268 2.4682756-1.6640877 3.9575301-1.6677711" fill="#292627"/>
      <path d="M12.1635542 17.4114458c.0023613-1.4158083.5524021-2.7757993 1.5349398-3.7951807L5.26475904 5.14246988C2.02094199 8.39966832.20118338 12.8103083.20451807 17.4072289l-.00000457.0759036h11.9632576v-.0759036" fill="#575756"/>
      <path d="M21.4111446 13.5698795l8.463253-8.45692769C26.6310083 1.86496044 22.2355306.03022748 17.6454819.00843373V11.9695783c1.4129617.0318615 2.7590226.6082052 3.7572289 1.608735" fill="#7C7B7B"/>
      <path d="M18.4340361 22.7795181a5.74126375 5.74126375 0 0 1-.8560241.0716867v11.9611447c3.0545599.0002679 6.0552016-.8048 8.6993976-2.3340362-3.7335748-2.1403995-6.5313909-5.6000646-7.8433735-9.6987952" fill="#6F6F6E"/>
      <path d="M34.9346386 18.3855422v-.8981928H22.9924699c-.0401263 2.6341517-1.9592952 4.8622339-4.5584338 5.2921687 1.3119826 4.0987306 4.1097987 7.5583957 7.8433735 9.6987952 5.0704947-2.9414865 8.3197286-8.2377377 8.6445784-14.0906627" fill="#292627"/>
      <path d="M126.429277 12.1293976h4.941325c.826511 0 1.623491.1269264 2.390964.3807831.767474.2538567 1.446383.6405396 2.036747 1.1600603.590365.5195206 1.062649 1.1718635 1.416868 1.9570482.354218.7851846.531325 1.709091.531325 2.7717469 0 1.0744633-.203673 2.0042732-.611024 2.7894579-.407352.7851847-.932768 1.4345758-1.576265 1.9481927-.643497.513617-1.357827.8973482-2.143012 1.1512049-.785185.2538567-1.555599.3807831-2.311265.3807831h-4.675663V12.1293976zm3.896386 10.520241c.69663 0 1.354876-.079698 1.974759-.2390964.619882-.1593985 1.160058-.4073477 1.620542-.7438555.460484-.3365077.823553-.7733708 1.089217-1.3106024.265664-.5372316.398494-1.1895744.398494-1.9570482 0-.7556664-.118071-1.4050575-.354217-1.9481927-.236146-.5431353-.563793-.9829501-.982952-1.3194579-.419159-.3365077-.915057-.584457-1.487711-.7438554-.572653-.1593984-1.201382-.2390964-1.886205-.2390964h-2.036747v8.5012049h1.66482zm10.182891-1.4877109c.070844.6375935.318793 1.1334923.743856 1.4877109.425062.3542185.938671.5313253 1.540843.5313253.531328 0 .977047-.1092159 1.337169-.3276506.360122-.2184348.675962-.4929502.94753-.8235543l1.523132 1.1512049c-.495906.613979-1.05084 1.0508421-1.664819 1.3106024-.613979.2597603-1.257466.3896385-1.930482.3896385-.637593 0-1.239756-.106264-1.806506-.3187952-.56675-.2125311-1.056745-.5136125-1.47-.903253-.413255-.3896404-.740902-.8589731-.982952-1.408012-.242049-.5490389-.363072-1.1600569-.363072-1.8330723 0-.6730154.121023-1.2840334.363072-1.8330723.24205-.5490389.569697-1.0183716.982952-1.408012.413255-.3896405.90325-.6907219 1.47-.9032531.56675-.2125311 1.168913-.3187951 1.806506-.3187951.590365 0 1.13054.1033122 1.620542.3099397.490003.2066276.909155.5047571 1.25747.8943976.348315.3896405.619879.8707803.814699 1.4434337.19482.5726535.292229 1.2308999.292229 1.9747591v.5844578h-6.482169zm4.356868-1.5939759c-.011808-.6257862-.206625-1.1187331-.584458-1.4788554-.377833-.3601223-.90325-.5401807-1.576265-.5401807-.637594 0-1.142348.1830102-1.514277.5490361-.37193.3660259-.599217.856021-.681868 1.47h4.356868zm2.089036-3.4004819h2.32012l2.266988 5.9508434h.035422l2.284699-5.9508434h2.178433l-3.347349 8.5012048h-2.266988l-3.471325-8.5012048zm11.174699 4.9944578c.070843.6375935.318793 1.1334923.743855 1.4877109.425062.3542185.938672.5313253 1.540843.5313253.531328 0 .977047-.1092159 1.337169-.3276506.360122-.2184348.675963-.4929502.94753-.8235543l1.523133 1.1512049c-.495906.613979-1.05084 1.0508421-1.66482 1.3106024-.613978.2597603-1.257466.3896385-1.930481.3896385-.637594 0-1.239757-.106264-1.806506-.3187952-.56675-.2125311-1.056745-.5136125-1.47-.903253-.413255-.3896404-.740903-.8589731-.982952-1.408012-.24205-.5490389-.363073-1.1600569-.363073-1.8330723 0-.6730154.121023-1.2840334.363073-1.8330723.242049-.5490389.569697-1.0183716.982952-1.408012.413255-.3896405.90325-.6907219 1.47-.9032531.566749-.2125311 1.168912-.3187951 1.806506-.3187951.590364 0 1.130539.1033122 1.620542.3099397.490002.2066276.909155.5047571 1.25747.8943976.348315.3896405.619878.8707803.814698 1.4434337.194821.5726535.292229 1.2308999.292229 1.9747591v.5844578h-6.482168zm4.356867-1.5939759c-.011807-.6257862-.206625-1.1187331-.584458-1.4788554-.377833-.3601223-.903249-.5401807-1.576265-.5401807-.637593 0-1.142347.1830102-1.514277.5490361-.371929.3660259-.599216.856021-.681867 1.47h4.356867zm3.275663-8.2886747h2.125301v13.3893976h-2.125301V11.2792771zm3.275663 9.1387952c0-.6730154.121022-1.2840334.363072-1.8330723.242049-.5490389.569697-1.0183716.982952-1.408012.413255-.3896405.90325-.6907219 1.47-.9032531.566749-.2125311 1.168912-.3187951 1.806506-.3187951.637593 0 1.239756.106264 1.806506.3187951.566749.2125312 1.056745.5136126 1.47.9032531.413255.3896404.740902.8589731.982952 1.408012.242049.5490389.363072 1.1600569.363072 1.8330723 0 .6730154-.121023 1.2840334-.363072 1.8330723-.24205.5490389-.569697 1.0183716-.982952 1.408012-.413255.3896405-.903251.6907219-1.47.903253-.56675.2125312-1.168913.3187952-1.806506.3187952-.637594 0-1.239757-.106264-1.806506-.3187952-.56675-.2125311-1.056745-.5136125-1.47-.903253-.413255-.3896404-.740903-.8589731-.982952-1.408012-.24205-.5490389-.363072-1.1600569-.363072-1.8330723zm2.125301 0c0 .330604.056084.649396.168253.9563855.112169.3069895.277468.578553.495903.8146988.218435.2361459.481143.4250596.788133.566747.306989.1416874.655299.2125301 1.04494.2125301.38964 0 .73795-.0708427 1.044939-.2125301.30699-.1416874.569698-.3306011.788133-.566747.218435-.2361458.383734-.5077093.495904-.8146988.112169-.3069895.168253-.6257815.168253-.9563855 0-.3306041-.056084-.6493961-.168253-.9563856-.11217-.3069894-.277469-.578553-.495904-.8146987-.218435-.2361458-.481143-.4250596-.788133-.566747-.306989-.1416875-.655299-.2125302-1.044939-.2125302-.389641 0-.737951.0708427-1.04494.2125302-.30699.1416874-.569698.3306012-.788133.566747-.218435.2361457-.383734.5077093-.495903.8146987-.112169.3069895-.168253.6257815-.168253.9563856zm8.234699-4.2506024h2.019036v1.2751807h.035421c.30699-.5195207.720239-.8973482 1.239759-1.133494.519521-.2361457 1.080359-.3542168 1.682531-.3542168.6494 0 1.233852.1151193 1.753373.3453614.519521.2302421.962287.5460823 1.328313.9475301.366026.4014478.643493.8737322.83241 1.4168675.188916.5431352.283373 1.1275872.283373 1.7533735 0 .6257862-.10036 1.2102382-.301084 1.7533735-.200724.5431353-.481143 1.0154196-.841265 1.4168675-.360122.4014478-.794034.7172881-1.301747.9475301-.507713.230242-1.062648.3453614-1.664819.3453614-.401448 0-.755661-.0413249-1.062651-.1239759-.306989-.082651-.578553-.188915-.814699-.3187952-.236145-.1298801-.436866-.2686136-.602168-.4162048-.165302-.147591-.301084-.2922283-.40735-.4339156h-.053132v5.1184337h-2.125301V16.1674699zm7.048915 4.2506024c0-.3306041-.056084-.6493961-.168253-.9563856-.112169-.3069894-.277469-.578553-.495903-.8146987-.218435-.2361458-.481143-.4250596-.788133-.566747-.30699-.1416875-.655299-.2125302-1.04494-.2125302-.38964 0-.73795.0708427-1.044939.2125302-.30699.1416874-.569698.3306012-.788133.566747-.218435.2361457-.383734.5077093-.495904.8146987-.112169.3069895-.168253.6257815-.168253.9563856 0 .330604.056084.649396.168253.9563855.11217.3069895.277469.578553.495904.8146988.218435.2361459.481143.4250596.788133.566747.306989.1416874.655299.2125301 1.044939.2125301.389641 0 .73795-.0708427 1.04494-.2125301.30699-.1416874.569698-.3306011.788133-.566747.218434-.2361458.383734-.5077093.495903-.8146988.112169-.3069895.168253-.6257815.168253-.9563855zm4.940482.7438554c.070844.6375935.318793 1.1334923.743856 1.4877109.425062.3542185.938671.5313253 1.540843.5313253.531328 0 .977046-.1092159 1.337169-.3276506.360122-.2184348.675962-.4929502.94753-.8235543l1.523132 1.1512049c-.495906.613979-1.05084 1.0508421-1.664819 1.3106024-.613979.2597603-1.257466.3896385-1.930482.3896385-.637593 0-1.239756-.106264-1.806506-.3187952-.56675-.2125311-1.056745-.5136125-1.47-.903253-.413255-.3896404-.740902-.8589731-.982952-1.408012-.242049-.5490389-.363072-1.1600569-.363072-1.8330723 0-.6730154.121023-1.2840334.363072-1.8330723.24205-.5490389.569697-1.0183716.982952-1.408012.413255-.3896405.90325-.6907219 1.47-.9032531.56675-.2125311 1.168913-.3187951 1.806506-.3187951.590365 0 1.13054.1033122 1.620542.3099397.490003.2066276.909155.5047571 1.25747.8943976.348315.3896405.619879.8707803.814699 1.4434337.19482.5726535.292229 1.2308999.292229 1.9747591v.5844578h-6.482169zm4.356868-1.5939759c-.011808-.6257862-.206625-1.1187331-.584458-1.4788554-.377833-.3601223-.90325-.5401807-1.576265-.5401807-.637594 0-1.142348.1830102-1.514277.5490361-.37193.3660259-.599217.856021-.681868 1.47h4.356868zm3.240241-3.4004819h2.125301v1.3460241h.035422c.236145-.4959061.572648-.8796372 1.009518-1.1512048.436869-.2715677.938671-.4073494 1.505421-.4073494.12988 0 .256807.0118071.380783.0354216.123977.0236146.250903.0531324.380784.0885543v2.0544578c-.17711-.0472292-.351265-.0856023-.52247-.1151205-.171206-.0295182-.339457-.0442771-.504759-.0442771-.495907 0-.894396.0915051-1.195482.2745181-.301086.1830129-.531325.3925892-.690723.6287349-.159399.2361458-.265663.472288-.318795.7084338-.053133.2361457-.079699.4132524-.079699.5313253v4.5516867h-2.125301v-8.5012048zm10.554819 2.3555421c-.413255-.5785571-.968189-.8678313-1.664819-.8678313-.283375 0-.560842.0708427-.83241.2125301-.271568.1416875-.407349.3719262-.407349.6907229 0 .2597604.112167.4486741.336506.566747.224338.1180729.507709.2184333.85012.3010844.342411.082651.711384.1682525 1.106928.2568072.395544.0885546.764516.2243364 1.106928.4073494.342411.1830129.625782.433914.85012.7527108.224339.3187969.336506.7556599.336506 1.3106024 0 .5077134-.109215.9357212-.327651 1.2840362-.218434.3483149-.501805.6287339-.85012.841265-.348315.2125312-.740902.3660237-1.177771.460482-.43687.0944582-.873733.1416867-1.310603.1416867-.661208 0-1.269274-.094457-1.824216-.2833735-.554943-.1889165-1.050842-.5313227-1.487711-1.0272289L205.66 22.2422892c.271568.3069894.563794.5578905.876687.7527108.312893.1948203.693672.2922289 1.142349.2922289.153495 0 .312891-.0177106.478193-.0531325s.318795-.0944574.460482-.1771084c.141687-.0826511.256807-.1859633.345361-.3099398.088555-.1239765.132832-.2686136.132832-.4339157 0-.2951822-.112168-.5136138-.336506-.6553012-.224339-.1416874-.507709-.2568068-.850121-.3453614-.342411-.0885547-.711383-.1712044-1.106927-.2479518s-.764517-.2007221-1.106928-.3719277c-.342411-.1712057-.625782-.4102997-.850121-.7172892-.224338-.3069895-.336506-.7320455-.336506-1.2751807 0-.4722915.097409-.8825886.292229-1.2309036.194821-.348315.451625-.6346375.770422-.8589759.318797-.2243385.684817-.3896381 1.098072-.4959037.413255-.1062655.832408-.1593975 1.25747-.1593975.56675 0 1.127588.0974086 1.68253.2922289.554943.1948202 1.003613.5283711 1.346024 1.0006626l-1.416867 1.2751807z" fill="#94A1AE"/>
  </g>
</svg>
