<svg width="88" height="78" xmlns="http://www.w3.org/2000/svg"><g fill-rule="nonzero" fill="none"><path d="M79.13 35.58H63.594v41.905H79.13c4.546 0 8.265-3.771 8.265-8.381V43.961c0-4.611-3.719-8.381-8.265-8.381zm6.317 33.524c0 3.533-2.834 6.408-6.317 6.408H65.581v-37.96H79.13c3.483 0 6.317 2.875 6.317 6.409v25.143z" fill="#ED26B7"/><path d="M63.594 75.512H17.137c-3.486 0-6.32-2.875-6.32-6.408 0-.723.146-1.471.426-2.229h6.952c.537 0 .973-.441.973-.986 0-.545-.436-.986-.973-.986h-6.839l-1.073-.529c-2.221-1.094-3.599-3.295-3.599-5.746 0-.697.143-1.422.406-2.15h6.755c.537 0 .974-.441.974-.986 0-.545-.437-.988-.974-.988H7.382l-1.231-.605c-2.221-1.094-3.599-3.295-3.599-5.746 0-1.436.498-2.816 1.438-3.996l.238-.297h9.619c.537 0 .974-.441.974-.986 0-.545-.437-.988-.974-.988H4.161l-.171-.216c-.94-1.178-1.438-1.976-1.438-3.412 0-3.533 2.836-6.408 6.319-6.408h22.928l-.071-2.044-.708-20.469c-.115-1.699.435-3.347 1.546-4.642 1.114-1.296 2.648-2.075 4.322-2.191l.052-.004c.131-.008.26-.011.389-.011 3.309 0 6.077 2.621 6.305 5.966l.012.153.032.147 4.193 18.757c.464 5.55 5.258 10.039 10.763 10.039h4.961V35.58h-4.961c-4.546 0-8.521-3.764-8.834-8.363L45.575 8.321C45.274 3.915 41.622.515 37.329.515c-.189 0-.378.007-.569.02l-.003.001c-4.536.317-7.989 4.34-7.678 8.938l.703 20.404H8.872c-4.547 0-8.266 3.771-8.266 8.381 0 1.99.72 3.212 1.873 4.656C1.326 44.354.606 46.163.606 48.151c0 3.309 1.93 6.158 4.694 7.52-.347.924-.563 1.914-.563 2.957 0 3.309 1.931 6.16 4.695 7.52-.348.924-.561 1.914-.561 2.957 0 4.609 3.719 8.381 8.266 8.381h46.457v-1.974z" fill="#1B127D"/></g></svg>