<svg width="80" height="80" fill="none" xmlns="http://www.w3.org/2000/svg"><path fill-rule="evenodd" clip-rule="evenodd" d="M63.1873 15.2314c0-2.3472-1.9027-4.25-4.25-4.25H8.84668l-.20592.0049c-2.25157.1075-4.04408 1.967-4.04408 4.2451v37.9268l.0049.2059c.10741 2.2515 1.96693 4.0441 4.2451 4.0441.41421 0 .75-.3358.75-.75 0-.4143-.33579-.75-.75-.75-1.51878 0-2.75-1.2313-2.75-2.75V15.2314l.00502-.1675c.08658-1.4408 1.28245-2.5825 2.74498-2.5825H58.9373l.1676.0051c1.4407.0865 2.5824 1.2824 2.5824 2.7449 0 .4143.3358.75.75.75.4143 0 .75-.3357.75-.75Zm1.8409 1.5552c2.3472 0 4.25 1.9028 4.25 4.25 0 .4142-.3358.75-.75.75s-.75-.3358-.75-.75c0-1.4625-1.1417-2.6584-2.5825-2.745l-.1675-.005H14.9375c-1.4625 0-2.6584 1.1417-2.745 2.5825l-.005.1675v37.9267c0 1.5188 1.2312 2.75 2.75 2.75.4142 0 .75.3358.75.75s-.3358.75-.75.75c-2.2782 0-4.1377-1.7925-4.2451-4.0441l-.0049-.2059V21.0366c0-2.2782 1.7925-4.1377 4.0441-4.2451l.2059-.0049h50.0907Zm6.0188 5.9302c2.3121 0 4.2417 1.7784 4.4608 4.0534l.0155.2147.0051.2133v37.4649c0 2.3129-1.778 4.2418-4.0534 4.4608l-.2148.0155-.2132.0051H21.3842c-2.3125 0-4.2418-1.7777-4.4608-4.0533l-.0155-.2148-.0051-.2133V27.0732c0-2.396 1.9604-4.3564 4.3564-4.3564H71.047Zm-.125 46.1777h.122l.2072-.0049c2.1733-.1046 3.9185-1.8634 4.0223-4.0229l.0049-.2036V27.1996v37.3385c0 2.3972-1.9604 4.3564-4.3564 4.3564ZM18.248 33.4922h-.125v.125l.125-.125ZM74.0584 58.503v6.0353c-.0006 1.7179-1.3879 3.1184-3.1021 3.137H21.3842l-.1742-.0049-.1746-.0149c-1.5003-.1724-2.6622-1.4545-2.6622-2.9924l-.0006-30.9214h55.685l.0008 24.7613Zm-9.0248-14.3145c0-2.2349-1.8111-4.0464-4.0457-4.0464-2.2343 0-4.0458 1.8117-4.0458 4.0464l.0066.2323.022.2506c.0989.8296.4508 1.5995 1.0042 2.2162l.0705.0739-4.357 4.356-.1128-.0761-.2205-.1322c-.5967-.3333-1.2613-.5112-1.9513-.5112l-.2343.0068-.2318.02c-.8444.0974-1.6273.4578-2.2517 1.0261l-.0896.0846-5.74-4.1.0507-.1058.0904-.2223c.1675-.4469.2548-.9068.2548-1.3764 0-2.2348-1.8109-4.0457-4.0457-4.0457s-4.0458 1.8109-4.0458 4.0457l.0067.2332.0198.2307c.0964.8404.4531 1.6201 1.0163 2.2442l.0778.0814-4.431 5.1699-.1025-.068-.216-.1257c-.5847-.3167-1.2348-.4848-1.91-.4848-2.2345 0-4.0457 1.8112-4.0457 4.0463 0 2.2343 1.811 4.0452 4.0457 4.0452s4.0458-1.8109 4.0458-4.0452l-.0072-.2392-.0251-.266c-.0792-.6164-.3025-1.2008-.6504-1.7212l-.0806-.1134 4.581-5.3439.1164.0553.2228.0908c.448.1685.91.2562 1.3814.2562l.2342-.0068.2317-.02c.8442-.0974 1.6269-.4579 2.2508-1.0262l.0887-.0863 5.741 4.101-.0495.1066-.0903.2224c-.1673.447-.2545.9067-.2545 1.3757 0 2.2348 1.8111 4.0463 4.0457 4.0463 2.2349 0 4.0458-1.811 4.0458-4.0463l-.0083-.257-.0245-.2539c-.0761-.5884-.2831-1.1478-.6045-1.6504l-.0849-.1234 4.532-4.531.1224.0579.2233.0912c.4487.1689.9108.257 1.3828.257 2.2345 0 4.0457-1.8107 4.0457-4.0451Zm-4.0457-3.7964c-2.0962 0-3.7958 1.6997-3.7958 3.7964 0 .9438.346 1.8321.958 2.52l.1585.1677.0001.1769-4.5169 4.5157-.159.0148-.1954-.1338c-.6086-.3908-1.306-.6018-2.0336-.6018-.9519 0-1.8464.3533-2.5373.9768l-.1684.1614-.1619.0141-5.9091-4.2213-.0405-.1548.0928-.1978c.2116-.4824.3229-.9832.3229-1.4954 0-2.0967-1.699-3.7957-3.7957-3.7957-2.0967 0-3.7958 1.699-3.7958 3.7957 0 .9473.3496 1.8379.9674 2.5284l.16.1684.007.1701-4.5761 5.3397-.1641.0228-.1923-.1278c-.5962-.3713-1.2784-.5707-1.9908-.5707-2.0964 0-3.7957 1.6993-3.7957 3.7963 0 2.0962 1.6991 3.7952 3.7957 3.7952s3.7958-1.699 3.7958-3.7952c0-.7436-.2213-1.453-.6284-2.0691l-.1425-.2019.005-.1566 4.7067-5.4902.1482-.0318.1987.0937c.4833.2127.9863.3245 1.5006.3245.9515 0 1.8459-.3534 2.5362-.9768l.1682-.1614.1619-.0142 5.9104 4.2214.0405.1547-.0926.1978c-.2113.4827-.3225.9834-.3225 1.4949 0 2.0968 1.6991 3.7963 3.7957 3.7963 2.0968 0 3.7958-1.6991 3.7958-3.7963 0-.7265-.21-1.4202-.5982-2.027l-.1359-.199.0127-.162 4.6669-4.6663.1417-.0247.1987.0937c.4845.2135.9875.3257 1.5024.3257 2.0964 0 3.7957-1.6988 3.7957-3.7951 0-2.0969-1.6991-3.7964-3.7957-3.7964Zm-28.5397 16.866c0-1.5583-1.2677-2.826-2.826-2.826-1.5582 0-2.8253 1.2676-2.8253 2.826 0 1.5582 1.2669 2.8247 2.8253 2.8247 1.5581 0 2.826-1.2668 2.826-2.8247Zm-2.826-2.576c-1.4201 0-2.5753 1.1556-2.5753 2.576 0 1.4201 1.155 2.5747 2.5753 2.5747 1.4201 0 2.576-1.155 2.576-2.5747 0-1.4202-1.1558-2.576-2.576-2.576Zm24.6077-.0388c0-1.5583-1.2677-2.8259-2.826-2.8259-1.5581 0-2.8253 1.2675-2.8253 2.8259 0 1.5584 1.2672 2.826 2.8253 2.826 1.5579 0 2.826-1.2679 2.826-2.826Zm-2.826-2.5759c-1.42 0-2.5753 1.1556-2.5753 2.5759 0 1.4204 1.1553 2.576 2.5753 2.576 1.4199 0 2.576-1.156 2.576-2.576 0-1.4202-1.1557-2.5759-2.576-2.5759Zm-9.3722-6.136c0-1.5584-1.2672-2.8259-2.8254-2.8259-1.5583 0-2.8259 1.2676-2.8259 2.8259 0 1.5578 1.2677 2.8254 2.8259 2.8254 1.5581 0 2.8254-1.2675 2.8254-2.8254Zm-2.8254-2.5759c-1.4202 0-2.5759 1.1557-2.5759 2.5759 0 1.4197 1.1558 2.5754 2.5759 2.5754 1.42 0 2.5754-1.1556 2.5754-2.5754 0-1.4203-1.1553-2.5759-2.5754-2.5759Zm24.6071.8332c0-1.5584-1.2671-2.826-2.8253-2.826-1.5581 0-2.826 1.2681-2.826 2.826 0 1.5577 1.2677 2.8247 2.826 2.8247 1.5584 0 2.8253-1.2665 2.8253-2.8247Zm-2.8253-2.576c-1.42 0-2.576 1.1562-2.576 2.576 0 1.4196 1.1557 2.5747 2.576 2.5747 1.4203 0 2.5753-1.1546 2.5753-2.5747 0-1.4204-1.1552-2.576-2.5753-2.576ZM21.384 23.937h-.125c-1.7301 0-3.136 1.4077-3.136 3.136v5.199l.0001-5.0775.0051-.1811c.0931-1.658 1.4257-2.979 3.0717-3.0712l.1841-.0052Zm49.6629.25H21.3842c-1.5377 0-2.819 1.1621-2.9912 2.6623l-.0149.1746-.0049.1741-.0006 5.0735h55.685l.0002-2.8368v-2.2676c-.0161-1.5864-1.2663-2.8838-2.8342-2.975l-.1767-.0051Zm-46.5274 4.3181c0-.5502-.4461-.9963-.9963-.9963-.0217 0-.0432.0007-.0646.0021-.02-.0014-.0401-.0021-.0604-.0021-.4812 0-.8713.3901-.8713.8713 0 .0203.0007.0404.0021.0604-.0014.0214-.0021.0429-.0021.0646 0 .5502.4461.9963.9963.9963s.9963-.4461.9963-.9963Zm-.2524-.0601c-.0316.4295-.3745.7724-.804.804.0198.0016.0399.0024.0601.0024.4122 0 .7463-.3341.7463-.7463 0-.0202-.0008-.0403-.0024-.0601Zm3.6125-.9362c.5502 0 .9963.4461.9963.9963s-.4461.9963-.9963.9963-.9963-.4461-.9963-.9963c0-.0217.0007-.0432.0021-.0646-.0014-.02-.0021-.0401-.0021-.0604 0-.4812.3901-.8713.8713-.8713.0203 0 .0404.0007.0604.0021.0213-.0014.0429-.0021.0646-.0021Zm.7439.9362c-.0317.4295-.3746.7724-.804.804.0198.0016.0399.0024.0601.0024.4121 0 .7463-.3341.7463-.7463 0-.0202-.0008-.0403-.0024-.0601Z" fill="#1B127D"/><path fill-rule="evenodd" clip-rule="evenodd" d="M60.8629 40.1416c-2.1651 0-3.9208 1.7556-3.9208 3.9214 0 1.0847.4406 2.0661 1.1532 2.7762l-4.5169 4.5157c-.6473-.4717-1.4382-.7574-2.2996-.7574-1.0959 0-2.0836.4512-2.7949 1.1756l-5.9091-4.2213c.2638-.5277.4275-1.1146.4275-1.7463 0-2.1657-1.755-3.9207-3.9207-3.9207-2.1658 0-3.9208 1.755-3.9208 3.9207 0 1.091.4469 2.0743 1.1644 2.7856l-4.576 5.3397c-.6379-.4512-1.4121-.7194-2.2523-.7194-2.1651 0-3.9207 1.755-3.9207 3.9213 0 2.1652 1.755 3.9202 3.9207 3.9202 2.1658 0 3.9208-1.755 3.9208-3.9202 0-.8849-.3025-1.6909-.796-2.3462l4.7067-5.4903c.5303.2664 1.1196.4301 1.7526.4301 1.0953 0 2.0829-.4512 2.7936-1.1756l5.9104 4.2213c-.2632.5277-.4269 1.1146-.4269 1.7457 0 2.1657 1.755 3.9213 3.9207 3.9213 2.1658 0 3.9208-1.755 3.9208-3.9213 0-.8632-.2863-1.6517-.758-2.2996l4.6669-4.6663c.5302.2664 1.1196.4313 1.7544.4313 2.1651 0 3.9207-1.7544 3.9207-3.9201 0-2.1658-1.755-3.9214-3.9207-3.9214ZM29.4967 59.8318c-1.4892 0-2.7003-1.2104-2.7003-2.6997s1.2111-2.7009 2.7003-2.7009c1.4893 0 2.701 1.2116 2.701 2.7009 0 1.4893-1.2123 2.6997-2.701 2.6997Zm6.8832-14.0264c0 1.4887 1.2117 2.7004 2.7009 2.7004 1.4893 0 2.7004-1.2117 2.7004-2.7004 0-1.4892-1.2111-2.7009-2.7004-2.7009-1.4892 0-2.7009 1.2117-2.7009 2.7009Zm14.899 11.4129c-1.4892 0-2.7003-1.2117-2.7003-2.7009 0-1.4893 1.2111-2.701 2.7003-2.701 1.4893 0 2.701 1.2117 2.701 2.701 0 1.4892-1.2123 2.7009-2.701 2.7009Zm6.8832-13.1555c0 1.4886 1.2117 2.6997 2.701 2.6997 1.4892 0 2.7003-1.2105 2.7003-2.6997 0-1.4893-1.2111-2.701-2.7003-2.701-1.4893 0-2.701 1.2123-2.701 2.701Z" fill="#ED26B7"/></svg>