<svg width="58" height="67" xmlns="http://www.w3.org/2000/svg"><defs><linearGradient x1="12.5306304%" y1="0%" x2="87.4693696%" y2="100%" id="a"><stop stop-color="#14B2E2" offset="0%"/><stop stop-color="#00C18D" offset="100%"/></linearGradient></defs><path d="M52.9122807 0C55.7105263 0 58 2.28409091 58 5.07575758V49.7424242c0 2.7916667-2.2894737 5.0757576-5.0877193 5.0757576h-1.0175439v1.0151515c0 2.7923918-2.2894736 5.0757576-5.0877193 5.0757576h-1.0175438v1.0151515C45.7894737 64.7159091 43.5 67 40.7017544 67H5.0877193C2.28947368 67 0 64.7159091 0 61.9242424V17.2575758c0-2.7916667 2.28947368-5.0757576 5.0877193-5.0757576h1.01754386v-1.0151515c0-2.79239181 2.28947368-5.07575761 5.08771934-5.07575761h1.0175438V5.07575758C12.2105263 2.28409091 14.5 0 17.2982456 0zM40.7017544 13.6037554H5.0877193c-2.01982456 0-3.66243108 1.6401948-3.66243108 3.6538204v44.6666666c0 2.0143507 1.64260652 3.6538204 3.66243108 3.6538204h35.6140351c2.0198245 0 3.6624311-1.6394697 3.6624311-3.6538204V17.2575758c0-2.0136256-1.6426066-3.6538204-3.6624311-3.6538204zm6.1052631-6.09163419h-35.614035c-2.01982461 0-3.66243112 1.64019481-3.66243112 3.65454549v1.0151515H40.7017544c2.7982456 0 5.0877193 2.2840909 5.0877193 5.0757576v42.230303h1.0175438c2.0198246 0 3.6624311-1.6401948 3.6624311-3.6545455V11.1666667c0-2.01435068-1.6426065-3.65454549-3.6624311-3.65454549zm6.1052632-6.09018398H17.2982456c-2.0198245 0-3.6624311 1.6394697-3.6624311 3.65382035v1.01515151h33.171203c2.7982457 0 5.0877193 2.2833658 5.0877193 5.07575761v42.2295779h1.0175439c2.0198246 0 3.6624311-1.6401948 3.6624311-3.6538204V5.07575758c0-2.01435065-1.6426065-3.65382035-3.6624311-3.65382035zM14.63 29c.4970563 0 .9.4029437.9.9l-.001 17.999h3.086l.001-8.549c0-.4588212.3433367-.8374518.7871059-.8929877L19.516 38.45h6.706c.4970563 0 .9.4029437.9.9l-.001 8.549h3.282l.001-12.126c0-.4588212.3433367-.8374518.7871059-.8929877L31.304 34.873h6.706c.4970563 0 .9.4029437.9.9l-.001 12.126 2.279.001c.4970563 0 .9.4029437.9.9 0 .4588212-.3433367.8374518-.7871059.8929877L41.188 49.7l-3.165-.001-.013.001h-6.706a.91854994.91854994 0 01-.0143118-.0001115l-16.5467941.0000992L14.63 49.707H7.924c-.0382351 0-.07591332-.0023843-.11289409-.0070123L4.9 49.7c-.49705627 0-.9-.4029437-.9-.9 0-.4588212.34333667-.8374518.78710591-.8929877L4.9 47.9l2.123-.001.001-17.999c0-.4588212.34333667-.8374518.78710591-.8929877L7.924 29zm22.478 18.899l.001-11.226h-4.906l-.001 11.226h4.906zm-23.378-17.1H8.823l-.001 17.1h4.907l.001-17.1zm11.592 9.45h-4.907v7.65h4.907v-7.65z" fill="url(#a)" fill-rule="evenodd"/></svg>