<svg width="96" height="98" xmlns="http://www.w3.org/2000/svg"><g fill-rule="nonzero" fill="none"><path d="M75.3 0c-4.252 0-7.699 3.448-7.699 7.7 0 1.566.471 3.022 1.273 4.238l-7.363 6.119C60.099 16.433 58.022 15.4 55.7 15.4c-3.471 0-6.402 2.297-7.363 5.452L38.151 19.45c-.424-3.852-3.686-6.85-7.65-6.85-4.254 0-7.701 3.447-7.701 7.699 0 2.737 1.434 5.134 3.584 6.5l-5.096 9.181h2.242l4.631-8.344c.738.236 1.524.364 2.34.364 3.869 0 7.064-2.858 7.609-6.577l9.906 1.364c-.006.104-.016.208-.016.313 0 4.252 3.447 7.699 7.699 7.699s7.699-3.447 7.699-7.699c0-1.223-.291-2.374-.799-3.4l7.559-6.279c1.363 1.226 3.162 1.979 5.141 1.979C79.551 15.4 83 11.952 83 7.7 83 3.448 79.552 0 75.3 0zM30.501 26.04c-3.166 0-5.74-2.575-5.74-5.74s2.574-5.739 5.74-5.739c3.164 0 5.738 2.574 5.738 5.739s-2.574 5.74-5.738 5.74zm25.199 2.8c-3.164 0-5.74-2.574-5.74-5.739s2.576-5.74 5.74-5.74c3.166 0 5.74 2.575 5.74 5.74s-2.574 5.739-5.74 5.739zm19.6-15.401c-3.164 0-5.738-2.574-5.738-5.739s2.574-5.739 5.738-5.739c3.166 0 5.74 2.574 5.74 5.739s-2.574 5.739-5.74 5.739z" fill="#ED26B7"/><g fill="#1B127D"><path d="M95.122 50.843l-6.043-12.086C88.046 36.69 85.312 35 83.001 35h-70c-2.311 0-5.045 1.69-6.08 3.757L.878 50.843C-.155 52.91.89 54.601 3.2 54.601h4.199V91c0 3.851 3.15 7 7 7H81.6c3.85 0 7-3.149 7-7V54.601h4.2c2.31 0 3.355-1.691 2.322-3.758zM86.64 91c0 2.778-2.262 5.04-5.039 5.04H14.399c-2.777 0-5.039-2.262-5.039-5.04V54.601h77.28V91zm6.908-38.534c-.02.029-.229.174-.748.174H3.2c-.518 0-.727-.145-.746-.172-.018-.032-.055-.285.178-.747l6.043-12.087c.699-1.398 2.762-2.673 4.326-2.673h70c1.563 0 3.625 1.274 4.324 2.671l6.043 12.089c.233.462.197.715.18.745z"/><path d="M63.399 89.601h12.602c2.311 0 4.199-1.89 4.199-4.2v-7c0-2.311-1.889-4.2-4.199-4.2H63.399c-2.311 0-4.199 1.89-4.199 4.2v7c0 2.31 1.889 4.2 4.199 4.2zM61.161 78.4c0-1.236 1.004-2.239 2.238-2.239h12.602c1.234 0 2.238 1.003 2.238 2.239v7c0 1.235-1.004 2.239-2.238 2.239H63.399c-1.234 0-2.238-1.004-2.238-2.239v-7z"/></g></g></svg>