<svg width="96" height="104" xmlns="http://www.w3.org/2000/svg"><defs><linearGradient x1="7.89736092%" y1="44.3984902%" x2="87.0544407%" y2="51.4007385%" id="a"><stop stop-color="#7FC1D5" offset="0%"/><stop stop-color="#B0BECA" offset="100%"/></linearGradient><linearGradient x1="7.89736092%" y1="44.262701%" x2="97.8715348%" y2="51.5918062%" id="b"><stop stop-color="#B6D2ED" offset="0%"/><stop stop-color="#9EB8CE" offset="100%"/></linearGradient><linearGradient x1="50%" y1="0%" x2="50%" y2="100%" id="c"><stop stop-color="#00D9B9" stop-opacity=".5" offset="0%"/><stop stop-color="#00B786" stop-opacity=".5" offset="100%"/></linearGradient><linearGradient x1="50%" y1="0%" x2="50%" y2="100%" id="d"><stop stop-color="#00D9B9" stop-opacity=".5" offset="0%"/><stop stop-color="#00B786" stop-opacity=".5" offset="100%"/></linearGradient><linearGradient x1="50%" y1="0%" x2="50%" y2="100%" id="e"><stop stop-color="#00D9B9" stop-opacity=".5" offset="0%"/><stop stop-color="#00B786" stop-opacity=".5" offset="100%"/></linearGradient><linearGradient x1="-.08605769%" y1="50.03125%" x2="99.9715144%" y2="50.03125%" id="f"><stop stop-color="#00B0E3" offset="0%"/><stop stop-color="#9AD6ED" offset="100%"/></linearGradient></defs><g fill="none" fill-rule="evenodd"><g fill-rule="nonzero"><path d="M94.2056143 45.8212661c0 1.4977062-.6562607 2.9486092-1.968782 4.0718889-1.3500829 1.1500247-2.3626451 2.0125432-3.0376866 2.5875555C69.853057 68.9600531 57.5787062 79.7610657 52.3760934 84.8837482c-2.6562931 2.2465594-6.9688631 2.2465594-9.6251562 0L2.06845356 51.4302516C.75593226 50.3069719.09967161 48.8092656.09967161 47.3583627c0-1.4977063.65626065-2.9486092 1.96878195-4.0718889L41.9291925 8.29588054c2.6562931-2.24655939 6.9688631-2.24655939 9.6251562 0L92.2368323 41.7493772c1.3125213 1.0764764 1.968782 2.5741826 1.968782 4.0718889z" fill="url(#a)" opacity=".4225958" transform="translate(.507247 16.806802)"/><path d="M94.2056143 40.7882284c0 1.4976695-.6562685 2.9485367-1.9688055 4.0717888-1.3500991 1.1499964-2.3626734 2.0124937-3.0377229 2.5874919-19.34632 16.4789375-31.6186861 27.1915636-36.8170982 32.1378783-2.6563249 2.2465041-6.9689464 2.2465041-9.6252713 0L2.0684771 44.9030388C.7559401 43.7797867.0996716 42.2821172.0996716 40.83125c0-1.4976695.6562685-2.9485367 1.9688055-4.0717888L41.9232982 2.034091c2.6563249-2.24650416 6.9689464-2.24650416 9.6252713 0l40.6882393 34.6823486c1.312537 1.0764499 1.9688055 2.5741194 1.9688055 4.0717888z" stroke="#94A1AE" stroke-width="1.045" fill="url(#b)" opacity=".59391276" transform="translate(.507247 16.806802)"/><path d="M23.20677859 79.2791686L72.52078 37.31374037C75.4440357 34.845092 21.76234634 80.5134928 23.20677859 79.2791686z" stroke="#FFF" stroke-width=".7315" stroke-dasharray="2.925999927520752,5.851999855041504"/><path d="M72.63600547 79.2791686L21.8887788 36.4618709c-3.7115973-3.13328446 52.58119239 44.3839399 50.74722667 42.8172977z" stroke="#FFF" stroke-width=".7315" stroke-dasharray="2.925999927520752,6.583500289916992"/><path fill="#FFF" opacity=".46270461" d="M49.8261424 55.702835l.992589.8565047-2.0182455 1.7667954 2.0182455 1.7080927-.8560674.8400742-2.1986947-1.6801948-2.0202677 1.6749116-.9700237-.834791 1.9539194-1.7078763-1.7357163-1.4534177.9134147-.75516 1.8586736 1.3406055z"/></g><g opacity=".6" stroke="#00C18D" stroke-width="2.0748"><path d="M67.6491118 41.2600661c0 1.4808287-.6381365 2.9153814-1.9144097 4.0260029L50.6422658 57.5798385c-2.5829337 2.2212429-6.7764026 2.2212429-9.3593363 0L1.9144097 23.9383991C.63813657 22.8277776 0 21.346949 0 19.9123963c0-1.4808286.63813657-2.9153814 1.9144097-4.0260028L17.006846 3.59262393c2.5829337-2.22124294 6.7764026-2.22124294 9.3593363 0L65.7347021 37.2340633c1.2762732 1.0643456 1.9144097 2.5451742 1.9144097 4.0260028z" fill="url(#c)" transform="translate(1.611609 36.422932)"/><path d="M66.9793186 39.7487722c0 1.4862853-.6374049 2.9261242-1.9122147 4.0408381L49.9919723 56.1286809c-2.5799722 2.229428-6.768633 2.229428-9.3486052 0L1.91221469 22.0928179C.63740489 20.9781039 0 19.4918186 0 18.0519797c0-1.4862853.6374049-2.9261242 1.91221469-4.0408382L16.9873464 1.67207096c2.5799722-2.22942795 6.7686329-2.22942795 9.3486051 0L65.0671039 35.707934c1.2748098 1.0682676 1.9122147 2.5545529 1.9122147 4.0408382z" fill="url(#d)" transform="translate(1.611609 36.422932)"/></g><g opacity=".66029576" style="mix-blend-mode:overlay"><path d="M20.8776523 44.95725329l4.8562585 4.34699644c.5520768.4728024.6478409 1.20897074.2138952 1.64427801-.4339458.43530727-1.233275.40491146-1.7853518-.06789093l-4.8562585-4.34699644c-.5520767-.4728024-.6478408-1.20897074-.2138951-1.64427801.4339458-.43530727 1.233275-.40491147 1.7853517.06789093zM7.70227841 54.9704148L24.4436145 69.3187964c.5560125.4748624.6524593 1.2142383.21542 1.6514422-.4370394.437204-1.2420669.4066757-1.7980794-.0681867L6.11961896 56.5536704c-.5560125-.4748625-.6524593-1.2142383-.21541996-1.6514423.43703934-.4372039 1.24206691-.4066757 1.79807941.0681867zM11.56362803 51.63746458l9.34099457 8.12458322c.5562406.4801824.652727 1.2278416.2155083 1.6699436-.4372186.442102-1.2425765.4112317-1.7988172-.0689507l-9.3409945-8.1245832c-.55624063-.4801824-.65272701-1.2278416-.21550835-1.66994356.43721866-.44210199 1.24257654-.41123174 1.79881718.06895064zM24.7670552 42.09955794l10.9329876 9.57414237c.5598332.47625319.6569427 1.21779459.2169002 1.65627899-.4400425.4384844-1.2506019.4078668-1.8104351-.0683864l-10.9329876-9.57414242c-.5598332-.47625321-.6569427-1.21779457-.2169002-1.65627898.4400425-.43848442 1.2506019-.40786677 1.8104351.06838644zM28.276943 51.63160365l4.8562585 4.34699645c.5520768.4728024.6478409 1.2089707.2138952 1.644278-.4339458.4353073-1.233275.4049115-1.7853518-.0678909l-4.8562585-4.3469965c-.5520767-.4728024-.6478408-1.2089707-.2138951-1.64427798.4339458-.43530727 1.233275-.40491146 1.7853517.06789093z" fill="#FFF"/></g><path d="M40.765537 73.0213217l12.4136134 9.7343976c.2896838.2271617.1562017.6961017-.2981406 1.0474069l-3.7476709 2.8977628c-.4543423.3513052-1.0574946.4519434-1.3471784.2247817l-12.4136134-9.7343976c-.2896838-.2271616-.1562017-.6961017.2981406-1.0474068l3.747671-2.8977628c.4543422-.3513052 1.0574945-.4519434 1.3471783-.2247818zm-1.0955784.5034793l-3.7370441 2.8538087c-.151018.1153255-.1948759.2704248-.0979594.3464239l12.4592788 9.770207c.0969165.0759991.2979071.0441188.4489251-.0712067l3.737044-2.8538087c.151018-.1153255.1948759-.2704248.0979595-.3464239l-12.4592789-9.770207c-.0969164-.0759991-.297907-.0441188-.448925.0712067zm9.6752886-8.0034793l12.4136134 9.7343976c.2896837.2271617.1562017.6961017-.2981406 1.0474069l-3.747671 2.8977628c-.4543423.3513052-1.0574946.4519434-1.3471784.2247817l-12.4136134-9.7343976c-.2896837-.2271616-.1562016-.6961017.2981406-1.0474068l3.747671-2.8977628c.4543423-.3513052 1.0574946-.4519434 1.3471784-.2247818zm-1.0955785.5034793l-3.737044 2.8538087c-.151018.1153255-.194876.2704248-.0979595.3464239l12.4592789 9.770207c.0969164.0759991.297907.0441188.448925-.0712067l3.7370441-2.8538087c.151018-.1153255.1948759-.2704248.0979594-.3464239l-12.4592788-9.770207c-.0969165-.0759991-.2979071-.0441188-.4489251.0712067z" fill="#FFF" fill-rule="nonzero" opacity=".60000002"/><g><g fill="url(#e)" opacity=".6" stroke="#00C18D" stroke-width="2.0748" transform="translate(42.687473 13.627761)"><path d="M52.1081751 42.7104051c0 .3874368-.1767132.7627663-.5301396 1.0533439l-.539544.4541427c-.7152678.5811552-1.8765261.5811552-2.5917939 0L.53013965 4.67303589C.17671322 4.38245827 0 3.99502144 0 3.61969202c0-.38743683.17671322-.76276625.53013965-1.05334387l.53954402-.45414272c.71526778-.58115524 1.87652607-.58115524 2.59179385 0L51.5780355 41.6570612c.3534264.2784703.5301396.6659071.5301396 1.0533439z"/><path d="M52.1081751 41.1520811c0 .3874368-.1767132.7627663-.5301396 1.0533439l-.539544.4541427c-.7152678.5811552-1.8765261.5811552-2.5917939 0L.53013965 3.11471189C.17671322 2.82413427 0 2.43669744 0 2.06136802c0-.38743683.17671322-.76276625.53013965-1.05334387l.53954402-.45414272c.71526778-.58115524 1.87652607-.58115524 2.59179385 0L51.5780355 40.0987372c.3534264.2784703.5301396.6659071.5301396 1.0533439z"/></g><g fill="#F5F5F5" transform="translate(44.456181 16.591517)"><circle cx=".88489062" cy=".73613097" r="1"/><circle cx="2.81556107" cy="2.32164383" r="1"/><path d="M4.90712072 4.64328766c.4887116 0 .88489062-.32957706.88489062-.73613097 0-.40655391-.39617902-.73613097-.88489062-.73613097-.4887116 0-.88489062.32957706-.88489062.73613097 0 .40655391.39617902.73613097.88489062.73613097z"/></g><g fill="#FFF"><path d="M90.9056601 54.52342129c.71954732.57686959.88508599 1.07912198.49661603 1.5067572l-2.08986499-1.7087228c.34261865-.44222585.87370164-.37490398 1.59324896.2019656zm.6937832-.88422622c.32866863.25424305.43322424.66322294.23353149.91348214-.19969275.2502592-.62801428.24702965-.95668292-.0072134-.32866863-.25424305-.43322423-.66322294-.23353148-.91348214.19969275-.25025921.62801428-.24702966.95668291.0072134zM87.17917867 50.93593089l2.10710915 1.76345222c.20069474.16665355.23550757.42613842.07775662.57957568-.15775095.15343726-.4483286.14272333-.64902335-.02393022l-2.10710914-1.76345221c-.20069475-.16665356-.23550758-.42613843-.07775663-.57957569.15775095-.15343725.4483286-.14272333.64902335.02393022zM85.5932918 49.64264644l.66830605.59758338c.1928762.16490948.22633281.42167878.07472743.57351028-.15160538.1518315-.43086287.1412297-.62373907-.02367978l-.66830605-.59758338c-.1928762-.16490948-.2263328-.42167878-.07472742-.57351028.15160538-.1518315.43086287-.1412297.62373907.02367978z"/></g></g><g transform="translate(24.234671 1.228795)" fill="url(#f)" fill-rule="nonzero"><path d="M67.2505439 39.9228042c0 1.3975142-.639402 2.7513561-1.918206 3.7994918L51.1848637 55.7547756c-2.5880558 2.0962713-6.7898404 2.0962713-9.3778961 0L1.91820602 23.0276928C.63940201 21.9795571 0 20.582043 0 19.2282011c0-1.3975142.639402-2.7513561 1.91820602-3.7994917L16.0656802 3.39622974c2.5880558-2.09627129 6.7898404-2.09627129 9.3778962 0L65.3323379 36.1233125c1.278804 1.0044633 1.918206 2.4019775 1.918206 3.7994917z" stroke="#14B2E2" stroke-width=".988" opacity=".60000002"/><path d="M67.2505439 48.5072259c0 1.3975142-.639402 2.751356-1.918206 3.7994917L51.1848637 64.3391972c-2.5880558 2.0962713-6.7898404 2.0962713-9.3778961 0L1.91820602 31.6121144C.63940201 30.5639788 0 29.1664646 0 27.8126227c0-1.3975142.639402-2.7513561 1.91820602-3.7994917L16.0656802 11.9806514c2.5880558-2.09627132 6.7898404-2.09627132 9.3778962 0l39.8887615 32.7270827c1.278804 1.0044634 1.918206 2.4019776 1.918206 3.7994918z" opacity=".4"/><path d="M67.2505439 38.188337c0 1.3975142-.639402 2.751356-1.918206 3.7994917L51.1848637 54.0203083c-2.5880558 2.0962713-6.7898404 2.0962713-9.3778961 0L1.91820602 21.2932255C.63940201 20.2450899 0 18.8475757 0 17.4937338c0-1.3975142.639402-2.7513561 1.91820602-3.7994917L16.0656802 1.66176247c2.5880558-2.0962713 6.7898404-2.0962713 9.3778962 0L65.3323379 34.3888452c1.278804 1.0044634 1.918206 2.4019776 1.918206 3.7994918z" stroke="#14B2E2" stroke-width=".988" opacity=".6"/></g><g><path stroke="#FFF" stroke-width="2" opacity=".71436637" d="M29.43678147 17.6377807L42.6874733 16.36868l1.1116734 5.8997062 18.1128246-1.5583239 1.6314401 12.7865894 9.319264-.8142227 1.5569319 12.6314812"/><path d="M74.5072474 43.321429c1.169867 0 2.1449275.8523544 2.1449275 1.9419643 0 1.0896099-.9750605 1.9419643-2.1449275 1.9419643s-2.1449275-.8523544-2.1449275-1.9419643c0-1.0896099.9750605-1.9419643 2.1449275-1.9419643zm0 1.0714286c-.6070491 0-1.0724638.4068447-1.0724638.8705357s.4654147.8705357 1.0724638.8705357 1.0724638-.4068447 1.0724638-.8705357-.4654147-.8705357-1.0724638-.8705357zM63.2463778 31.0000004c1.1698671 0 2.1449276.8523544 2.1449276 1.9419643 0 1.0896099-.9750605 1.9419643-2.1449276 1.9419643-1.169867 0-2.1449275-.8523544-2.1449275-1.9419643 0-1.0896099.9750605-1.9419643 2.1449275-1.9419643zm9.652174 0c1.169867 0 2.1449275.8523544 2.1449275 1.9419643 0 1.0896099-.9750605 1.9419643-2.1449275 1.9419643-1.1698671 0-2.1449276-.8523544-2.1449276-1.9419643 0-1.0896099.9750605-1.9419643 2.1449276-1.9419643zm-9.652174 1.0714286c-.6070491 0-1.0724637.4068447-1.0724637.8705357s.4654146.8705357 1.0724637.8705357c.6070492 0 1.0724638-.4068447 1.0724638-.8705357s-.4654146-.8705357-1.0724638-.8705357zm9.652174 0c-.6070492 0-1.0724638.4068447-1.0724638.8705357s.4654146.8705357 1.0724638.8705357c.6070491 0 1.0724637-.4068447 1.0724637-.8705357s-.4654146-.8705357-1.0724637-.8705357zM43.4057981 20.2857147c1.1698671 0 2.1449276.8523544 2.1449276 1.9419643 0 1.0896099-.9750605 1.9419643-2.1449276 1.9419643-1.169867 0-2.1449275-.8523544-2.1449275-1.9419643 0-1.0896099.9750605-1.9419643 2.1449275-1.9419643zm0 1.0714286c-.6070491 0-1.0724637.4068447-1.0724637.8705357s.4654146.8705357 1.0724637.8705357c.6070492 0 1.0724638-.4068447 1.0724638-.8705357s-.4654146-.8705357-1.0724638-.8705357zm18.2318841-2.1428572c1.169867 0 2.1449275.8523544 2.1449275 1.9419643 0 1.0896099-.9750605 1.9419643-2.1449275 1.9419643s-2.1449275-.8523544-2.1449275-1.9419643c0-1.0896099.9750605-1.9419643 2.1449275-1.9419643zm0 1.0714286c-.6070491 0-1.0724638.4068447-1.0724638.8705357s.4654147.8705357 1.0724638.8705357 1.0724638-.4068447 1.0724638-.8705357-.4654147-.8705357-1.0724638-.8705357zm-31.63768117-4.82142857c1.16986704 0 2.14492754.85235437 2.14492754 1.94196427s-.9750605 1.9419643-2.14492754 1.9419643c-1.16986703 0-2.14492753-.8523544-2.14492753-1.9419643 0-1.0896099.9750605-1.94196427 2.14492753-1.94196427zm0 1.07142857c-.60704911 0-1.07246376.4068447-1.07246376.8705357s.46541465.8705357 1.07246376.8705357c.60704912 0 1.07246377-.4068447 1.07246377-.8705357s-.46541465-.8705357-1.07246377-.8705357zm12.86956527-2.14285714c1.169867 0 2.1449275.85235441 2.1449275 1.94196424 0 1.0896099-.9750605 1.9419643-2.1449275 1.9419643-1.1698671 0-2.1449276-.8523544-2.1449276-1.9419643 0-1.08960983.9750605-1.94196424 2.1449276-1.94196424zm0 1.07142857c-.6070492 0-1.0724638.40684477-1.0724638.87053567 0 .463691.4654146.8705358 1.0724638.8705358.6070491 0 1.0724637-.4068448 1.0724637-.8705358 0-.4636909-.4654146-.87053567-1.0724637-.87053567z" fill="#FFF" fill-rule="nonzero"/><path d="M71.3699408 53.3868017l.1811741.146234-.3369933.4167066-.1811741-.1462339.3369933-.4167067zm-3.3368739-2.6933444l1.668437 1.3466722-.3369934.4167067-1.668437-1.3466723.3369934-.4167066zm-3.336874-2.6933445l1.668437 1.3466723-.3369933.4167066-1.668437-1.3466722.3369933-.4167067zm12.0360668 1.1009747l.1811741.1462339-.3369934.4167066-.1811741-.1462339.3369934-.4167066zm-3.336874-2.6933445l1.668437 1.3466722-.3369933.4167067-1.668437-1.3466723.3369933-.4167066zM61.359319 45.3067684l1.6684369 1.3466722-.3369933.4167066-1.668437-1.3466722.3369934-.4167066zm8.6991928-1.5923698l1.6684369 1.3466722-.3369933.4167066-1.668437-1.3466722.3369934-.4167066zm12.5722986 1.1009746l.1811741.1462339-.3369933.4167067-.1811741-.146234.3369933-.4167066zM58.022445 42.6134239l1.668437 1.3466723-.3369934.4167066-1.6684369-1.3466722.3369933-.4167067zm21.2714914-.4913952l1.668437 1.3466722-.3369933.4167067-1.668437-1.3466722.3369933-.4167067zm-12.5722986-1.1009746l1.668437 1.3466722-.3369934.4167067-1.6684369-1.3466723.3369933-.4167066zM54.685571 39.9200795l1.668437 1.3466722-.3369933.4167066-1.668437-1.3466722.3369933-.4167066zm21.2714915-.4913952l1.668437 1.3466722-.3369934.4167066-1.668437-1.3466722.3369934-.4167066zm12.5722986 1.1009746l.1811741.1462339-.3369933.4167067-.1811741-.146234.3369933-.4167066zm-25.1445973-2.2019493l1.668437 1.3466723-.3369933.4167066-1.668437-1.3466722.3369933-.4167067zm21.8077234-.4913952l1.6684369 1.3466723-.3369933.4167066-1.668437-1.3466722.3369934-.4167067zm-33.8437901-.6095794l1.668437 1.3466723-.3369934.4167066-1.668437-1.3466722.3369934-.4167067zm21.2714914-.4913952l1.668437 1.3466722-.3369933.4167067-1.668437-1.3466723.3369933-.4167066zm-12.5722986-1.1009746l1.668437 1.3466722-.3369934.4167067-1.668437-1.3466723.3369934-.4167066zm21.8077233-.4913952l1.668437 1.3466722-.3369934.4167066-1.6684369-1.3466722.3369933-.4167066zm-33.8437901-.6095794l1.668437 1.3466722-.3369934.4167066-1.6684369-1.3466722.3369933-.4167066zm21.2714915-.4913952l1.6684369 1.3466722-.3369933.4167066-1.668437-1.3466722.3369934-.4167066zm-12.5722987-1.1009747l1.668437 1.3466723-.3369933.4167066-1.668437-1.3466722.3369933-.4167067zm21.8077233-.4913952l1.668437 1.3466723-.3369933.4167066-1.668437-1.3466722.3369933-.4167067zm-33.8437901-.6095794l1.668437 1.3466722-.3369933.4167067-1.668437-1.3466722.3369933-.4167067zm21.2714915-.4913952l1.668437 1.3466722-.3369934.4167067-1.6684369-1.3466723.3369933-.4167066zm-12.5722987-1.1009746l1.668437 1.3466722-.3369933.4167066-1.668437-1.3466722.3369933-.4167066zm21.8077234-.4913952l1.668437 1.3466722-.3369934.4167066-1.668437-1.3466722.3369934-.4167066zm-33.8437901-.6095794l1.668437 1.3466722-.3369934.4167066-1.668437-1.3466722.3369934-.4167066zm21.2714914-.4913952l1.668437 1.3466722-.3369933.4167066-1.668437-1.3466722.3369933-.4167066zM50.037268 27.5543318l1.668437 1.3466723-.3369934.4167066-1.668437-1.3466722.3369934-.4167067zm21.8077233-.4913952l1.668437 1.3466723-.3369933.4167066-1.668437-1.3466722.3369933-.4167067zm-33.8437901-.6095794l1.668437 1.3466722-.3369933.4167067-1.668437-1.3466723.3369933-.4167066zm21.2714915-.4913952l1.668437 1.3466722-.3369934.4167067-1.668437-1.3466723.3369934-.4167066zM46.700394 24.8609874l1.668437 1.3466722-.3369933.4167066-1.668437-1.3466722.3369933-.4167066zm21.8077234-.4913952l1.6684369 1.3466722-.3369933.4167066-1.668437-1.3466722.3369934-.4167066zm-33.84379014-.6095794l1.66843698 1.3466722-.33699334.4167066-1.66843698-1.3466722.33699334-.4167066zm21.27149144-.4913952l1.668437 1.3466722-.3369933.4167066-1.668437-1.3466722.3369933-.4167066zm-12.5722986-1.1009747l1.6684369 1.3466723-.3369933.4167066-1.668437-1.3466722.3369934-.4167067zm21.8077233-.4913952l1.668437 1.3466722-.3369934.4167067-1.6684369-1.3466723.3369933-.4167066zm-33.8437901-.6095794l1.66843698 1.3466722-.33699334.4167067-1.66843698-1.3466723.33699334-.4167066zm21.2714915-.4913952l1.6684369 1.3466722-.3369933.4167067-1.668437-1.3466723.3369934-.4167066zm-12.5722987-1.1009746l1.668437 1.3466722-.3369934.4167066-1.6684369-1.3466722.3369933-.4167066zm21.8077233-.4913952l1.668437 1.3466722-.3369933.4167066-1.668437-1.3466722.3369933-.4167066zm-33.84379006-.6095794l1.66843698 1.3466722-.33699334.4167066-1.66843698-1.3466722.33699334-.4167066zm21.27149146-.4913953l1.668437 1.3466723-.3369934.4167066-1.668437-1.3466722.3369934-.4167067zM36.68977214 16.780954l1.66843696 1.3466723-.3369933.4167066-1.668437-1.3466722.33699334-.4167067zm21.80772336-.4913952l1.668437 1.3466722-.3369934.4167067-1.668437-1.3466723.3369934-.4167066zm-12.5722987-1.10097461l1.668437 1.34667221-.3369933.4167066-1.668437-1.3466722.3369933-.41670661zm-12.57229862-1.10097462l1.66843698 1.34667223-.33699334.4167066-1.66843698-1.3466722.33699334-.41670663zm21.80772332-.49139521l1.668437 1.34667223-.3369933.41670663-1.668437-1.34667223.3369933-.41670663zm-12.5722986-1.10097462l1.6684369 1.34667223-.3369933.41670663-1.668437-1.34667223.3369934-.41670663zm9.2354247-1.59236983l1.6684369 1.34667222-.3369933.41670663-1.668437-1.34667222.3369934-.41670663zM39.2514489 9.80189529l1.668437 1.34667222-.3369934.41670663-1.6684369-1.34667222.3369933-.41670663zm9.2354247-1.59236984l1.668437 1.34667223-.3369934.41670663-1.6684369-1.34667223.3369933-.41670663zM45.1499996 5.516181l1.668437 1.34667223-.3369933.41670663-1.668437-1.34667223.3369933-.41670663z" fill="#FFF" fill-rule="nonzero" opacity=".22999999"/></g><path fill="#000" opacity=".18863932" d="M14.906238 40.4557934l38.5859456 52.5257571 4.8872684-4.2109676-37.7165928-52.5990603z"/><g><path fill="#EFE3CC" d="M17.37769519 30.04824023l-3.52139175 3.68733714-5.83376159-12.3761961.64747232-1.45424663z"/><path fill="#7E7E7E" d="M13.85630344 33.73557737l3.52139175-3.68733714 39.80186788 54.2816222-3.3662755 3.83488535z"/><path fill="#686868" d="M53.38719406 89.61010142l.4260935-1.44535364-39.95698412-54.4291704 1.12899012 3.46945039z"/><path d="M17.37769519 30.04824023l4.07205631-.66060645c5.5371902 7.37966988 18.91317761 25.63578886 40.12796238 54.76835694-1.67612004-.74625672-3.14217026-.6882995-4.39815081.1738717l-39.80186788-54.2816222z" fill="#ADADAD"/><path fill="#FCEFD6" d="M17.37769519 30.04824023l4.07205631-.66060645-11.5784881-9.68022911-1.20124923.19772997z"/><path fill="#B5AA95" d="M14.52021853 36.46623787l-.66391509-2.7306605-5.83376159-12.3761961z"/><path fill="#373737" d="M8.02254185 21.35938128l1.84872155-1.65197661-2.75840142-1.7558905z"/><path d="M53.72654285 89.76118924c1.73925298 2.64255325 3.83848134 5.70733998 6.29768504 9.19436029l8.65624055-5.13010266c-2.40021387-3.27277576-4.605885-6.33613035-6.6170132-9.19006368-4.18945004-1.86526334-8.0608367 1.30685017-8.3369124 5.12580605z" fill="#EBE9EA"/><path d="M57.72039308 95.67663011s1.55832927-7.75578689 8.3246315-5.2885257M55.41861884 92.54072997s1.55832927-7.75578689 8.3246315-5.2885257" stroke="#C3C3C3" stroke-width=".9"/><path d="M68.55614293 94.3856912c-.04855884-.86183578-2.80063413-2.56541161-5.50234349-.65529035-2.7017094 1.91012136-3.50696981 4.12277029-2.82689887 5.12593041.68007094 1.00316012 3.78476905.7283035 5.4389988-.21873677 1.65422986-.94704023 2.9388024-3.39006751 2.89024356-4.25190329z" fill="#C5C5C5"/><path d="M68.80092274 95.0224453c-.04855885-.86183578-2.80063414-2.56541162-5.5023435-.65529035-2.70170935 1.91012127-3.50696981 4.12277029-2.82689887 5.1259304.68007098 1.00316004 4.27842051 5.13594388 5.93265037 4.18890365 1.21329791-.69460843 4.20808662-3.25561476 4.5019498-5.60964724.10679456-.8554931-2.09241453-2.82017576-2.1053578-3.04989646z" fill="#686868"/><path d="M71.17872904 98.76014431c-.03404266-.79818031-2.50774207-2.34525986-4.97753734-.54378151-2.46979528 1.80147834-3.22490766 3.86143826-2.62034924 4.78330455.60455852.92186634 3.42057781.63128215 4.93023963-.26552689 1.50966182-.89680903 2.70168948-3.17581579 2.66764695-3.97399615z" fill="#545454"/></g></g></svg>