<svg width="64" height="62" xmlns="http://www.w3.org/2000/svg"><defs><linearGradient x1="0%" y1="3.07617188%" x2="100%" y2="96.9238281%" id="a"><stop stop-color="#14B2E2" offset="0%"/><stop stop-color="#00C18D" offset="100%"/></linearGradient></defs><path d="M58.1355571 0C61.3610007 0 64 2.63207547 64 5.8490566v50.3018868C64 59.3695957 61.3610007 62 58.1355571 62H5.86444294C2.63899932 62 0 59.3695957 0 56.1509434V5.8490566C0 2.63207547 2.63899932 0 5.86444294 0zm4.2223989 14.4672237H1.6428818v41.6837197c0 2.3220755 1.89337729 4.2121563 4.22156114 4.2121563H58.1355571c2.3290216 0 4.2215611-1.8900808 4.2223989-4.2121563V14.4672237zM22.2242603 27.0926646c.4238316.4227195.00928 1.091668-.3615726 1.5451662l-.0794684.0876901-6.6090963 6.5915097 6.6090963 6.5915096c.4238315.4227196.891362 1.0916681.5205094 1.5451662l-.0794684.0876902c-.4238315.4227195-.806404.4491394-1.261095.0792599l-.0879209-.0792599-7.4274249-7.4079379c-.4238315-.4227195-.450321-1.091668-.0794684-1.5451661l.0794684-.0876902 7.4274249-7.4079378c.452087-.4509008.896929-.4509008 1.3490159 0zm20.8895755-.0792599l.0879209.0792599 7.4274248 7.4079378c.4238315.4227195.450321 1.091668.0794684 1.5451662l-.0794684.0876901-7.4274248 7.4079379c-.452087.4509008-1.1850648.4509008-1.6371517 0-.4238315-.4227196.0348541-1.0916681.4057067-1.5451662l.0794684-.0876902 6.6090963-6.5915096-6.6090963-6.5915097c-.4238315-.4227195-.9354961-1.091668-.5646435-1.5451661l.0794684-.0876902c.4238315-.4227195 1.0945397-.4491395 1.5492308-.0792599zm-8.6803865-.126668c.5677168.1989439.5261034.6860345.3844318 1.2569775l-.0319571.1066612-5.1723401 14.6827113c-.211934.6016165-.5167564 1.0263855-1.1199556.8150075-.5677168-.1989439-.8820769-.7944525-.7404052-1.3653956l.031957-.1066611 5.1723401-14.6827113c.211934-.6016166.87273-.9179675 1.4759291-.7065895zM58.1355571 1.63857143H5.86444294c-2.32902163 0-4.22156114 1.89008086-4.22156114 4.21048517v6.9804313h60.7142364V5.8490566c0-2.32040431-1.8933773-4.21048517-4.2215611-4.21048517zm-7.6082615 4.79539083c.6477685 0 1.1728886.52374237 1.1728886 1.16981132 0 .64606896-.5251201 1.16981133-1.1728886 1.16981133-.6477684 0-1.1728885-.52374237-1.1728885-1.16981133 0-.64606895.5251201-1.16981132 1.1728885-1.16981132zm5.864443 0c.6477685 0 1.1728886.52374237 1.1728886 1.16981132 0 .64606896-.5251201 1.16981133-1.1728886 1.16981133-.6477685 0-1.1728886-.52374237-1.1728886-1.16981133 0-.64606895.5251201-1.16981132 1.1728886-1.16981132zm-42.8399108.52301089c.4429845 0 .8020944.32560702.8020944.72726365 0 .37802976-.3181043.68869379-.7248474.72393444l-.077247.00332921H7.13507224c-.44298453 0-.80209444-.32560703-.80209444-.72726365 0-.37802977.31810428-.6886938.72484739-.72393445l.07724705-.0033292h6.41675556z" fill="url(#a)" fill-rule="evenodd"/></svg>