<svg width="80" height="80" fill="none" xmlns="http://www.w3.org/2000/svg"><path fill-rule="evenodd" clip-rule="evenodd" d="M67.9336 15.7275H11.914c-2.7027 0-4.914 2.1406-4.914 4.757v40.9094c0 2.6177 2.2113 4.7569 4.914 4.7569h56.0196c2.7027 0 4.914-2.1392 4.914-4.7569V20.4845c0-2.6164-2.2113-4.757-4.914-4.757Zm-56.0193 1.333h56.0196c1.9509 0 3.5374 1.5372 3.5374 3.4243v5.677H8.37695v-5.677c0-1.8871 1.58582-3.4243 3.53735-3.4243Zm0 47.7588h56.0196c1.9516 0 3.5374-1.5372 3.5381-3.4257V27.4932H8.37695v33.9004c0 1.8885 1.58652 3.4257 3.53735 3.4257Z" fill="#1B127D"/><ellipse cx="14.3265" cy="21.9113" rx=".982788" ry=".951385" fill="#1B127D"/><ellipse cx="19.2406" cy="21.9113" rx=".982788" ry=".951385" fill="#1B127D"/><path d="M40.4229 38.9386c.1951-.5374.8033-.8201 1.3586-.6312.5225.1777.4842.6129.3538 1.1229l-.0294.0953-4.7609 13.117c-.195.5374-.4756.9169-1.0308.7281-.5226-.1778-.8119-.7098-.6815-1.2198l.0294-.0953 4.7608-13.117Z" fill="#1B127D"/><path d="M29.301 38.4911c.4161-.4028.8256-.4028 1.2417 0 .3901.3776.0085.9752-.3328 1.3804l-.0732.0783-6.0833 5.8886 6.0833 5.8886c.3901.3776.8205.9753.4791 1.3804l-.0731.0783c-.3901.3777-.7423.4013-1.1608.0708l-.0809-.0708-6.8366-6.6179c-.3901-.3777-.4145-.9753-.0731-1.3804l.0731-.0784 6.8366-6.6179ZM48.3433 38.4911c.3901-.3777 1.0074-.4013 1.4259-.0708l.081.0708 6.8365 6.6179c.3901.3777.4145.9753.0731 1.3804l-.0731.0784-6.8365 6.6179c-.4162.4029-1.0908.4029-1.5069 0-.3902-.3776.032-.9752.3734-1.3804l.0731-.0783 6.0833-5.8886-6.0833-5.8886c-.3901-.3776-.861-.9752-.5197-1.3804l.0732-.0783Z" fill="#ED26B7"/></svg>