<svg width="90" height="90" xmlns="http://www.w3.org/2000/svg"><g fill-rule="nonzero" fill="none"><path d="M16.0644765 29.45c-.2282093-.0008914-.4472474-.0900177-.6113525-.2487585-.3374987-.3380273-.3374987-.8858647 0-1.2238919l3.0269403-3.0249037c.3362681-.3365945.8814665-.3365945 1.2177346 0 .3362681.3365946.3362681.8823222 0 1.2189168l-3.0219699 3.0298788c-.1641051.1587408-.3831432.2478671-.6113525.2487585zM29.3545175 42.7496036c-.2268418.0007937-.4443722-.0901658-.603161-.2522096-.1609167-.160512-.2513565-.3784822-.2513565-.6057977 0-.2273154.0904398-.4452856.2513565-.6057976l3.0059173-3.0265153c.2190213-.221731.5396653-.3097407.8411484-.2308766.3014832.078864.538003.3126205.6204649.6132155.0824618.3005951-.0016623.6223612-.2206836.8440921l-3.0108613 3.0116796c-.1669279.1680931-.3960696.2594165-.6328247.2522096zM53.1168648 66.5c-.2300057.0007989-.4505701-.0913517-.6115737-.2555175-.3403881-.3403966-.3403881-.8920741 0-1.2324708l3.0478424-3.0461068c.3450539-.301975.865161-.2852931 1.1901316.0381723.3249707.3234653.3437805.8432039.0430415 1.1892885l-3.0528553 3.0511168c-.1631882.163976-.38518.255969-.6165865.2555175zM67.3770676 80.7498686c-.355209.0061817-.6778316-.2061843-.8126017-.5348943-.1347701-.32871-.0540827-.7064345.2032303-.9513886l3.0171315-3.0122c.3351784-.3351809.87861-.3351809 1.2137885 0 .3351784.335181.3351784.8786167 0 1.2137977l-3.0121772 3.0171542c-.1587965.1676177-.3785043.2640755-.6093714.267531z" fill="#ED26B7"/><path d="M76.408241 89.3c-.2100439 0-.4114527-.0840584-.559932-.2327927L43.9458441 57.1289605c-.2082587-.198564-.2926495-.4945357-.2204748-.7732395.0721746-.2787038.2895739-.496347.5679654-.5686025.2783916-.0722556.5740317.0122298.7723733.220722l31.342533 31.3913591 10.9664723-10.9787724L56.0503895 45.015396c-.2743845-.3137004-.2592268-.7865475.0346846-1.0819895.2939113-.295442.7661631-.3125427 1.080627-.0391305l31.902465 31.9382469c.3091119.3096426.3091119.8114773 0 1.1211199L76.9909344 89.0672073c-.1537041.1549086-.3646937.2390691-.5826934.2327927zM32.2139972 45.58173c-.2071382.0004152-.4058491-.0832068-.5519234-.2322614L.22487572 13.4385637c-.2998343-.3114462-.2998343-.8088739 0-1.1203201L12.12937.2315387C12.2750129.08330923 12.4727916 0 12.6790498 0c.2062582 0 .4040368.08330924.5496798.2315387l31.1814287 31.6467644c.2043707.1992937.2862823.4953395.2140101.7734779-.0722722.2781384-.2873774.4946859-.5620045.565773-.2746272.0710871-.5656443-.014451-.7603396-.223485L12.6768062 1.90746462 1.87167157 12.8784037l30.88976183 31.355299c.2324128.2246051.3057386.5706711.1848449.8723872-.1208937.3017161-.4113812.4976234-.7322811.4939101v-.01827z" fill="#1B127D"/><path d="M9.38611915 22.8c-.22184791.0007703-.43458944-.0880756-.58988258-.2463539-.32831543-.3281892-.32831543-.860082 0-1.1882712l5.87948533-5.8785609c.207046-.2362164.5286205-.3374458.8338166-.2624798.3051962.0749661.5431191.3136263.6169148.6188265.0737958.3052003-.0288419.626045-.2661311.8319245l-5.87948537 5.8785609c-.15740035.1580953-.37151864.2467892-.59471768.2463539zM22.7034936 36.0998718c-.3456616.0060289-.6596127-.2010839-.7907604-.5216627-.1311477-.3205787-.0526291-.6889594.1977678-.9278541l5.8672516-5.8608797c.2054834-.2371233.5257109-.3396892.830324-.2659451.3046131.0737442.5428141.3115008.617636.6164835.0748218.3049828-.0262129.6263325-.2619748.8332337l-5.8624306 5.8802066c-.1578077.1598022-.373487.2487049-.5978136.2464178zM46.3507614 58.8997731c-.3050281.0035242-.5811482-.1797709-.6960625-.462063-.1149143-.2822921-.0452152-.606079.1757025-.8162243l5.1908049-5.1898466c.2946353-.2556279.7371092-.2396396 1.0124879.0365851s.2895806.7183151.0324975 1.0116105l-5.173744 5.2026295c-.1429868.1437381-.3389001.2223328-.5416863.2173088zM60.6007614 73.15c-.3050281.0034743-.5811482-.1798257-.6960625-.4621253-.1149143-.2822996-.0452152-.606095.1757025-.816246l5.1908049-5.1899847c.2946353-.2556347.7371092-.2396459 1.0124879.0365861.2753787.2762321.2895806.7183342.0324975 1.0116374l-5.1908049 5.1857236c-.1359877.1457371-.3252341.2302766-.5246254.2344089zM73.9046012 86.4498869c-.3056106.0053201-.5831849-.1774469-.6991368-.4603422-.1159519-.2828953-.046531-.6079735.1748529-.8187867l5.1916888-5.1889993c.2944436-.2557961.7366294-.2397973 1.0118289.0366093.2751994.2764065.2893921.7187879.0324763 1.0122764l-5.1789014 5.2017906c-.1408334.1416722-.3330947.2201386-.5328087.2174519zM14.5538842 83.5999297c-3.5799434 0-6.8073445-2.1571575-8.17843453-5.4646791-1.37109004-3.3075215-.61611517-7.1153676 1.91315313-9.6493181l57.8063415-57.8158339c.3093266-.2934648.7941917-.2934648 1.1035183 0l11.4225403 11.424416c.1466023.1462179.2289971.3447773.2289971.5518497s-.0823948.4056318-.2289971.5518498L20.8146614 81.014048c-1.6575907 1.6640724-3.9122149 2.5952716-6.2607772 2.5858817zm52.0950713-71.2720294L9.39662524 69.589632c-2.74632303 2.8658294-2.69872506 7.4015618.10713438 10.2091074 2.80585938 2.8075457 7.34082588 2.8571317 10.20738348.1116091l57.2523303-57.2617317-10.3145179-10.3207165z" fill="#1B127D"/><path d="M78.7296094 22.8c-.0739429-.0001348-.1475639-.009294-.2190691-.0272544-.2119657-.0542036-.3925007-.1868254-.5015716-.3684567-.1090709-.1816314-.1376636-.3972615-.0794377-.5990745l3.0812542-10.729149c.0639641-.2870176.2893708-.5166133.5854425-.5963226.2960718-.0797094.6140728.0035884.8259354.2163471.2118626.2127588.2827125.5199564.1840165.7978763l-3.0812542 10.7246066c-.0983023.3420608-.4234657.5797762-.795316.5814272zM67.3086061 11.3996246c-.4222288.0133278-.7787413-.3297698-.80684-.7764804-.0280987-.4467106.2822872-.8369296.7024487-.8831228.2042438-.03367311 1.6521053-.39926684 10.6479091-3.05944233.2707971-.07991518.5612502-.00064333.7619484.20795462.2006983.20859795.2811508.514831.2110519.80334413-.0700988.28851313-.2800994.51547434-.5508965.59538952-10.1622628 3.01133786-10.6932966 3.08349456-10.8657691 3.10754676l-.0998525.0048105zM24.8190737 76.95c-.2130566.0002989-.4174452-.0846403-.5676931-.2360432l-11.7046324-11.731263c-.2768914-.3195481-.2595731-.7994351.0396284-1.0980983.2992015-.2986633.7780657-.3140661 1.0957579-.0352454L25.400613 75.5621096c.239714.2287178.3148827.5814056.1893303.8883277-.1255524.3069222-.4261091.505212-.7570234.4995627h-.0138462zM21.9893142 78.8359905c-.213703-.0000899-.4186204-.0850064-.5696864-.2360747L9.67853067 66.8609873c-.25730439-.3189378-.23405166-.7801.05403074-1.0715701.28808239-.2914701.74919169-.3203659 1.07144719-.067143l11.7457288 11.7389285c.2405556.2288673.3159883.5817855.189995.8889082-.1259932.3071227-.4276052.5055421-.7596814.4998891l.0092632-.0140095z" fill="#1B127D"/><path d="M18.8517373 71.25c-.3247005.0055311-.6196135-.1886097-.7428083-.4891098-.1231949-.3005001-.0494376-.6458083.1857751-.8697404l53.5159475-53.5113201c.1981999-.1982163.4870824-.2756285.7578284-.2030763.270746.0725522.4822227.2840464.5547688.5548148.0725462.2707684-.0048596.5596748-.2030595.7578911L19.4087705 71.0188957c-.1477106.1478108-.3480767.2311043-.5570332.2311043z" fill="#1B127D"/><path d="M81.4182136 12.35c-.2428689-.0004543-.4718248-.1128553-.6199476-.3043699-.1481229-.1915146-.1986888-.4405197-.1369182-.6742352l1.0333257-3.75650498L77.9466018 8.665629c-.4180055.11581236-.8512191-.12747968-.9676098-.54340799-.1163908-.4159283.1281162-.84698929.5461216-.96280167l5.075986-1.4295463c.2730101-.07739148.566738-.00190348.7679362.19735938.2011981.19926286.278438.49117448.2019396.7631875l-1.391364 5.08683978c-.0943325.3403363-.406601.5752234-.7613978.5727403z" fill="#ED26B7"/><path d="M81.8084142 12.3304238c-.2229416-.0003132-.4365358-.0895677-.5933725-.2479521l-3.9736501-3.94778676c-.238693-.20721927-.3419379-.53015208-.2677056-.83733853.0742323-.30718646.3135629-.54739985.6205646-.6228538.3070017-.07545395.6304788.02643431.8387497.26418798l3.9541952 3.95264851c.2526111.2403822.331824.6110565.1995166.9336312-.1323074.3225748-.4490347.5309771-.7977528.5249107l.0194549-.0194472z" fill="#ED26B7"/></g></svg>