<svg width="914" height="718" fill="none" xmlns="http://www.w3.org/2000/svg"><path d="M680.026 479.03c0 4.003-2.626 7.881-7.878 10.883l-62.111 33.235c-10.63 6.005-27.887 6.005-38.517 0L308.687 372.641c-5.252-3.002-7.878-7.005-7.878-10.884 0-4.003 2.626-7.881 7.878-10.883l62.111-33.235c10.629-6.005 27.887-6.005 38.517 0l262.833 150.507c5.252 2.877 7.878 6.88 7.878 10.884Z" fill="#fff" stroke="#1B127D"/><path d="M680.026 474.06c0 4.003-2.626 7.882-7.878 10.884l-62.111 33.235c-10.63 6.004-27.887 6.004-38.517 0L308.687 367.672c-5.252-3.003-7.878-7.006-7.878-10.884 0-4.003 2.626-7.881 7.878-10.884l62.111-33.234c10.629-6.005 27.887-6.005 38.517 0l262.833 150.506c5.252 2.878 7.878 6.881 7.878 10.884Z" fill="#fff" stroke="#1B127D"/><g fill-rule="evenodd" clip-rule="evenodd"><path d="m392.926 322.138 75.465 43.41c3.39 1.95 3.978 4.986 1.314 6.781-2.665 1.795-7.572 1.67-10.962-.28l-75.465-43.41c-3.39-1.95-3.978-4.986-1.313-6.781 2.664-1.795 7.571-1.67 10.961.28ZM355.666 342.016l28.982 16.108c3.39 1.949 3.978 4.985 1.314 6.78-2.665 1.795-7.572 1.67-10.962-.28l-28.982-16.107c-3.389-1.95-3.977-4.986-1.313-6.781 2.664-1.795 7.572-1.67 10.961.28ZM374.71 332.077l51.236 29.41c3.39 1.949 3.978 4.985 1.313 6.78-2.664 1.796-7.571 1.67-10.961-.28l-51.236-29.409c-3.389-1.95-3.977-4.986-1.313-6.781 2.664-1.795 7.572-1.67 10.961.28ZM336.623 351.955l58.396 32.879c3.389 1.95 3.977 4.986 1.313 6.781-2.664 1.795-7.572 1.67-10.961-.28l-58.396-32.879c-3.39-1.95-3.978-4.986-1.314-6.781 2.665-1.795 7.572-1.67 10.962.28ZM488.144 397.509l9.648 5.631c3.39 1.95 3.978 4.986 1.314 6.781-2.665 1.795-7.572 1.67-10.962-.28l-9.648-5.632c-3.389-1.949-3.977-4.985-1.313-6.78 2.664-1.795 7.572-1.67 10.961.28ZM569.287 423.184l23.754 13.206c3.389 1.949 3.977 4.985 1.313 6.78-2.664 1.796-7.572 1.67-10.961-.28l-23.754-13.205c-3.39-1.95-3.978-4.985-1.313-6.781 2.664-1.795 7.571-1.669 10.961.28ZM552.727 435.608l9.648 5.632c3.39 1.949 3.978 4.985 1.314 6.78-2.665 1.796-7.572 1.67-10.962-.28l-9.648-5.631c-3.389-1.95-3.977-4.986-1.313-6.781 2.664-1.795 7.572-1.67 10.961.28ZM537.823 447.204l9.648 5.631c3.39 1.95 3.977 4.986 1.313 6.781-2.664 1.795-7.572 1.67-10.961-.28l-9.648-5.632c-3.39-1.949-3.978-4.985-1.313-6.78 2.664-1.796 7.571-1.67 10.961.28ZM469.101 407.448l7.164 3.975c3.389 1.95 3.977 4.985 1.313 6.781-2.664 1.795-7.572 1.669-10.961-.28l-7.164-3.976c-3.39-1.949-3.978-4.985-1.313-6.78 2.664-1.795 7.571-1.67 10.961.28ZM511.328 410.761l.96.621c3.389 1.95 3.977 4.986 1.313 6.781-2.664 1.795-7.572 1.67-10.961-.28l-.96-.622c-3.39-1.949-3.978-4.985-1.313-6.78 2.664-1.795 7.571-1.67 10.961.28ZM450.057 417.387l3.6 2.128c3.389 1.95 3.977 4.986 1.313 6.781-2.664 1.795-7.572 1.669-10.961-.28l-3.6-2.129c-3.39-1.949-3.978-4.985-1.313-6.78 2.664-1.795 7.571-1.67 10.961.28ZM506.36 387.57l.96.621c3.39 1.95 3.977 4.986 1.313 6.781-2.664 1.795-7.572 1.67-10.961-.28l-.96-.622c-3.389-1.949-3.977-4.985-1.313-6.78 2.664-1.795 7.572-1.67 10.961.28ZM648.774 468.738l.96.622c3.389 1.95 3.977 4.985 1.313 6.781-2.664 1.795-7.572 1.669-10.961-.28l-.96-.622c-3.39-1.95-3.978-4.986-1.314-6.781 2.665-1.795 7.572-1.67 10.962.28ZM612.342 489.444l.96.622c3.39 1.95 3.978 4.986 1.314 6.781-2.665 1.795-7.572 1.67-10.962-.28l-.96-.622c-3.389-1.95-3.977-4.986-1.313-6.781 2.664-1.795 7.572-1.669 10.961.28ZM594.127 499.383l.96.622c3.389 1.95 3.977 4.986 1.313 6.781-2.664 1.795-7.572 1.67-10.961-.28l-.96-.622c-3.39-1.95-3.978-4.986-1.314-6.781 2.665-1.795 7.572-1.669 10.962.28Z" fill="#1B127D"/><path d="m630.558 479.505.96.622c3.389 1.95 3.977 4.986 1.313 6.781-2.664 1.795-7.572 1.67-10.961-.28l-.96-.622c-3.39-1.95-3.978-4.986-1.313-6.781 2.664-1.795 7.571-1.669 10.961.28Z" fill="#ED26B7"/><path d="m522.092 458.799.959.622c3.39 1.95 3.978 4.985 1.314 6.781-2.665 1.795-7.572 1.669-10.962-.28l-.96-.622c-3.389-1.95-3.977-4.986-1.313-6.781 2.664-1.795 7.572-1.67 10.962.28Z" fill="#1B127D"/></g><mask id="a" style="mask-type:alpha" maskUnits="userSpaceOnUse" x="300" y="307" width="381" height="217"><path d="M680.026 474.06c0 4.003-2.626 7.882-7.878 10.884l-62.111 33.235c-10.63 6.004-27.887 6.004-38.517 0L308.687 367.672c-5.252-3.003-7.878-7.006-7.878-10.884 0-4.003 2.626-7.881 7.878-10.884l62.111-33.234c10.629-6.005 27.887-6.005 38.517 0l262.833 150.506c5.252 2.878 7.878 6.881 7.878 10.884Z" fill="#fff" stroke="#fff"/></mask><g mask="url(#a)"><path fill-rule="evenodd" clip-rule="evenodd" d="m320.681 361.174 174.54 98.882-174.54-98.882Z" fill="#BFC9D1"/><path d="m320.681 361.174 174.54 98.882" stroke="#BFC9D1" stroke-dasharray="4.47"/><path fill-rule="evenodd" clip-rule="evenodd" d="m338.068 350.407 174.54 98.881-174.54-98.881Z" fill="#BFC9D1"/><path d="m338.068 350.407 174.54 98.881" stroke="#BFC9D1" stroke-dasharray="4.47"/><path fill-rule="evenodd" clip-rule="evenodd" d="m356.283 340.468 174.54 98.882-174.54-98.882Z" fill="#BFC9D1"/><path d="m356.283 340.468 174.54 98.882" stroke="#BFC9D1" stroke-dasharray="4.47"/><path fill-rule="evenodd" clip-rule="evenodd" d="m373.672 329.7 174.54 98.882-174.54-98.882Z" fill="#BFC9D1"/><path d="m373.672 329.7 174.54 98.882" stroke="#BFC9D1" stroke-dasharray="4.47"/><path fill-rule="evenodd" clip-rule="evenodd" d="m391.887 319.761 174.54 98.882-174.54-98.882Z" fill="#BFC9D1"/><path d="m391.887 319.761 174.54 98.882" stroke="#BFC9D1" stroke-dasharray="4.47"/><g><path fill-rule="evenodd" clip-rule="evenodd" d="m494.557 459.735 174.54 98.882-174.54-98.882Z" fill="#BFC9D1"/><path d="m494.557 459.735 174.54 98.882" stroke="#BFC9D1" stroke-dasharray="4.47"/></g><g><path fill-rule="evenodd" clip-rule="evenodd" d="m511.945 448.968 174.54 98.882-174.54-98.882Z" fill="#BFC9D1"/><path d="m511.945 448.968 174.54 98.882" stroke="#BFC9D1" stroke-dasharray="4.47"/></g><g><path fill-rule="evenodd" clip-rule="evenodd" d="m530.161 439.029 174.54 98.882-174.54-98.882Z" fill="#BFC9D1"/><path d="m530.161 439.029 174.54 98.882" stroke="#BFC9D1" stroke-dasharray="4.47"/></g><g><path fill-rule="evenodd" clip-rule="evenodd" d="m547.548 428.262 174.54 98.882-174.54-98.882Z" fill="#BFC9D1"/><path d="m547.548 428.262 174.54 98.882" stroke="#BFC9D1" stroke-dasharray="4.47"/></g><g><path fill-rule="evenodd" clip-rule="evenodd" d="m565.764 418.323 174.54 98.882-174.54-98.882Z" fill="#BFC9D1"/><path d="m565.764 418.323 174.54 98.882" stroke="#BFC9D1" stroke-dasharray="4.47"/></g></g></svg>