<svg width="838" height="657" xmlns="http://www.w3.org/2000/svg"><defs><linearGradient x1="-.08605769%" y1="50.03125%" x2="99.9715144%" y2="50.03125%" id="a"><stop stop-color="#00B0E3" offset="0%"/><stop stop-color="#9AD6ED" offset="100%"/></linearGradient></defs><g fill="none" fill-rule="evenodd"><path d="M338.118503 293.011198c0 3.577446-2.352092 7.043097-7.056274 9.726182l-52.042616 30.801509c-9.52037 5.366169-24.976971 5.366169-34.497341 0L97.7882726 249.7620141c-4.70418284-2.6830845-7.05627426-6.2605305-7.05627426-9.7261813 0-3.577446 2.35209142-7.0430968 7.05627426-9.7261813l52.0426154-30.8015091c9.5203701-5.366169 24.9769708-5.366169 34.4973409 0L331.062229 283.285017c4.704182 2.571289 7.056274 6.148735 7.056274 9.726181z" fill="#000" fill-rule="nonzero" opacity=".08"/><path d="M248.859181 102.271198c0 3.577446-2.352091 7.043097-7.056274 9.726182l-52.042616 30.801509c-9.52037 5.366169-24.976971 5.366169-34.497341 0L8.52895076 59.0220141c-4.70418285-2.6830845-7.05627427-6.2605305-7.05627427-9.7261813 0-3.577446 2.35209142-7.0430968 7.05627427-9.7261813L60.5715662 8.76814239c9.52037-5.36616902 24.9769708-5.36616902 34.4973408 0l146.734 83.77687471c4.704183 2.5712893 7.056274 6.1487353 7.056274 9.7261809z" stroke="#14B2E2" stroke-width=".8" fill="url(#a)" fill-rule="nonzero" opacity=".60000002" transform="translate(90 153)"/><path d="M248.859181 97.8311984c0 3.5774456-2.352091 7.0430966-7.056274 9.7261816l-52.042616 30.801509c-9.52037 5.366169-24.976971 5.366169-34.497341 0L8.52895076 54.5820141c-4.70418285-2.6830845-7.05627427-6.2605305-7.05627427-9.7261813 0-3.577446 2.35209142-7.0430968 7.05627427-9.7261813L60.5715662 4.32814239c9.52037-5.36616902 24.9769708-5.36616902 34.4973408 0l146.734 83.77687471c4.704183 2.5712893 7.056274 6.1487353 7.056274 9.7261813z" stroke="#14B2E2" stroke-width=".8" fill="url(#a)" fill-rule="nonzero" opacity=".6" transform="translate(90 153)"/><path stroke="#FFF" stroke-width=".8" opacity=".45421782" stroke-dasharray="4" d="M104.813563 198.14l156.135534 88.346172M120.3678043 188.52l156.1355337 88.346172M136.6627237 179.64l156.1355343 88.346172M152.216965 170.02l156.135534 88.346172M168.5118845 161.14l156.1355345 88.3461719"/><path stroke="#000" stroke-width="3.2" opacity=".07561384" d="M111.1006475 205.3130859L152.216965 198.14l4.5424403 16.0530859h32.1587411l9.5174246 18.5 48.144081-8.88v18.5h35.195232l25.605475 7.173086"/><path stroke="#FFF" stroke-width="3.2" opacity=".71609933" style="mix-blend-mode:overlay" d="M111.1006475 197.9130859L152.216965 190.74l4.5424403 16.0530859h32.1587411l9.5174246 18.5 48.144081-8.88v18.5h35.195232l25.605475 7.173086"/></g></svg>