<svg width="914" height="718" fill="none" xmlns="http://www.w3.org/2000/svg"><g fill="#fff" stroke="#1B127D"><path d="M474.343 195.655c0 3.998-2.627 7.871-7.881 10.869l-58.128 34.423c-10.634 5.997-27.898 5.997-38.532 0L205.91 147.321c-5.254-2.999-7.881-6.997-7.881-10.87 0-3.998 2.627-7.871 7.881-10.869l58.128-34.4231c10.634-5.9971 27.898-5.9971 38.532 0l163.892 93.6261c5.254 2.874 7.881 6.872 7.881 10.87Z"/><path d="M474.343 190.693c0 3.998-2.627 7.871-7.881 10.869l-58.128 34.423c-10.634 5.997-27.898 5.997-38.532 0L205.91 142.359c-5.254-2.999-7.881-6.997-7.881-10.87 0-3.998 2.627-7.871 7.881-10.869l58.128-34.4231c10.634-5.9971 27.898-5.9971 38.532 0l163.892 93.6261c5.254 2.874 7.881 6.872 7.881 10.87Z"/></g><path fill-rule="evenodd" clip-rule="evenodd" d="m306.057 126.407-22.958-13.69-22.151 12.884 22.151 14.092 22.958-13.286ZM342.205 147.128l-22.958-13.689-22.151 12.884 22.151 14.093 22.958-13.288ZM377.803 168.099l-22.957-13.689-22.153 12.884 22.153 14.092 22.957-13.287ZM413.952 188.268l-22.957 13.287-22.153-14.092 22.153-12.884 22.957 13.689Z" fill="#BFC9D1"/><mask id="a" style="mask-type:alpha" maskUnits="userSpaceOnUse" x="283" y="13" width="24" height="120"><path fill-rule="evenodd" clip-rule="evenodd" d="m283.099 132.06 22.555-13.031.403-105.3404-22.958 13.2866V132.06Z" fill="#fff"/></mask><g mask="url(#a)"><path d="M283.599 27.2635V131.194l21.556-12.455.399-104.1814-21.955 12.7059Z" fill="#fff" stroke="#1B127D"/></g><mask id="b" style="mask-type:alpha" maskUnits="userSpaceOnUse" x="260" y="0" width="47" height="27"><path fill-rule="evenodd" clip-rule="evenodd" d="M283.101-.00003052 306.057 13.6895l-22.958 13.2866-22.151-14.0925L283.099-.00003052h.002Z" fill="#fff"/></mask><g mask="url(#b)"><path fill-rule="evenodd" clip-rule="evenodd" d="M283.101-.00003052 306.057 13.6895l-22.958 13.2866-22.151-14.0925L283.099-.00003052h.002Z" fill="#ED26B7"/></g><mask id="c" style="mask-type:alpha" maskUnits="userSpaceOnUse" x="260" y="12" width="24" height="121"><path fill-rule="evenodd" clip-rule="evenodd" d="M283.1 26.9752V132.06l-22.152-12.885V12.8837L283.1 26.9752Z" fill="#fff"/></mask><g mask="url(#c)"><path d="M261.448 13.7943V118.888l21.152 12.303V27.2497l-21.152-13.4554Z" fill="#fff" stroke="#1B127D"/></g><mask id="d" style="mask-type:alpha" maskUnits="userSpaceOnUse" x="319" y="53" width="24" height="100"><path fill-rule="evenodd" clip-rule="evenodd" d="m319.247 152.677 22.555-13.03.403-86.3-22.958 13.2874v86.0426Z" fill="#fff"/></mask><g mask="url(#d)"><path d="M319.747 66.9227v84.8883l21.556-12.454.398-85.1406-21.954 12.7063Z" fill="#fff" stroke="#1B127D"/></g><mask id="e" style="mask-type:alpha" maskUnits="userSpaceOnUse" x="297" y="39" width="46" height="28"><path fill-rule="evenodd" clip-rule="evenodd" d="m342.205 53.3469-22.958-13.6886-22.152 12.8837 22.152 14.0924 22.958-13.2875Z" fill="#fff"/></mask><g mask="url(#e)"><path fill-rule="evenodd" clip-rule="evenodd" d="m342.205 53.3469-22.958-13.6886-22.152 12.8837 22.152 14.0924 22.958-13.2875Z" fill="#ED26B7"/></g><mask id="f" style="mask-type:alpha" maskUnits="userSpaceOnUse" x="297" y="52" width="23" height="101"><path d="M297.595 53.4527v86.0543l21.152 12.301V66.9089l-21.152-13.4562Z" fill="#fff" stroke="#fff"/></mask><g mask="url(#f)"><path d="M297.595 53.4527v86.0543l21.152 12.301V66.9089l-21.152-13.4562Z" fill="#fff" stroke="#1B127D"/></g><g><mask id="g" style="mask-type:alpha" maskUnits="userSpaceOnUse" x="354" y="92" width="24" height="82"><path fill-rule="evenodd" clip-rule="evenodd" d="m354.846 173.249 22.555-13.031.403-67.2588-22.958 13.2868v67.003Z" fill="#fff"/></mask><g mask="url(#g)"><path d="M355.346 106.534v65.849l21.556-12.455.396-66.0987-21.952 12.7047Z" fill="#fff" stroke="#1B127D"/></g></g><g><mask id="h" style="mask-type:alpha" maskUnits="userSpaceOnUse" x="332" y="79" width="46" height="28"><path fill-rule="evenodd" clip-rule="evenodd" d="m377.804 92.9592-22.958-13.6895-22.152 12.8846 22.152 14.0917 22.958-13.2868Z" fill="#fff"/></mask><g mask="url(#h)"><path fill-rule="evenodd" clip-rule="evenodd" d="m377.804 92.9592-22.958-13.6895-22.152 12.8846 22.152 14.0917 22.958-13.2868Z" fill="#ED26B7"/></g></g><g><mask id="i" style="mask-type:alpha" maskUnits="userSpaceOnUse" x="332" y="92" width="23" height="82"><path fill-rule="evenodd" clip-rule="evenodd" d="M354.846 106.246v67.003l-22.152-12.884V92.1543l22.152 14.0917Z" fill="#fff"/></mask><g mask="url(#i)"><path d="M333.194 93.0649v67.0121l21.152 12.303v-65.86l-21.152-13.4551Z" fill="#fff" stroke="#1B127D"/></g></g><g><mask id="j" style="mask-type:alpha" maskUnits="userSpaceOnUse" x="368" y="128" width="46" height="28"><path fill-rule="evenodd" clip-rule="evenodd" d="m413.952 142.381-22.957 13.287-22.153-14.091 22.153-12.885 22.957 13.689Z" fill="#fff"/></mask><g mask="url(#j)"><path fill-rule="evenodd" clip-rule="evenodd" d="m413.952 142.381-22.957 13.287-22.153-14.091 22.153-12.885 22.957 13.689Z" fill="#ED26B7"/></g></g><g><mask id="k" style="mask-type:alpha" maskUnits="userSpaceOnUse" x="368" y="141" width="23" height="54"><path fill-rule="evenodd" clip-rule="evenodd" d="M390.994 155.668v38.442l-22.151-12.884v-39.65l22.151 14.092Z" fill="#fff"/></mask><g mask="url(#k)"><path d="M369.343 142.487v38.451l21.151 12.302v-37.298l-21.151-13.455Z" fill="#fff" stroke="#1B127D"/></g></g><g><mask id="l" style="mask-type:alpha" maskUnits="userSpaceOnUse" x="390" y="142" width="24" height="53"><path fill-rule="evenodd" clip-rule="evenodd" d="m413.549 181.078-22.554 13.032v-38.442l22.957-13.287-.403 38.697Z" fill="#fff"/></mask><g mask="url(#l)"><path d="m413.443 143.254-21.948 12.702v37.288l21.557-12.456.391-37.534Z" fill="#fff" stroke="#1B127D"/></g></g></svg>