<svg width="914" height="718" fill="none" xmlns="http://www.w3.org/2000/svg"><path d="M377.736 285.008c0 3.997-2.628 7.869-7.883 10.866l-58.14 34.411c-10.636 5.995-27.904 5.995-38.54 0l-163.927-93.594c-5.256-2.997-7.883-6.994-7.883-10.865 0-3.997 2.627-7.869 7.883-10.866l58.14-34.411c10.636-5.995 27.904-5.995 38.54 0l163.927 93.593c5.255 2.873 7.883 6.87 7.883 10.866Z" fill="#fff" stroke="#1B127D"/><path d="M377.736 280.048c0 3.997-2.628 7.868-7.883 10.866l-58.14 34.41c-10.636 5.995-27.904 5.995-38.54 0l-163.927-93.593c-5.256-2.997-7.883-6.994-7.883-10.866 0-3.996 2.627-7.868 7.883-10.865l58.14-34.411c10.636-5.995 27.904-5.995 38.54 0l163.927 93.593c5.255 2.873 7.883 6.869 7.883 10.866Z" fill="#fff" stroke="#1B127D"/><mask id="a" style="mask-type:alpha" maskUnits="userSpaceOnUse" x="100" y="170" width="279" height="161"><path d="M377.736 280.048c0 3.997-2.628 7.868-7.883 10.866l-58.14 34.41c-10.636 5.995-27.904 5.995-38.54 0l-163.927-93.593c-5.256-2.997-7.883-6.994-7.883-10.866 0-3.996 2.627-7.868 7.883-10.865l58.14-34.411c10.636-5.995 27.904-5.995 38.54 0l163.927 93.593c5.255 2.873 7.883 6.869 7.883 10.866Z" fill="#fff" stroke="#fff"/></mask><g mask="url(#a)"><path d="m116.267 221.183 174.43 98.698M133.643 210.436l174.43 98.697M151.848 200.515l174.43 98.698M169.225 189.768l174.43 98.698M187.429 179.847l174.431 98.698" stroke="#BFC9D1" stroke-dasharray="4.47"/><path d="m123.291 220.929 45.934-8.013 5.074 17.934h35.927l10.633 20.667 53.785-9.92v20.668h39.319l28.606 8.013" stroke="#ED26B7" style="mix-blend-mode:overlay"/></g></svg>