<svg width="68" height="61" viewBox="0 0 68 61" fill="none" xmlns="http://www.w3.org/2000/svg">
<path d="M24.8479 35.6888C30.8031 32.6394 39.8085 32.9186 44.9683 36.2638C45.5105 36.6158 46.0202 37.0187 46.49 37.4667C46.6629 37.2916 46.8289 23.2507 46.9811 23.0742C49.4365 20.181 48.8347 16.6429 44.9683 14.1377C39.8085 10.7856 30.8031 10.5272 24.8479 13.5558C19.8403 16.1031 18.623 20.1653 21.3896 23.377C21.5469 23.5607 21.7132 37.609 21.8876 37.7766C22.757 36.9312 23.7544 36.2278 24.8479 35.6888Z" fill="#1B127D"/>
<path fill-rule="evenodd" clip-rule="evenodd" d="M59.0924 6.83503C63.9547 9.9998 66.59 13.8542 67.0672 17.7997L67.0395 20.2531C67.0429 20.3111 67.0429 20.369 67.0395 20.4265C66.6453 23.7004 64.7847 26.9198 61.5063 29.7481C59.7474 31.2389 57.8123 32.5129 55.7378 33.5459C41.9668 40.5475 21.134 39.9779 9.20979 32.2036C8.37294 31.6546 7.5689 31.0536 6.80281 30.4045C3.21309 27.4055 1.35944 23.9389 1.18652 20.4587V19.3767C1.45627 14.2699 5.30191 9.19942 12.5643 5.4997C26.3353 -1.50882 47.1681 -0.939213 59.0924 6.83503ZM43.5505 25.684C44.8686 25.0482 46.041 24.1641 47.0088 23.0764L46.9812 23.0744C49.4366 20.1813 48.8348 16.6432 44.9546 14.137C39.7948 10.7849 30.7894 10.5056 24.8342 13.5551C19.8404 16.1033 18.6092 20.1646 21.3759 23.3763C21.9689 24.0455 22.6519 24.6289 23.4024 25.1071C28.5761 28.4532 37.5677 28.7107 43.5505 25.684Z" fill="white"/>
<path d="M67.0672 17.7997L67.5629 17.8053L67.5633 17.7726L67.5593 17.7402L67.0672 17.7997ZM59.0924 6.83503L58.8216 7.25029L58.8219 7.2505L59.0924 6.83503ZM67.0395 20.2531L66.5439 20.2476L66.5437 20.2645L66.5446 20.2814L67.0395 20.2531ZM67.0395 20.4265L67.5317 20.4858L67.5336 20.4705L67.5344 20.455L67.0395 20.4265ZM61.5063 29.7481L61.8268 30.1263L61.8301 30.1235L61.5063 29.7481ZM55.7378 33.5459L55.5168 33.1021L55.5131 33.104L55.7378 33.5459ZM9.20979 32.2036L8.93786 32.6181L8.93905 32.6189L9.20979 32.2036ZM6.80281 30.4045L7.12328 30.0263L7.12064 30.024L6.80281 30.4045ZM1.18652 20.4587H0.690802V20.471L0.691413 20.4833L1.18652 20.4587ZM1.18652 19.3767L0.691492 19.3505L0.690802 19.3636V19.3767H1.18652ZM12.5643 5.4997L12.3395 5.0579L12.3393 5.05799L12.5643 5.4997ZM47.0088 23.0764L47.3792 23.4059L48.0494 22.6526L47.0436 22.5819L47.0088 23.0764ZM43.5505 25.684L43.3351 25.2375L43.3267 25.2417L43.5505 25.684ZM46.9812 23.0744L46.6032 22.7537L45.9696 23.5002L46.9464 23.5689L46.9812 23.0744ZM44.9546 14.137L44.6845 14.5527L44.6856 14.5535L44.9546 14.137ZM24.8342 13.5551L25.0595 13.9966L25.0601 13.9963L24.8342 13.5551ZM21.3759 23.3763L21.0003 23.6998L21.0048 23.705L21.3759 23.3763ZM23.4024 25.1071L23.6717 24.6908L23.6688 24.689L23.4024 25.1071ZM67.5593 17.7402C67.0592 13.6058 64.3061 9.63702 59.3628 6.41956L58.8219 7.2505C63.6034 10.3626 66.1207 14.1027 66.5751 17.8592L67.5593 17.7402ZM67.5352 20.2587L67.5629 17.8053L66.5715 17.7941L66.5439 20.2476L67.5352 20.2587ZM67.5344 20.455C67.5389 20.3785 67.5388 20.3016 67.5345 20.2249L66.5446 20.2814C66.5469 20.3206 66.5469 20.3596 66.5446 20.3981L67.5344 20.455ZM61.8301 30.1235C65.1776 27.2356 67.1192 23.9111 67.5317 20.4858L66.5474 20.3673C66.1714 23.4897 64.3919 26.6039 61.1824 29.3728L61.8301 30.1235ZM55.9588 33.9897C58.0688 32.939 60.0373 31.643 61.8268 30.1263L61.1857 29.37C59.4575 30.8348 57.5558 32.0868 55.5168 33.1022L55.9588 33.9897ZM8.93905 32.6189C14.9989 36.5697 23.2849 38.6705 31.7672 38.9112C40.2523 39.1521 48.9888 37.5335 55.9625 33.9878L55.5131 33.104C48.7159 36.56 40.1504 38.1573 31.7953 37.9202C23.4375 37.683 15.345 35.6118 9.48053 31.7884L8.93905 32.6189ZM6.48234 30.7827C7.26381 31.4448 8.08405 32.058 8.93786 32.6181L9.48172 31.7892C8.66183 31.2513 7.874 30.6624 7.12327 30.0263L6.48234 30.7827ZM0.691413 20.4833C0.87275 24.133 2.81587 27.7196 6.48498 30.7849L7.12064 30.024C3.61031 27.0914 1.84613 23.7448 1.68163 20.4341L0.691413 20.4833ZM0.690802 19.3767V20.4587H1.68224V19.3767H0.690802ZM12.3393 5.05799C4.99341 8.80023 0.97427 13.9971 0.691492 19.3505L1.68155 19.4028C1.93827 14.5427 5.6104 9.59861 12.7894 5.94141L12.3393 5.05799ZM59.3631 6.41977C53.3033 2.46896 45.0173 0.368186 36.5349 0.128307C28.0497 -0.111649 19.3133 1.50872 12.3395 5.0579L12.7892 5.9415C19.5864 2.48217 28.1518 0.883077 36.5069 1.11935C44.8647 1.35571 52.9572 3.42686 58.8216 7.25029L59.3631 6.41977ZM46.6385 22.7469C45.7143 23.7855 44.5946 24.63 43.3351 25.2375L43.7659 26.1305C45.1425 25.4664 46.3677 24.5427 47.3792 23.4059L46.6385 22.7469ZM46.9464 23.5689L46.9741 23.5709L47.0436 22.5819L47.0159 22.5799L46.9464 23.5689ZM44.6856 14.5535C46.5503 15.7578 47.565 17.169 47.8587 18.5628C48.1501 19.9464 47.7502 21.4021 46.6032 22.7537L47.3591 23.3952C48.6675 21.8536 49.1944 20.0937 48.8288 18.3584C48.4654 16.6333 47.2391 15.0224 45.2236 13.7206L44.6856 14.5535ZM25.0601 13.9963C27.9486 12.5172 31.6024 11.8352 35.178 11.941C38.7562 12.0468 42.2015 12.9396 44.6845 14.5527L45.2247 13.7213C42.5479 11.9823 38.9106 11.0595 35.2073 10.95C31.5015 10.8404 27.675 11.5435 24.6082 13.1138L25.0601 13.9963ZM21.7515 23.0527C20.4683 21.5632 20.1411 19.9251 20.6645 18.3755C21.1959 16.8024 22.6343 15.2342 25.0595 13.9966L24.6089 13.1135C22.0403 14.4243 20.3662 16.1608 19.7252 18.0582C19.0763 19.9793 19.5168 21.9777 21.0003 23.6998L21.7515 23.0527ZM23.6688 24.689C22.9573 24.2357 22.3095 23.6824 21.7469 23.0475L21.0048 23.705C21.6282 24.4086 22.3465 25.0221 23.1361 25.5251L23.6688 24.689ZM43.3267 25.2417C40.4232 26.7106 36.7647 27.3923 33.1872 27.2899C29.607 27.1873 26.1616 26.3012 23.6717 24.6908L23.1332 25.5233C25.817 27.2591 29.4541 28.1748 33.1588 28.2809C36.8663 28.3871 40.695 27.6842 43.7743 26.1264L43.3267 25.2417Z" fill="#1B127D"/>
<path d="M55.7516 54.6672C41.9807 61.6758 21.1686 61.0799 9.22362 53.3319C4.05692 49.9724 1.40785 45.8256 1.18652 41.6276V20.4587C1.35944 23.9389 3.21309 27.4055 6.80281 30.4045C7.5689 31.0536 8.37294 31.6546 9.20979 32.2036C21.134 39.9779 41.9668 40.5475 55.7378 33.5459C57.8123 32.5129 59.7474 31.2389 61.5063 29.7481C64.8124 26.9009 66.6799 23.6473 67.0395 20.3572L67.0949 39.5879C67.4476 45.0922 63.5882 50.6819 55.7516 54.6672Z" fill="white" stroke="#1B127D" stroke-width="0.991443"/>
<path d="M46.2618 23.8145L61.2778 30.4188V51.227C61.2778 51.227 52.6251 59.5733 35.1883 59.5615C34.9117 54.0972 34.3445 38.7702 34.3445 38.7702L30.5127 27.5627C30.5127 27.5627 39.7533 29.2041 46.2618 23.8145Z" fill="#ED26B7"/>
<path d="M34.251 38.4391C34.251 38.4391 51.3769 38.0457 61.2775 30.0671V51.2689C61.2775 51.2689 50.8272 60.2732 34.251 59.5572C34.251 52.038 34.251 38.4391 34.251 38.4391Z" fill="#ED26B7"/>
<path d="M67.0672 17.7997L67.5629 17.8053L67.5633 17.7726L67.5593 17.7402L67.0672 17.7997ZM59.0924 6.83503L58.8216 7.25029L58.8219 7.2505L59.0924 6.83503ZM67.0395 20.2531L66.5439 20.2476L66.5437 20.2645L66.5446 20.2813L67.0395 20.2531ZM67.0395 20.4265L67.5317 20.4858L67.5336 20.4704L67.5345 20.455L67.0395 20.4265ZM61.5063 29.7481L61.8268 30.1263L61.8301 30.1235L61.5063 29.7481ZM55.7378 33.5459L55.5168 33.1021L55.5131 33.104L55.7378 33.5459ZM9.20979 32.2036L8.93786 32.6181L8.93905 32.6189L9.20979 32.2036ZM6.80281 30.4045L7.12328 30.0263L7.12064 30.024L6.80281 30.4045ZM1.18652 20.4587H0.690802V20.471L0.691413 20.4833L1.18652 20.4587ZM1.18652 19.3767L0.691492 19.3505L0.690802 19.3636V19.3767H1.18652ZM12.5643 5.4997L12.3395 5.05791L12.3393 5.05799L12.5643 5.4997ZM47.0088 23.0764L47.3792 23.4059L48.0494 22.6526L47.0436 22.5819L47.0088 23.0764ZM43.5505 25.684L43.3351 25.2375L43.3267 25.2417L43.5505 25.684ZM46.9812 23.0744L46.6032 22.7537L45.9696 23.5002L46.9464 23.5689L46.9812 23.0744ZM44.9546 14.137L44.6845 14.5527L44.6856 14.5535L44.9546 14.137ZM24.8342 13.5551L25.0595 13.9966L25.0601 13.9963L24.8342 13.5551ZM21.3759 23.3763L21.0003 23.6998L21.0048 23.705L21.3759 23.3763ZM23.4024 25.1071L23.6717 24.6908L23.6688 24.689L23.4024 25.1071ZM67.5593 17.7402C67.0592 13.6058 64.3061 9.63702 59.3628 6.41956L58.8219 7.2505C63.6034 10.3626 66.1207 14.1027 66.5751 17.8592L67.5593 17.7402ZM67.5352 20.2587L67.5629 17.8053L66.5715 17.7941L66.5439 20.2476L67.5352 20.2587ZM67.5345 20.455C67.5388 20.3784 67.5388 20.3016 67.5345 20.2249L66.5446 20.2813C66.5469 20.3206 66.5469 20.3596 66.5446 20.3981L67.5345 20.455ZM61.8301 30.1235C65.1776 27.2356 67.1192 23.9111 67.5317 20.4858L66.5474 20.3673C66.1714 23.4897 64.3919 26.6039 61.1824 29.3728L61.8301 30.1235ZM55.9588 33.9897C58.0688 32.939 60.0373 31.643 61.8268 30.1263L61.1857 29.37C59.4575 30.8348 57.5558 32.0868 55.5168 33.1022L55.9588 33.9897ZM8.93905 32.6189C14.9989 36.5697 23.2849 38.6705 31.7672 38.9112C40.2523 39.1521 48.9888 37.5335 55.9625 33.9878L55.5131 33.104C48.7159 36.56 40.1504 38.1573 31.7953 37.9202C23.4375 37.683 15.345 35.6118 9.48053 31.7884L8.93905 32.6189ZM6.48234 30.7827C7.26381 31.4448 8.08405 32.058 8.93786 32.6181L9.48172 31.7892C8.66183 31.2513 7.874 30.6624 7.12327 30.0263L6.48234 30.7827ZM0.691413 20.4833C0.87275 24.133 2.81587 27.7196 6.48498 30.7849L7.12064 30.024C3.61031 27.0914 1.84613 23.7448 1.68163 20.4341L0.691413 20.4833ZM0.690802 19.3767V20.4587H1.68224V19.3767H0.690802ZM12.3393 5.05799C4.99341 8.80023 0.97427 13.9971 0.691492 19.3505L1.68155 19.4028C1.93827 14.5427 5.6104 9.5986 12.7894 5.94141L12.3393 5.05799ZM59.3631 6.41977C53.3033 2.46896 45.0173 0.368186 36.5349 0.128307C28.0497 -0.111649 19.3133 1.50872 12.3395 5.05791L12.7892 5.9415C19.5864 2.48217 28.1518 0.883077 36.5069 1.11935C44.8647 1.35571 52.9572 3.42686 58.8216 7.25029L59.3631 6.41977ZM46.6385 22.7469C45.7143 23.7855 44.5946 24.63 43.3351 25.2375L43.7659 26.1305C45.1425 25.4664 46.3677 24.5427 47.3792 23.4059L46.6385 22.7469ZM46.9464 23.5689L46.9741 23.5709L47.0436 22.5819L47.0159 22.5799L46.9464 23.5689ZM44.6856 14.5535C46.5503 15.7578 47.565 17.169 47.8587 18.5628C48.1501 19.9464 47.7502 21.4021 46.6032 22.7537L47.3591 23.3952C48.6675 21.8536 49.1944 20.0937 48.8288 18.3584C48.4654 16.6333 47.2391 15.0224 45.2236 13.7206L44.6856 14.5535ZM25.0601 13.9963C27.9486 12.5172 31.6024 11.8352 35.178 11.941C38.7562 12.0468 42.2015 12.9396 44.6845 14.5527L45.2247 13.7213C42.5479 11.9823 38.9106 11.0595 35.2073 10.95C31.5015 10.8404 27.675 11.5435 24.6082 13.1138L25.0601 13.9963ZM21.7515 23.0527C20.4683 21.5632 20.1411 19.9251 20.6645 18.3755C21.1959 16.8024 22.6343 15.2342 25.0595 13.9966L24.6089 13.1135C22.0403 14.4243 20.3662 16.1608 19.7252 18.0582C19.0763 19.9793 19.5168 21.9777 21.0003 23.6998L21.7515 23.0527ZM23.6688 24.689C22.9573 24.2357 22.3095 23.6824 21.7469 23.0475L21.0048 23.705C21.6282 24.4086 22.3465 25.0221 23.1361 25.5251L23.6688 24.689ZM43.3267 25.2417C40.4232 26.7106 36.7647 27.3923 33.1872 27.2898C29.607 27.1873 26.1616 26.3012 23.6717 24.6908L23.1332 25.5233C25.817 27.2591 29.4541 28.1748 33.1588 28.2809C36.8663 28.3871 40.695 27.6842 43.7743 26.1264L43.3267 25.2417Z" fill="#1B127D"/>
</svg>
