<svg width="838" height="657" xmlns="http://www.w3.org/2000/svg" xmlns:xlink="http://www.w3.org/1999/xlink"><defs><linearGradient x1="-.08605769%" y1="50.03125%" x2="99.9715144%" y2="50.03125%" id="a"><stop stop-color="#00B0E3" offset="0%"/><stop stop-color="#9AD6ED" offset="100%"/></linearGradient><path d="M339.444142 148.494778c0 3.583363-2.350716 7.054746-7.052147 9.742268l-55.596286 29.748912c-9.514801 5.375045-24.962359 5.375045-34.47716 0L7.05214638 53.2647319C2.35071546 50.5772096 0 46.9938465 0 43.5224635c0-3.5833631 2.35071546-7.0547461 7.05214638-9.7422684L62.6484327 4.03128348c9.5148006-5.37504464 24.9623594-5.37504464 34.4771601 0L332.391995 138.752509c4.701431 2.575543 7.052147 6.158906 7.052147 9.742269z" id="b"/></defs><g fill="none" fill-rule="evenodd"><g transform="translate(270 276)"><path d="M339.444142 152.943054c0 3.583363-2.350716 7.054746-7.052147 9.742268l-55.596286 29.748912c-9.514801 5.375044-24.962359 5.375044-34.47716 0L7.05214638 57.7130078C2.35071546 55.0254855 0 51.4421224 0 47.9707394c0-3.5833631 2.35071546-7.0547461 7.05214638-9.7422684L62.6484327 8.47955934c9.5148006-5.37504464 24.9623594-5.37504464 34.4771601 0L332.391995 143.200785c4.701431 2.575543 7.052147 6.158906 7.052147 9.742269z" stroke="#14B2E2" stroke-width=".8" fill="url(#a)" fill-rule="nonzero" opacity=".60000002"/><mask id="c" fill="#fff"><use xlink:href="#b"/></mask><use stroke="#14B2E2" stroke-width=".8" fill="url(#a)" fill-rule="nonzero" opacity=".6" xlink:href="#b"/><path stroke="#FFF" stroke-width=".8" opacity=".45421782" stroke-dasharray="4" mask="url(#c)" d="M17.7874659 47.4482759L174.021287 135.959119M33.3514986 37.8103448L189.58532 126.321188M49.6566757 28.9137931L205.890497 117.424636M65.2207084 19.2758621L221.45453 107.786705M81.5258856 10.3793103L237.759707 98.8901536M173.427793 135.672414l156.233821 88.510843M188.991826 126.034483l156.233821 88.510843M205.297003 117.137931l156.233821 88.510843M220.861035 107.5l156.233822 88.510843M237.166213 98.6034483l156.233821 88.5108427"/></g><g opacity=".57161458"><path d="M609.444142 446.736157c0 3.583364-2.350716 7.054747-7.052147 9.742269l-55.596286 29.748912c-9.514801 5.375044-24.962359 5.375044-34.47716 0L277.05214638 351.5061116C272.35071546 348.8185893 270 345.2352262 270 341.7638432c0-3.5833631 2.35071546-7.0547461 7.05214638-9.7422684l55.59628632-29.7489117c9.5148006-5.3750446 24.9623594-5.3750446 34.4771601 0L602.391995 436.993889c4.701431 2.575542 7.052147 6.158905 7.052147 9.742268z" fill="#000" fill-rule="nonzero" opacity=".12"/><path d="M352.4557004 288.50671849l67.5503426 38.85727381c3.034005 1.7452637 3.560289 4.4626947 1.175487 6.069552-2.384802 1.6068573-6.777612 1.4946568-9.811617-.2506069l-67.5503433-38.85727385c-3.034005-1.74526371-3.5602883-4.46269472-1.1754866-6.06955203 2.3848016-1.6068573 6.7776124-1.49465674 9.8116173.25060697zM319.1042018 306.2998219l25.9425216 14.418107c3.034005 1.7452638 3.5602883 4.4626948 1.1754866 6.0695521-2.3848016 1.6068573-6.7776124 1.4946567-9.8116174-.250607l-25.9425216-14.418107c-3.0340049-1.7452637-3.5602882-4.4626947-1.1754866-6.069552 2.3848017-1.6068573 6.7776124-1.4946568 9.8116174.2506069zM336.1505233 297.4032702l45.8622257 26.3250642c3.034005 1.7452637 3.560288 4.4626947 1.175486 6.069552-2.384801 1.6068573-6.777612 1.4946568-9.811617-.250607l-45.8622254-26.3250641c-3.034005-1.7452637-3.5602883-4.4626947-1.1754866-6.0695521 2.3848016-1.60685726 6.7776123-1.4946567 9.8116173.250607zM302.0578803 315.1963737l52.2713481 29.4309361c3.034005 1.7452638 3.5602883 4.4626948 1.1754866 6.0695521-2.3848017 1.6068573-6.7776124 1.4946567-9.8116174-.250607l-52.2713481-29.4309362c-3.034005-1.7452637-3.5602883-4.4626947-1.1754866-6.069552 2.3848017-1.6068573 6.7776124-1.4946568 9.8116174.250607zM437.687308 355.9722357l8.636131 5.0409603c3.034005 1.7452637 3.560288 4.4626947 1.175486 6.069552-2.384801 1.6068573-6.777612 1.4946568-9.811617-.2506069l-8.636131-5.0409603c-3.034005-1.7452637-3.560288-4.4626947-1.175486-6.069552 2.384801-1.6068573 6.777612-1.4946568 9.811617.2506069zM510.319461 378.9549944l21.26246 11.8202816c3.034005 1.745264 3.560289 4.462695 1.175487 6.069552-2.384802 1.606857-6.777612 1.494657-9.811617-.250607l-21.262461-11.8202816c-3.034005-1.7452637-3.560288-4.4626947-1.175487-6.069552 2.384802-1.6068573 6.777613-1.4946568 9.811618.250607zM495.496572 390.075684l8.636131 5.04096c3.034005 1.745264 3.560288 4.462695 1.175487 6.069552-2.384802 1.606858-6.777613 1.494657-9.811618-.250607l-8.63613-5.04096c-3.034005-1.745264-3.560289-4.462695-1.175487-6.069552 2.384802-1.606857 6.777612-1.494657 9.811617.250607zM482.155973 400.454994l8.636131 5.040961c3.034005 1.745263 3.560288 4.462694 1.175486 6.069552-2.384801 1.606857-6.777612 1.494656-9.811617-.250607l-8.636131-5.040961c-3.034005-1.745263-3.560288-4.462694-1.175486-6.069552 2.384801-1.606857 6.777612-1.494656 9.811617.250607zM420.640987 364.8687875l6.412697 3.5582016c3.034005 1.7452637 3.560288 4.4626947 1.175487 6.069552-2.384802 1.6068574-6.777613 1.4946568-9.811618-.2506069l-6.412697-3.5582017c-3.034005-1.7452637-3.560288-4.4626947-1.175487-6.069552 2.384802-1.6068573 6.777613-1.4946568 9.811618.250607zM458.439352 367.8343047l.859276.5566013c3.034005 1.7452637 3.560288 4.4626947 1.175486 6.069552-2.384801 1.6068573-6.777612 1.4946567-9.811617-.250607l-.859276-.5566012c-3.034005-1.7452638-3.560288-4.4626948-1.175487-6.0695521 2.384802-1.6068573 6.777613-1.4946567 9.811618.250607zM403.594665 373.7653392l3.222398 1.9050573c3.034005 1.7452637 3.560288 4.4626947 1.175486 6.069552-2.384801 1.6068573-6.777612 1.4946567-9.811617-.250607l-3.222398-1.9050573c-3.034005-1.7452637-3.560288-4.4626947-1.175486-6.069552 2.384801-1.6068573 6.777612-1.4946567 9.811617.250607zM453.992485 347.075684l.859276.5566013c3.034005 1.7452637 3.560289 4.4626947 1.175487 6.069552-2.384802 1.6068573-6.777612 1.4946567-9.811617-.250607l-.859277-.5566012c-3.034005-1.7452637-3.560288-4.4626948-1.175486-6.0695521 2.384801-1.6068573 6.777612-1.4946567 9.811617.250607zM581.469324 419.730856l.859277.556602c3.034005 1.745263 3.560288 4.462694 1.175486 6.069552-2.384801 1.606857-6.777612 1.494656-9.811617-.250607l-.859276-.556602c-3.034005-1.745263-3.560289-4.462694-1.175487-6.069552 2.384802-1.606857 6.777612-1.494656 9.811617.250607zM548.85897 438.265339l.859276.556601c3.034005 1.745264 3.560289 4.462695 1.175487 6.069552-2.384802 1.606858-6.777612 1.494657-9.811617-.250607l-.859277-.556601c-3.034005-1.745263-3.560288-4.462694-1.175486-6.069552 2.384801-1.606857 6.777612-1.494657 9.811617.250607zM532.553793 447.161891l.859276.556601c3.034005 1.745264 3.560289 4.462695 1.175487 6.069552-2.384802 1.606857-6.777613 1.494657-9.811618-.250607l-.859276-.556601c-3.034005-1.745264-3.560288-4.462695-1.175486-6.069552 2.384801-1.606857 6.777612-1.494657 9.811617.250607z" fill="#FFF"/><path d="M565.164147 429.368787l.859276.556602c3.034005 1.745263 3.560289 4.462694 1.175487 6.069552-2.384802 1.606857-6.777612 1.494656-9.811617-.250607l-.859276-.556601c-3.034005-1.745264-3.560289-4.462695-1.175487-6.069553 2.384802-1.606857 6.777612-1.494656 9.811617.250607z" fill="#FFA446"/><path d="M468.074229 410.834305l.859276.556601c3.034005 1.745264 3.560288 4.462695 1.175487 6.069552-2.384802 1.606857-6.777613 1.494657-9.811618-.250607l-.859276-.556601c-3.034005-1.745264-3.560288-4.462695-1.175486-6.069552 2.384801-1.606858 6.777612-1.494657 9.811617.250607z" fill="#FFF"/></g></g></svg>