<svg width="838" height="657" xmlns="http://www.w3.org/2000/svg" xmlns:xlink="http://www.w3.org/1999/xlink"><defs><linearGradient x1="-.08605769%" y1="50.03125%" x2="99.9715144%" y2="50.03125%" id="a"><stop stop-color="#00B0E3" offset="0%"/><stop stop-color="#9AD6ED" offset="100%"/></linearGradient><linearGradient x1=".00025843%" y1="50.0001488%" x2="99.9998793%" y2="50.0001488%" id="c"><stop stop-color="#14B1E2" offset="0%"/><stop stop-color="#1070B1" offset="100%"/></linearGradient><linearGradient x1=".00013152%" y1="49.9987887%" x2="100.001036%" y2="49.9987887%" id="f"><stop stop-color="#14B1E2" offset="0%"/><stop stop-color="#9CEBFF" offset="100%"/></linearGradient><linearGradient x1="-.00011764%" y1="50.0000248%" x2="100.002116%" y2="50.0000248%" id="i"><stop stop-color="#045D7E" offset="0%"/><stop stop-color="#1070B1" offset="100%"/></linearGradient><linearGradient x1=".00052405%" y1="50.0003781%" x2="100.000145%" y2="50.0003781%" id="l"><stop stop-color="#14B1E2" offset="0%"/><stop stop-color="#1070B1" offset="100%"/></linearGradient><linearGradient x1=".0002667%" y1="49.9988054%" x2="99.9992452%" y2="49.9988054%" id="o"><stop stop-color="#14B1E2" offset="0%"/><stop stop-color="#9CEBFF" offset="100%"/></linearGradient><linearGradient x1=".00015763%" y1="50.0002353%" x2="99.9984703%" y2="50.0002353%" id="r"><stop stop-color="#045D7E" offset="0%"/><stop stop-color="#1070B1" offset="100%"/></linearGradient><linearGradient x1="-.00028037%" y1="50.0000335%" x2="99.9993405%" y2="50.0000335%" id="u"><stop stop-color="#14B1E2" offset="0%"/><stop stop-color="#1070B1" offset="100%"/></linearGradient><linearGradient x1="-.00014269%" y1="50.0015702%" x2="99.9988358%" y2="50.0015702%" id="x"><stop stop-color="#14B1E2" offset="0%"/><stop stop-color="#9CEBFF" offset="100%"/></linearGradient><linearGradient x1="-.00069093%" y1="49.9998606%" x2="99.9976218%" y2="49.9998606%" id="A"><stop stop-color="#045D7E" offset="0%"/><stop stop-color="#1070B1" offset="100%"/></linearGradient><linearGradient x1="0%" y1="50.0011311%" x2="100.000904%" y2="50.0011311%" id="D"><stop stop-color="#14B1E2" offset="0%"/><stop stop-color="#9CEBFF" offset="100%"/></linearGradient><linearGradient x1="-.00039293%" y1="50.0001408%" x2="100.001841%" y2="50.0001408%" id="G"><stop stop-color="#045D7E" offset="0%"/><stop stop-color="#1070B1" offset="100%"/></linearGradient><linearGradient x1="0%" y1="49.9995807%" x2="100.003405%" y2="49.9995807%" id="J"><stop stop-color="#14B1E2" offset="0%"/><stop stop-color="#1070B1" offset="100%"/></linearGradient><path id="b" d="M20.7122828 105.96015L.52328877 94.2956182.16250721.00388636 20.7122828 11.8969364z"/><path id="e" d="M20.7107277.03186818L.16250721 12.2855727l20.54977559 11.89305 19.8282125-12.6143591L20.7130604.03186818z"/><path id="h" d="M.49607465 12.6742091v94.0632139L20.3242871 95.20425V.06062727z"/><path id="k" d="M21.0124158 89.2822091L.82342171 77.6184545.46264015.36998182 21.0124158 12.2638091z"/><path id="n" d="M.46264015 12.8063455L21.0124158.55341818l19.82899 11.53239542-19.82899 12.6143591z"/><path id="q" d="M.01866112 13.0410818v77.0184L19.8476512 78.5278636V.42672273z"/><path id="t" d="M21.0271891 71.9420318L.8381951 60.2775.47741352.07306364 21.0271891 11.9661136z"/><path id="w" d="M.47741353 12.5094273L21.0271891.25572273 40.8561792 11.7888955 21.0271891 24.4024773z"/><path id="z" d="M.0334345 12.7433864v59.9759181l19.82899-11.5331727V.12980455z"/><path id="C" d="M0 12.4433591l20.5489981 11.89305 19.82899-12.6128046L20.5489981.18965454z"/><path id="F" d="M.33356744 12.6773182v34.4098636L20.1617799 35.5547864V.06373636z"/><path id="I" d="M.36078156 34.6453773L20.5489981 46.3106864V11.9000455L0 .00699545z"/></defs><g fill="none" fill-rule="evenodd"><g fill-rule="nonzero"><path d="M247.333829 102.003474c0 3.578701-2.351591 7.045568-7.054772 9.729595l-52.031534 30.81232c-9.518343 5.368053-24.971652 5.368053-34.489995 0L7.05477179 58.7391087C2.3515906 56.0550825 0 52.4763808 0 49.0095135c0-3.5787017 2.3515906-7.045569 7.05477179-9.7295952L59.0863059 8.46759785c9.5183429-5.36805254 24.9716525-5.36805254 34.4899954 0L240.279057 92.2738783c4.703181 2.5721918 7.054772 6.1508935 7.054772 9.7295957z" stroke="#14B2E2" stroke-width=".8" fill="url(#a)" opacity=".60000002" transform="translate(178 73.285714)"/><path d="M426.806192 239.255147c0 3.578702-2.351591 7.045569-7.054772 9.729596l-52.031534 30.81232c-9.518343 5.368053-24.971653 5.368053-34.489995 0l-146.70275629-83.80628c-4.70318119-2.684027-7.05477179-6.262728-7.05477179-9.729596 0-3.578701 2.3515906-7.045569 7.05477179-9.729595l52.03153409-30.8123203c9.5183429-5.3680526 24.9716525-5.3680526 34.4899954 0L419.75142 229.525552c4.703181 2.572192 7.054772 6.150894 7.054772 9.729595z" fill="#000" opacity=".04"/><path d="M247.333829 97.5619151c0 3.5787019-2.351591 7.0455689-7.054772 9.7295949l-52.031534 30.812321c-9.518343 5.368052-24.971652 5.368052-34.489995 0L7.05477179 54.2975503C2.3515906 51.613524 0 48.0348223 0 44.5679551c0-3.5787017 2.3515906-7.045569 7.05477179-9.7295953L59.0863059 4.02603941c9.5183429-5.36805255 24.9716525-5.36805255 34.4899954 0L240.279057 87.8323198c4.703181 2.5721919 7.054772 6.1508936 7.054772 9.7295953z" stroke="#14B2E2" stroke-width=".8" fill="url(#a)" opacity=".6" transform="translate(178 73.285714)"/></g><g opacity=".76542504"><path fill-opacity=".2" fill="#000" d="M274.697489 113.304289l-20.549776-12.253704-19.828212 11.532395 19.828212 12.614359zM307.0540744 131.852581l-20.5497756-12.253704-19.8282128 11.533173 19.8282128 12.614359zM338.919095 150.624029l-20.5497756-12.253705-19.82899 11.532396 19.82899 12.614359zM371.275836 168.677587l-20.5489981 11.89305-19.82899-12.613582 19.82899-11.533173z"/><g transform="matrix(-1 0 0 1 274.860074 12.404495)"><mask id="d" fill="#fff"><use xlink:href="#b"/></mask><path fill="url(#c)" mask="url(#d)" d="M20.7122828 105.96015L.52328877 94.2956182.16250721.00388636 20.7122828 11.8969364z"/></g><g transform="matrix(-1 0 0 1 274.860074 .123586)"><mask id="g" fill="#fff"><use xlink:href="#e"/></mask><path fill="url(#f)" mask="url(#g)" d="M20.7107277.03186818L.16250721 12.2855727l20.54977559 11.89305 19.8282125-12.6143591L20.7130604.03186818z"/></g><g transform="matrix(-1 0 0 1 254.643866 11.627223)"><mask id="j" fill="#fff"><use xlink:href="#h"/></mask><path fill="url(#i)" mask="url(#j)" d="M.49607465 12.6742091v94.0632139L20.3242871 95.20425V.06062727z"/></g><g transform="matrix(-1 0 0 1 307.517026 47.537223)"><mask id="m" fill="#fff"><use xlink:href="#k"/></mask><path fill="url(#l)" mask="url(#m)" d="M21.0124158 89.2822091L.82342171 77.6184545.46264015.36998182 21.0124158 12.2638091z"/></g><g transform="matrix(-1 0 0 1 307.517026 35.100859)"><mask id="p" fill="#fff"><use xlink:href="#n"/></mask><path fill="url(#o)" mask="url(#p)" d="M.46264015 12.8063455L21.0124158.55341818l19.82899 11.53239542-19.82899 12.6143591z"/></g><g transform="matrix(-1 0 0 1 286.523271 46.75995)"><mask id="s" fill="#fff"><use xlink:href="#q"/></mask><path fill="url(#r)" mask="url(#s)" d="M.01866112 13.0410818v77.0184L19.8476512 78.5278636V.42672273z"/></g><g transform="matrix(-1 0 0 1 339.396431 83.291768)"><mask id="v" fill="#fff"><use xlink:href="#t"/></mask><path fill="url(#u)" mask="url(#v)" d="M21.0271891 71.9420318L.8381951 60.2775.47741352.07306364 21.0271891 11.9661136z"/></g><g transform="matrix(-1 0 0 1 339.396431 70.855405)"><mask id="y" fill="#fff"><use xlink:href="#w"/></mask><path fill="url(#x)" mask="url(#y)" d="M.47741353 12.5094273L21.0271891.25572273 40.8561792 11.7888955 21.0271891 24.4024773z"/></g><g transform="matrix(-1 0 0 1 318.402676 82.514495)"><mask id="B" fill="#fff"><use xlink:href="#z"/></mask><path fill="url(#A)" mask="url(#B)" d="M.0334345 12.7433864v59.9759181l19.82899-11.5331727V.12980455z"/></g><g transform="matrix(-1 0 0 1 371.275836 115.15995)"><mask id="E" fill="#fff"><use xlink:href="#C"/></mask><path fill="url(#D)" mask="url(#E)" d="M0 12.4433591l20.5489981 11.89305 19.82899-12.6128046L20.5489981.18965454z"/></g><g transform="matrix(-1 0 0 1 351.059628 126.819041)"><mask id="H" fill="#fff"><use xlink:href="#F"/></mask><path fill="url(#G)" mask="url(#H)" d="M.33356744 12.6773182v34.4098636L20.1617799 35.5547864V.06373636z"/></g><g transform="matrix(-1 0 0 1 371.275836 127.596314)"><mask id="K" fill="#fff"><use xlink:href="#I"/></mask><path fill="url(#J)" mask="url(#K)" d="M.36078156 34.6453773L20.5489981 46.3106864V11.9000455L0 .00699545z"/></g></g></g></svg>