<svg width="838" height="657" xmlns="http://www.w3.org/2000/svg"><defs><linearGradient x1="7.89736092%" y1="47.502541%" x2="87.0544407%" y2="50.6245257%" id="a"><stop stop-color="#7FC1D5" offset="0%"/><stop stop-color="#B0BECA" offset="100%"/></linearGradient><linearGradient x1="33.9161858%" y1="48.4472539%" x2="87.0544407%" y2="50.6591122%" id="b"><stop stop-color="#CCD7E1" offset="0%"/><stop stop-color="#ACCEEE" offset="36.8471372%"/><stop stop-color="#AAC6E1" offset="44.2972522%"/><stop stop-color="#698094" offset="100%"/></linearGradient><linearGradient x1="7.89736092%" y1="47.5114074%" x2="87.0544407%" y2="50.6223085%" id="c"><stop stop-color="#A5BAD0" offset="0%"/><stop stop-color="#8195A5" offset="100%"/></linearGradient><linearGradient x1="50%" y1="0%" x2="50%" y2="100%" id="d"><stop stop-color="#00D9B9" stop-opacity=".5" offset="0%"/><stop stop-color="#00B786" stop-opacity=".5" offset="100%"/></linearGradient><linearGradient x1="50%" y1="0%" x2="50%" y2="100%" id="e"><stop stop-color="#B4BABF" offset="0%"/><stop stop-color="#585A5C" offset="100%"/></linearGradient><linearGradient x1="-.08605769%" y1="50.03125%" x2="99.9715144%" y2="50.03125%" id="f"><stop stop-color="#00B0E3" offset="0%"/><stop stop-color="#9AD6ED" offset="100%"/></linearGradient><linearGradient x1="-.08605769%" y1="50.03125%" x2="99.9715144%" y2="50.03125%" id="g"><stop stop-color="#00B0E3" offset="0%"/><stop stop-color="#9AD6ED" offset="100%"/></linearGradient><linearGradient x1="50%" y1="0%" x2="50%" y2="100%" id="h"><stop stop-color="#0A6F99" offset="0%"/><stop stop-color="#02285B" offset="100%"/></linearGradient><linearGradient x1="-.08605769%" y1="50.03125%" x2="99.9715144%" y2="50.03125%" id="i"><stop stop-color="#00B0E3" offset="0%"/><stop stop-color="#9AD6ED" offset="100%"/></linearGradient><linearGradient x1="-.02594595%" y1="50.039916%" x2="99.9715315%" y2="50.039916%" id="j"><stop stop-color="#00AFE4" offset="0%"/><stop stop-color="#0092CF" offset="41.03%"/><stop stop-color="#006185" offset="55.07%"/><stop stop-color="#0073B6" offset="100%"/></linearGradient><linearGradient x1="8.11997811%" y1="67.5816524%" x2="100.574153%" y2="50%" id="k"><stop stop-color="#15607F" offset="0%"/><stop stop-color="#1A5C8F" offset="45.9954108%"/><stop stop-color="#134A78" offset="100%"/></linearGradient><linearGradient x1="50%" y1="0%" x2="50%" y2="100%" id="l"><stop stop-color="#00D9B9" stop-opacity=".5" offset="0%"/><stop stop-color="#00B786" stop-opacity=".5" offset="100%"/></linearGradient><linearGradient x1="50%" y1="0%" x2="50%" y2="100%" id="m"><stop stop-color="#00D9B9" stop-opacity=".5" offset="0%"/><stop stop-color="#00B786" stop-opacity=".5" offset="100%"/></linearGradient><linearGradient x1="-.08605769%" y1="49.9794492%" x2="99.9715144%" y2="49.9794492%" id="n"><stop stop-color="#00B0E3" offset="0%"/><stop stop-color="#9AD6ED" offset="100%"/></linearGradient><linearGradient x1=".03409364%" y1="50.0415147%" x2="99.9715486%" y2="50.0415147%" id="o"><stop stop-color="#00AFE4" offset="0%"/><stop stop-color="#0092CF" offset="41.03%"/><stop stop-color="#006185" offset="55.07%"/><stop stop-color="#0073B6" offset="100%"/></linearGradient><linearGradient x1="-.02594595%" y1="49.9870763%" x2="99.9715315%" y2="49.9870763%" id="p"><stop stop-color="#00B0E3" offset="0%"/><stop stop-color="#9AD6ED" offset="100%"/></linearGradient><linearGradient x1=".03409364%" y1="50.0516129%" x2="99.9715486%" y2="50.0516129%" id="q"><stop stop-color="#00AFE4" offset="0%"/><stop stop-color="#0092CF" offset="41.03%"/><stop stop-color="#006185" offset="55.07%"/><stop stop-color="#0073B6" offset="100%"/></linearGradient><linearGradient x1="-.08605769%" y1="50.03125%" x2="99.9715144%" y2="50.03125%" id="r"><stop stop-color="#00B0E3" offset="0%"/><stop stop-color="#9AD6ED" offset="100%"/></linearGradient><linearGradient x1="-.02594595%" y1="50.039916%" x2="99.9715315%" y2="50.039916%" id="s"><stop stop-color="#00AFE4" offset="0%"/><stop stop-color="#0092CF" offset="41.03%"/><stop stop-color="#006185" offset="55.07%"/><stop stop-color="#0073B6" offset="100%"/></linearGradient><linearGradient x1="50%" y1="0%" x2="50%" y2="100%" id="t"><stop stop-color="#00D9B9" stop-opacity=".79856862" offset="0%"/><stop stop-color="#00B786" stop-opacity=".91925262" offset="100%"/></linearGradient><linearGradient x1="0%" y1="50%" x2="100%" y2="50%" id="u"><stop stop-color="#00D2AA" offset="0%"/><stop stop-color="#1070B1" offset="100%"/></linearGradient><linearGradient x1="0%" y1="50.0059787%" x2="100%" y2="50.0059787%" id="v"><stop stop-color="#008D82" offset="0%"/><stop stop-color="#109AB1" offset="100%"/></linearGradient></defs><g fill="none" fill-rule="evenodd"><path d="M86.4501501 572.56678775l17.08661583-10.39177721-6.77749047-4.21875354-17.08661612 10.39177716 6.77749076 4.2187536zm26.69594434-15.56624545l17.08661564-10.39177623-6.77749028-4.21875452-17.08661582 10.39177722 6.77749046 4.21875353zm27.4374773-16.30753079l17.08661663-10.39177604-6.77749145-4.21875373-17.08661564 10.39177624 6.77749047 4.21875353zm27.4374783-16.3075306l17.08661563-10.39177623-6.77749047-4.21875354-17.08661661 10.39177605 6.77749144 4.21875372zm26.69594415-15.56624447l17.08661583-10.39177722-6.77749047-4.21875353-17.08661662 10.39177605 6.77749126 4.2187547zm27.4374773-16.3075308l17.08661583-10.3917772-6.77749047-4.21875354-17.08661583 10.39177722 6.77749047 4.21875353zm27.4374773-16.30753078l17.08661682-10.39177703-6.77749145-4.21875372-17.08661583 10.39177721 6.77749047 4.21875354zm26.69594435-15.56624545l17.08661662-10.39177605-6.77749126-4.2187547-17.08661583 10.39177721 6.77749047 4.21875354zm27.43747829-16.3075306l17.08661563-10.39177624-6.77749027-4.21875451-17.08661681 10.39177702 6.77749145 4.21875372zm27.4374773-16.3075308l17.08661564-10.39177623-6.77749028-4.21875451-17.08661583 10.39177721 6.77749047 4.21875353z" fill="#14B2E2" fill-rule="nonzero" opacity=".71235584"/><path d="M768.9887879 582.56678775l-17.08661583-10.39177721 6.77749047-4.21875354 17.08661583 10.39177722-6.77749047 4.21875353zm-26.69594434-15.56624545l-17.08661662-10.39177604 6.77749126-4.2187547 17.08661582 10.39177721-6.77749046 4.21875353zm-27.43747829-16.3075306l-17.08661564-10.39177623 6.77749145-4.21875373 17.08661564 10.39177624-6.77749145 4.21875372zm-27.4374773-16.3075308l-17.08661564-10.39177622 6.77749047-4.21875354 17.08661661 10.39177605-6.77749144 4.21875372zm-26.69594416-15.56624446l-17.08661583-10.39177722 6.77749047-4.21875353 17.08661564 10.39177624-6.77749028 4.21875451zm-27.4374773-16.3075308l-17.08661583-10.3917772 6.77749047-4.21875354 17.08661583 10.39177722-6.77749047 4.21875353zm-27.43747829-16.3075306l-17.08661583-10.3917772 6.77749145-4.21875373 17.08661583 10.39177721-6.77749145 4.21875373zm-26.69594434-15.56624544l-17.08661564-10.39177624 6.77749126-4.2187547 17.08661583 10.39177721-6.77749145 4.21875373zm-27.4374773-16.3075308l-17.08661564-10.39177623 6.77749027-4.21875451 17.08661583 10.39177721-6.77749047 4.21875353zm-27.43747731-16.30753079l-17.08661564-10.39177623 6.77749028-4.21875451 17.08661583 10.39177721-6.77749047 4.21875353z" fill="#00C18D" fill-rule="nonzero" opacity=".71235584"/><path d="M789.352941 288.626262c0 3.58172-2.35248 7.051512-7.057439 9.737802-4.839605 2.75025-8.46931 4.812937-10.889112 6.188062-69.349398 39.409859-173.373493 98.524647-312.072288 177.344365-9.521941 5.37258-24.981093 5.37258-34.503035 0L7.79861552 245.555983c-4.70495937-2.68629-7.05743905-6.26801-7.05743905-9.737801 0-3.58172 2.35247968-7.051511 7.05743905-9.737801L330.760015 42.5479536c9.521942-5.3725801 24.981094-5.3725801 34.503036 0L782.295502 278.888461c4.704959 2.574361 7.057439 6.156081 7.057439 9.737801z" fill="url(#a)" fill-rule="nonzero" opacity=".4225958" transform="translate(0 68)"/><path d="M789.352941 445.515151c0 3.58172-2.35248 7.051512-7.057439 9.737802-4.839605 2.75025-8.46931 4.812937-10.889112 6.188062-69.349398 39.409859-173.373493 98.524647-312.072288 177.344365-9.521941 5.37258-24.981093 5.37258-34.503035 0L7.79861552 402.444872c-4.70495937-2.68629-7.05743905-6.26801-7.05743905-9.737801 0-3.58172 2.35247968-7.051511 7.05743905-9.737802L330.760015 199.436842c9.521942-5.37258 24.981094-5.37258 34.503036 0L782.295502 435.77735c4.704959 2.574361 7.057439 6.156081 7.057439 9.737801zM819 427.793718c0 2.403971-1.578499 4.732819-4.735498 6.535797l-4.819504 2.817869c-6.389164 3.605957-16.762161 3.605957-23.151325 0L358.276675 191.779116c-3.156999-1.802978-4.735499-4.20695-4.735499-6.535797 0-2.403971 1.5785-4.732819 4.735499-6.535797l4.819503-2.817869c6.389165-3.605957 16.762161-3.605957 23.151326 0l428.016998 245.368268C817.421501 422.985775 819 425.389747 819 427.793718z" fill="#000" fill-rule="nonzero" opacity=".0600958"/><g fill-rule="nonzero"><path d="M814.367281 263.956975c0 3.586392-2.353223 7.06071-7.059668 9.750504L458.986468 470.780124c-9.524948 5.379588-24.988982 5.379588-34.513931 0L7.30839155 234.131336c-4.70644513-2.689794-7.0596677-6.276186-7.0596677-9.750504 0-3.586392-1.56230588-17.934401 3.14413926-20.624195L355.629537 4.06720458c9.524948-5.37958806 24.988982-5.37958806 34.513931 0L811.207934 243.321228c4.706446 2.577719 3.159347 17.049355 3.159347 20.635747z" fill="url(#b)" opacity=".45724051" transform="translate(.741176 78.37037)"/><path d="M814.233358 250.145513c0 3.58172-2.35248 7.051512-7.057439 9.737802L459.334102 456.711306c-9.521941 5.37258-24.981093 5.37258-34.503035 0L7.79861552 220.370798c-4.70495937-2.68629-7.05743905-6.26801-7.05743905-9.737801 0-3.58172 2.35247968-7.051512 7.05743905-9.737802L355.640432 4.06720458c9.521942-5.37258011 24.981094-5.37258011 34.503036 0L807.175919 240.407712c4.704959 2.574361 7.057439 6.156081 7.057439 9.737801z" stroke="#94A1AE" stroke-width=".8" fill="url(#c)" opacity=".59391276" transform="translate(.741176 78.37037)"/></g><g transform="translate(351.317647 68)" fill="url(#d)" opacity=".6" stroke="#00C18D" stroke-width="1.68"><path d="M463.235294 259.860708c0 2.390616-1.570959 4.706525-4.712876 6.499487l-4.796481 2.802214c-6.358643 3.585924-16.682087 3.585924-23.04073 0L4.71287656 25.1572985C1.57095885 23.3643365 0 20.9737205 0 18.6578112c0-2.39061601 1.57095885-4.70652527 4.71287656-6.49948727L9.5093568 9.35611001c6.358643-3.58592401 16.6820869-3.58592401 23.0407298 0L458.522418 253.361221c3.141917 1.718255 4.712876 4.108871 4.712876 6.499487z"/><path d="M463.235294 253.194041c0 2.390616-1.570959 4.706525-4.712876 6.499487l-4.796481 2.802214c-6.358643 3.585924-16.682087 3.585924-23.04073 0L4.71287656 18.4906315C1.57095885 16.6976695 0 14.3070535 0 11.9911442c0-2.39061601 1.57095885-4.70652527 4.71287656-6.49948727L9.5093568 2.68944301c6.358643-3.58592401 16.6820869-3.58592401 23.0407298 0L458.522418 246.694554c3.141917 1.718255 4.712876 4.108871 4.712876 6.499487z"/></g><path d="M172.511228 392.00654l355.641236-202.0692795c10.485448-5.915213-360.822281 205.0268865-355.641236 202.0692795zM82.7547572 342.228762L438.395993 140.1594827C448.881441 134.2442698 77.5737122 345.186369 82.7547572 342.228762zM261.230051 442.302836l355.641236-202.069279c10.485449-5.915213-360.822281 205.026886-355.641236 202.069279zM349.948875 492.599133l355.641236-202.06928c10.485448-5.915213-360.822281 205.026886-355.641236 202.06928z" stroke="#FFF" stroke-width=".56" stroke-dasharray="2.239999961853028,4.479999923706055"/><path d="M530.8963513 496.738984L79.346036 240.266437c-13.313157-7.50777 458.128581 260.226433 451.5503153 256.472547zM621.171645 444.887133L169.62133 188.4145854c-13.313157-7.5077703 458.128581 260.2264326 451.550315 256.4725476zM708.333998 394.590836L256.783683 138.1182891c-13.313157-7.5077703 458.128581 260.2264319 451.550315 256.4725469z" stroke="#FFF" stroke-width=".56" stroke-dasharray="2.239999961853028,5.040000152587891"/><path d="M445.262724 436.72074l3.560325 2.0523-7.23926 4.233479 7.23926 4.092819-3.070635 2.012931-7.886514-4.025972-7.246514 4.013313-3.479386-2.000272 7.008529-4.092301-6.225854-3.482583 3.276334-1.809465 6.666891 3.212271 7.396824-4.20652zm-89.167347-50.296297l3.560325 2.052301-7.239261 4.233479 7.239261 4.092819-3.070635 2.012931-7.886515-4.025973-7.246514 4.013313-3.479385-2.000271 7.008528-4.092301-6.225854-3.482584 3.276335-1.809464 6.66689 3.21227 7.396825-4.20652zm179.372342-1.017035l3.560325 2.0523-7.239261 4.233479 7.239261 4.09282-3.070635 2.01293-7.886515-4.025972-7.246514 4.013313-3.479385-2.000271 7.008528-4.092301-6.225854-3.482584 3.276335-1.809465 6.66689 3.212271 7.396825-4.20652zm-267.642642-49.279261l3.560325 2.0523-7.23926 4.233479 7.23926 4.09282-3.070635 2.01293-7.886515-4.025972-7.246513 4.013313-3.479386-2.000271 7.008529-4.092301-6.225854-3.482584 3.276334-1.809465 6.66689 3.212271 7.396825-4.20652zm178.475294-1.017036l3.560325 2.052301-7.23926 4.233479 7.23926 4.092819-3.070635 2.012931-7.886514-4.025973-7.246514 4.013314-3.479386-2.000272 7.008529-4.092301-6.225854-3.482584 3.276334-1.809464 6.666891 3.21227 7.396824-4.20652zm177.367348 0l3.560325 2.052301-7.239261 4.233479 7.239261 4.092819-3.070635 2.012931-7.886515-4.025973-7.246514 4.013314-3.479385-2.000272 7.008528-4.092301-6.225854-3.482584 3.276335-1.809464 6.66689 3.21227 7.396825-4.20652zm-445.080289-49.27926l3.560325 2.0523-7.23926 4.233479 7.23926 4.09282-3.070635 2.01293-7.886515-4.025972-7.246513 4.013313-3.479386-2.000271 7.008529-4.092301-6.225854-3.482584 3.276334-1.809465 6.66689 3.212271 7.396825-4.20652zm355.912941-1.017036l3.560325 2.052301-7.23926 4.233478 7.23926 4.09282-3.070635 2.01293-7.886514-4.025972-7.246514 4.013313-3.479386-2.000271 7.008529-4.092301-6.225854-3.482584 3.276334-1.809465 6.666891 3.212271 7.396824-4.20652zm-176.470299 0l3.560325 2.052301-7.239261 4.233478 7.239261 4.09282-3.070635 2.01293-7.886515-4.025972-7.246514 4.013313-3.479385-2.000271 7.008528-4.092301-6.225854-3.482584 3.276335-1.809465 6.66689 3.212271 7.396825-4.20652zm88.2-50.296296l3.560325 2.0523-7.239261 4.233479 7.239261 4.09282-3.070635 2.01293-7.886515-4.025972-7.246514 4.013313-3.479385-2.000271 7.008528-4.092301-6.225854-3.482584 3.276335-1.809465 6.66689 3.212271 7.396825-4.20652zm-177.437648 0l3.560326 2.0523-7.239261 4.233479 7.239261 4.09282-3.070635 2.01293-7.886515-4.025972-7.246514 4.013313-3.479385-2.000271 7.008528-4.092301-6.225854-3.482584 3.276335-1.809465 6.66689 3.212271 7.396824-4.20652zm88.2-50.2962964l3.560326 2.0523003-7.239261 4.2334789 7.239261 4.0928196-3.070635 2.0129304-7.886515-4.0259722-7.246514 4.0133131-3.479385-2.0002713 7.008528-4.0923011-6.225854-3.4825838 3.276335-1.8094648 6.66689 3.2122709 7.396824-4.20652z" fill="#FFF" fill-rule="nonzero" opacity=".46270461"/><g opacity=".14871652" fill="url(#e)" transform="translate(7.411765 97.62963)"><ellipse cx="140.341765" cy="193.407407" rx="5.44764706" ry="3.62962963"/><ellipse cx="230.098235" cy="143.62963" rx="5.44764706" ry="3.62962963"/><ellipse cx="320.892353" cy="92.2962963" rx="5.44764706" ry="3.62962963"/><ellipse cx="410.13" cy="42" rx="5.44764706" ry="3.62962963"/><ellipse cx="5.44764706" cy="193.407407" rx="5.44764706" ry="3.62962963"/><ellipse cx="95.2041176" cy="143.62963" rx="5.44764706" ry="3.62962963"/><ellipse cx="185.998235" cy="92.2962963" rx="5.44764706" ry="3.62962963"/><ellipse cx="275.235882" cy="42" rx="5.44764706" ry="3.62962963"/><ellipse cx="71.8570588" cy="155.037037" rx="5.44764706" ry="3.62962963"/><ellipse cx="161.613529" cy="105.259259" rx="5.44764706" ry="3.62962963"/><ellipse cx="252.407647" cy="53.9259259" rx="5.44764706" ry="3.62962963"/><ellipse cx="341.645294" cy="3.62962963" rx="5.44764706" ry="3.62962963"/><ellipse cx="71.8570588" cy="230.222222" rx="5.44764706" ry="3.62962963"/><ellipse cx="161.613529" cy="180.444444" rx="5.44764706" ry="3.62962963"/><ellipse cx="252.407647" cy="129.111111" rx="5.44764706" ry="3.62962963"/><ellipse cx="341.645294" cy="78.8148148" rx="5.44764706" ry="3.62962963"/><g transform="translate(88.718824 50.296296)"><ellipse cx="140.341765" cy="193.407407" rx="5.44764706" ry="3.62962963"/><ellipse cx="230.098235" cy="143.62963" rx="5.44764706" ry="3.62962963"/><ellipse cx="320.892353" cy="92.2962963" rx="5.44764706" ry="3.62962963"/><ellipse cx="410.13" cy="42" rx="5.44764706" ry="3.62962963"/><ellipse cx="5.44764706" cy="193.407407" rx="5.44764706" ry="3.62962963"/><ellipse cx="95.2041176" cy="143.62963" rx="5.44764706" ry="3.62962963"/><ellipse cx="185.998235" cy="92.2962963" rx="5.44764706" ry="3.62962963"/><ellipse cx="275.235882" cy="42" rx="5.44764706" ry="3.62962963"/><ellipse cx="71.8570588" cy="155.037037" rx="5.44764706" ry="3.62962963"/><ellipse cx="161.613529" cy="105.259259" rx="5.44764706" ry="3.62962963"/><ellipse cx="252.407647" cy="53.9259259" rx="5.44764706" ry="3.62962963"/><ellipse cx="341.645294" cy="3.62962963" rx="5.44764706" ry="3.62962963"/><ellipse cx="71.8570588" cy="230.222222" rx="5.44764706" ry="3.62962963"/><ellipse cx="161.613529" cy="180.444444" rx="5.44764706" ry="3.62962963"/><ellipse cx="252.407647" cy="129.111111" rx="5.44764706" ry="3.62962963"/><ellipse cx="341.645294" cy="78.8148148" rx="5.44764706" ry="3.62962963"/></g><g transform="translate(180.031765 100.074074)"><ellipse cx="140.341765" cy="193.407407" rx="5.44764706" ry="3.62962963"/><ellipse cx="230.098235" cy="143.62963" rx="5.44764706" ry="3.62962963"/><ellipse cx="320.892353" cy="92.2962963" rx="5.44764706" ry="3.62962963"/><ellipse cx="410.13" cy="42" rx="5.44764706" ry="3.62962963"/><ellipse cx="5.44764706" cy="193.407407" rx="5.44764706" ry="3.62962963"/><ellipse cx="95.2041176" cy="143.62963" rx="5.44764706" ry="3.62962963"/><ellipse cx="185.998235" cy="92.2962963" rx="5.44764706" ry="3.62962963"/><ellipse cx="275.235882" cy="42" rx="5.44764706" ry="3.62962963"/><ellipse cx="71.8570588" cy="155.037037" rx="5.44764706" ry="3.62962963"/><ellipse cx="161.613529" cy="105.259259" rx="5.44764706" ry="3.62962963"/><ellipse cx="252.407647" cy="53.9259259" rx="5.44764706" ry="3.62962963"/><ellipse cx="341.645294" cy="3.62962963" rx="5.44764706" ry="3.62962963"/><ellipse cx="71.8570588" cy="230.222222" rx="5.44764706" ry="3.62962963"/><ellipse cx="161.613529" cy="180.444444" rx="5.44764706" ry="3.62962963"/><ellipse cx="252.407647" cy="129.111111" rx="5.44764706" ry="3.62962963"/><ellipse cx="341.645294" cy="78.8148148" rx="5.44764706" ry="3.62962963"/></g><g transform="translate(269.788235 150.888889)"><ellipse cx="140.341765" cy="193.407407" rx="5.44764706" ry="3.62962963"/><ellipse cx="230.098235" cy="143.62963" rx="5.44764706" ry="3.62962963"/><ellipse cx="320.892353" cy="92.2962963" rx="5.44764706" ry="3.62962963"/><ellipse cx="410.13" cy="42" rx="5.44764706" ry="3.62962963"/><ellipse cx="5.44764706" cy="193.407407" rx="5.44764706" ry="3.62962963"/><ellipse cx="95.2041176" cy="143.62963" rx="5.44764706" ry="3.62962963"/><ellipse cx="185.998235" cy="92.2962963" rx="5.44764706" ry="3.62962963"/><ellipse cx="275.235882" cy="42" rx="5.44764706" ry="3.62962963"/><ellipse cx="71.8570588" cy="155.037037" rx="5.44764706" ry="3.62962963"/><ellipse cx="161.613529" cy="105.259259" rx="5.44764706" ry="3.62962963"/><ellipse cx="252.407647" cy="53.9259259" rx="5.44764706" ry="3.62962963"/><ellipse cx="341.645294" cy="3.62962963" rx="5.44764706" ry="3.62962963"/><ellipse cx="71.8570588" cy="230.222222" rx="5.44764706" ry="3.62962963"/><ellipse cx="161.613529" cy="180.444444" rx="5.44764706" ry="3.62962963"/><ellipse cx="252.407647" cy="129.111111" rx="5.44764706" ry="3.62962963"/><ellipse cx="341.645294" cy="78.8148148" rx="5.44764706" ry="3.62962963"/></g><g transform="translate(359.544706 201.185185)"><ellipse cx="140.341765" cy="193.407407" rx="5.44764706" ry="3.62962963"/><ellipse cx="230.098235" cy="143.62963" rx="5.44764706" ry="3.62962963"/><ellipse cx="320.892353" cy="92.2962963" rx="5.44764706" ry="3.62962963"/><ellipse cx="410.13" cy="42" rx="5.44764706" ry="3.62962963"/><ellipse cx="5.44764706" cy="193.407407" rx="5.44764706" ry="3.62962963"/><ellipse cx="95.2041176" cy="143.62963" rx="5.44764706" ry="3.62962963"/><ellipse cx="185.998235" cy="92.2962963" rx="5.44764706" ry="3.62962963"/><ellipse cx="275.235882" cy="42" rx="5.44764706" ry="3.62962963"/><ellipse cx="71.8570588" cy="155.037037" rx="5.44764706" ry="3.62962963"/><ellipse cx="161.613529" cy="105.259259" rx="5.44764706" ry="3.62962963"/><ellipse cx="252.407647" cy="53.9259259" rx="5.44764706" ry="3.62962963"/><ellipse cx="341.645294" cy="3.62962963" rx="5.44764706" ry="3.62962963"/><ellipse cx="71.8570588" cy="230.222222" rx="5.44764706" ry="3.62962963"/><ellipse cx="161.613529" cy="180.444444" rx="5.44764706" ry="3.62962963"/><ellipse cx="252.407647" cy="129.111111" rx="5.44764706" ry="3.62962963"/><ellipse cx="341.645294" cy="78.8148148" rx="5.44764706" ry="3.62962963"/></g></g><g><g fill="url(#f)" fill-rule="nonzero" stroke="#14B2E2" stroke-width=".8" transform="translate(360 138)"><path d="M155.815385 50.5707922c0 3.6029539-2.347447 7.0933156-7.04234 9.795531L96.8332035 91.3874535c-9.5015692 5.4044309-24.9276462 5.4044309-34.4292154 0L7.04233953 59.139302C2.34744651 56.4370865 0 52.8341326 0 49.3437709c0-3.6029539 2.34744651-7.0933155 7.04233953-9.795531L58.9821811 8.5271096c9.5015692-5.40443092 24.9276463-5.40443092 34.4292155 0l55.3616484 32.2481515c4.694893 2.5896232 7.04234 6.1925771 7.04234 9.7955311z" opacity=".60000002"/><path d="M155.815385 46.0970058c0 3.6029539-2.347447 7.0933155-7.04234 9.795531L96.8332035 86.9136671c-9.5015692 5.4044309-24.9276462 5.4044309-34.4292154 0L7.04233953 54.6655156C2.34744651 51.9633001 0 48.3603462 0 44.8699845c0-3.6029539 2.34744651-7.0933156 7.04233953-9.795531L58.9821811 4.05332319c9.5015692-5.40443092 24.9276463-5.40443092 34.4292155 0L148.773045 36.3014747c4.694893 2.5896232 7.04234 6.1925771 7.04234 9.7955311z" opacity=".6"/></g><path d="M405.4318285 185.7203883l35.7989407-18.2614313-3.2467563-1.8706075-15.2170257 1.9431291-2.9839757 3.6634382 9.613573-1.3267922-27.3042768 13.9282103 3.3395208 1.9240534zm16.3350282 9.6932039l6.7361035-3.4582611-7.3424337-4.2472859 14.4682137-1.9386319c.9241536-.1340356 1.8419341-.2903305 2.7533414-.4688847.9114073-.1785543 1.8472756-.4079636 2.8076048-.6882279.9603292-.2802643 1.9628403-.628992 3.0075335-1.0461829 1.0446931-.4171909 2.145392-.9227077 3.3020967-1.5165505 1.8030984-.9256962 3.248658-1.8167675 4.336679-2.673214 1.0880209-.8564465 1.841176-1.6558664 2.2594653-2.3982599.4182892-.7423934.5297041-1.4208548.3342445-2.0353842-.1954595-.6145294-.667326-1.1382164-1.4155995-1.5710608-.8106296-.4689148-1.7924403-.7861183-2.9454319-.9516106-1.1529917-.1654924-2.4459863-.1612383-3.8789839.0127623-1.4329976.1740005-2.9943064.5245106-4.6839264 1.0515304-1.68962.5270197-3.4933834 1.2573173-5.4112904 2.1908926l2.9461901 2.3171466c1.3395546-.6366539 2.6347725-1.0760817 3.8856535-1.3182833 1.2508811-.2422017 2.2036913-.1739331 2.8584306.2048057.5456161.3156158.6723691.7696785.3802591 1.3621882-.2921101.5925096-1.0505381 1.2031519-2.2752842 1.8319266-1.0886632.5589109-2.2049283.9532732-3.3487954 1.183087-1.143867.2298137-2.2026823.4159625-3.1764457.5584464l-19.0351538 2.7513834-8.1139429 4.1656327 11.5514721 6.6820358zm7.174173 4.8476973c.8194657.4556433 1.819166.7764694 2.9991011.9624783 1.179935.1860089 2.497487.2044645 3.9526561.0553667 1.455169-.1490978 3.0321961-.4745114 4.7310812-.9762407 1.6988852-.5017292 3.4598128-1.2039935 5.282783-2.1067927 1.0662656-.5280523 2.0100224-1.0699844 2.8312704-1.6257963.821248-.5558118 1.4762732-1.0955713 1.9650755-1.6192784.4888024-.5237072.7981239-1.0206544.9279644-1.4908417.1298406-.4701872.0114089-.8795467-.355295-1.2280784l.1547805-.0766527c1.3425263.3125725 2.9803622.2469626 4.9135077-.1968297 1.9331455-.4437923 3.9143904-1.1681898 5.9437344-2.1731927 1.754179-.8687313 3.113938-1.7036581 4.079278-2.5047803.96534-.8011223 1.609334-1.5549284 1.931983-2.2614183.322648-.70649.33899-1.3482617.049025-1.9253152-.289964-.5770535-.805282-1.071496-1.545953-1.4833274-.709153-.3943067-1.546227-.6879868-2.511224-.8810403-.964996-.1930535-2.051474-.2638199-3.259433-.2122992-1.2079584.0515207-2.5599748.2489342-4.0560488.5922406-1.496074.3433064-3.129765.8541661-4.901073 1.5325793l2.1461625 3.037418c1.0733912-.4156139 2.1180737-.6844761 3.1340473-.8065866 1.0159735-.1221105 1.799742-.0298242 2.3513055.2768588.5830815.3242077.7143945.7768882.3939385 1.3580415-.3204555.5811534-1.0310139 1.1442732-2.1316752 1.6893595-.8598916.4258487-1.6351986.7269742-2.3259209.9033767-.6907223.1764025-1.3122765.2647084-1.8646624.2649179-.5523859.0002094-1.0377619-.0617587-1.4561279-.1859042-.4183661-.1241456-.7930182-.2782233-1.1239563-.4622331l-1.1582832-.6440342-6.7071544 3.3216196.8273451.4600245c.3939739.2190593.762151.450894 1.1045314.6955042.3423804.2446102.5335775.5226747.5735912.8341937.0400138.311519-.12525.6625734-.4957916 1.0531632-.3705415.3905897-1.0717472.8413938-2.1036171 1.3524122-1.3758266.6813579-2.6874523 1.1362618-3.9348772 1.3647117-1.2474248.22845-2.2572317.1279968-3.0294205-.3013593-.7564298-.4205938-.9493396-.9256032-.5787294-1.5150281.3706102-.5894249 1.1463971-1.2428318 2.3273607-1.9602208l-5.6438317-1.1312978c-2.920891 1.8109972-4.598297 3.3913537-5.0322178 4.7410698-.4339208 1.349716.0976692 2.4407867 1.5947699 3.2732119z" fill="#000" fill-rule="nonzero" opacity=".10684059"/><path d="M405.4318285 181.2466019l35.7989407-18.2614313-3.2467563-1.8706075-15.2170257 1.9431291-2.9839757 3.6634382 9.613573-1.3267922-27.3042768 13.9282103 3.3395208 1.9240534zm16.3350282 9.6932039l6.7361035-3.4582611-7.3424337-4.2472859 14.4682137-1.9386319c.9241536-.1340356 1.8419341-.2903305 2.7533414-.4688847.9114073-.1785543 1.8472756-.4079636 2.8076048-.6882279.9603292-.2802643 1.9628403-.628992 3.0075335-1.0461829 1.0446931-.4171909 2.145392-.9227077 3.3020967-1.5165505 1.8030984-.9256962 3.248658-1.8167675 4.336679-2.673214 1.0880209-.8564465 1.841176-1.6558664 2.2594653-2.3982599.4182892-.7423934.5297041-1.4208548.3342445-2.0353842-.1954595-.6145294-.667326-1.1382164-1.4155995-1.5710608-.8106296-.4689148-1.7924403-.7861183-2.9454319-.9516107-1.1529917-.1654923-2.4459863-.1612382-3.8789839.0127623-1.4329976.1740006-2.9943064.5245107-4.6839264 1.0515305-1.68962.5270197-3.4933834 1.2573172-5.4112904 2.1908926l2.9461901 2.3171466c1.3395546-.6366539 2.6347725-1.0760817 3.8856535-1.3182834 1.2508811-.2422016 2.2036913-.173933 2.8584306.2048058.5456161.3156158.6723691.7696785.3802591 1.3621882-.2921101.5925096-1.0505381 1.2031519-2.2752842 1.8319266-1.0886632.5589109-2.2049283.9532732-3.3487954 1.1830869-1.143867.2298138-2.2026823.4159626-3.1764457.5584465l-19.0351538 2.7513834-8.1139429 4.1656327 11.5514721 6.6820358zm7.174173 4.8476973c.8194657.4556433 1.819166.7764694 2.9991011.9624783 1.179935.1860089 2.497487.2044645 3.9526561.0553667 1.455169-.1490978 3.0321961-.4745114 4.7310812-.9762407 1.6988852-.5017292 3.4598128-1.2039935 5.282783-2.1067927 1.0662656-.5280523 2.0100224-1.0699844 2.8312704-1.6257963.821248-.5558118 1.4762732-1.0955713 1.9650755-1.6192784.4888024-.5237072.7981239-1.0206544.9279644-1.4908417.1298406-.4701873.0114089-.8795467-.355295-1.2280784l.1547805-.0766527c1.3425263.3125725 2.9803622.2469626 4.9135077-.1968297 1.9331455-.4437923 3.9143904-1.1681899 5.9437344-2.1731927 1.754179-.8687313 3.113938-1.7036581 4.079278-2.5047804.96534-.8011222 1.609334-1.5549283 1.931983-2.2614182.322648-.70649.33899-1.3482617.049025-1.9253152-.289964-.5770535-.805282-1.071496-1.545953-1.4833274-.709153-.3943067-1.546227-.6879868-2.511224-.8810403-.964996-.1930535-2.051474-.2638199-3.259433-.2122992-1.2079584.0515207-2.5599748.2489342-4.0560488.5922406-1.496074.3433064-3.129765.8541661-4.901073 1.5325792l2.1461625 3.0374181c1.0733912-.4156139 2.1180737-.6844761 3.1340473-.8065866 1.0159735-.1221105 1.799742-.0298242 2.3513055.2768588.5830815.3242077.7143945.7768882.3939385 1.3580415-.3204555.5811534-1.0310139 1.1442732-2.1316752 1.6893595-.8598916.4258487-1.6351986.7269742-2.3259209.9033767-.6907223.1764025-1.3122765.2647084-1.8646624.2649179-.5523859.0002094-1.0377619-.0617587-1.4561279-.1859042-.4183661-.1241456-.7930182-.2782233-1.1239563-.4622331l-1.1582832-.6440342-6.7071544 3.3216196.8273451.4600245c.3939739.2190593.762151.450894 1.1045314.6955042.3423804.2446102.5335775.5226747.5735912.8341937.0400138.311519-.12525.6625734-.4957916 1.0531631-.3705415.3905898-1.0717472.8413939-2.1036171 1.3524123-1.3758266.6813579-2.6874523 1.1362618-3.9348772 1.3647117-1.2474248.2284499-2.2572317.1279968-3.0294205-.3013593-.7564298-.4205938-.9493396-.9256032-.5787294-1.5150281.3706102-.5894249 1.1463971-1.2428318 2.3273607-1.9602208l-5.6438317-1.1312978c-2.920891 1.8109972-4.598297 3.3913537-5.0322178 4.7410698-.4339208 1.349716.0976692 2.4407867 1.5947699 3.2732119z" fill="#FFF" fill-rule="nonzero" opacity=".75093006"/><path d="M452.4956798 153.5609676l31.7389352 18.5734984c3.023023 1.7552727 3.547401 4.488288 1.171232 6.1043605-2.376169 1.6160725-6.753078 1.5032285-9.7761-.2520442l-31.7389359-18.5734984c-3.0230222-1.7552727-3.5474004-4.488288-1.1712315-6.1043605 2.3761689-1.6160725 6.753078-1.5032285 9.7761002.2520442z" fill="#FFF" opacity=".5906343" style="mix-blend-mode:overlay"/><path d="M412.3774038 197.3097087l3.646827 3.128.0988461.012421-.0088461.064579.7473077.6408897-.9133077.7261103-.0281164.2425631-.2378836-.0305631-3.7814186 3.0130874-.946966-1.3720985 2.4223846-1.9349889-19.407-2.4750811.2029625-1.6741422 18.5250375 2.3622233-1.7433846-1.338983 1.4235576-1.364017z" fill="#FFF" fill-rule="nonzero" opacity=".49328032"/></g><g fill-rule="nonzero"><path d="M155.815385 91.6958086c0 3.5783561-2.347447 7.0448885-7.04234 9.7286554l-51.9398415 30.809345c-9.5015692 5.367534-24.9276462 5.367534-34.4292154 0L7.04233953 100.20582C2.34744651 97.5220529 0 93.9436969 0 90.4771644c0-3.5783561 2.34744651-7.0448885 7.04233953-9.7286556L58.9821811 49.9391641c9.5015692-5.3675341 24.9276463-5.3675341 34.4292155 0L148.773045 81.967153c4.694893 2.5719434 7.04234 6.1502995 7.04234 9.7286556z" stroke="#14B2E2" stroke-width=".8" fill="url(#g)" opacity=".60000002" transform="translate(6 196)"/><path d="M155.815385 87.2525653c0 3.5783561-2.347447 7.0448886-7.04234 9.7286556L96.8332035 127.790566c-9.5015692 5.367534-24.9276462 5.367534-34.4292154 0L7.04233953 95.7625768C2.34744651 93.0788097 0 89.5004536 0 86.0339212c0-3.5783561 2.34744651-7.0448886 7.04233953-9.7286556L58.9821811 45.4959209c9.5015692-5.3675342 24.9276463-5.3675342 34.4292155 0l55.3616484 32.0279888c4.694893 2.5719435 7.04234 6.1502995 7.04234 9.7286556z" stroke="#14B2E2" stroke-width=".8" fill="url(#g)" opacity=".6" transform="translate(6 196)"/><path d="M118.437231 282.0084813c-.4968-4.107153-3.24-8.119498-8.3016-11.4139325-12.4128002-8.0927774-34.0992002-8.6857194-48.4344002-1.3900429-7.56 3.8513047-11.5632 9.1295242-11.844 14.4455663v1.1263621c.18 3.6227875 2.1096 7.2313709 5.8464 10.353261.797484.675728 1.6344643 1.3013537 2.5056 1.8728847 12.4128 8.092777 34.0992 8.685719 48.4344002 1.397263 2.159496-1.075325 4.173864-2.4015315 6.0048-3.953401 3.4128-2.9442503 5.3496-6.2955014 5.76-9.7035027.003443-.0598773.003443-.1201453 0-.1805067l.0288-2.5539513zm-20.8800002 5.4926662c-1.0074511 1.1323184-2.2279451 2.0525994-3.6 2.7144838-6.228 3.1507025-15.588 2.8826741-20.9736-.6006009-.7812966-.4977708-1.4923254-1.105033-2.1096-1.8017276-2.88-3.3432554-1.5984-7.5708922 3.6-10.2235648 6.1992-3.1743877 15.5736-2.8836864 20.9448.6057967 4.0392 2.6088461 4.6656 6.2918925 2.1096 9.3035884l.0288.0020244z" fill="#000" opacity=".17420015"/><path d="M24.9192 68.3441461c6.1992-3.1743877 15.5736-2.8836863 20.9448.5985765.5644097.3663368 1.0950213.7857825 1.584 1.2521435.18-.182295.3528-14.7984163.5112-14.9822295 2.556-3.0116959 1.9296-6.6947423-2.0952-9.3025762-5.3712-3.4894831-14.7456-3.7585236-20.9448-.6057967-5.2128 2.6516604-6.48 6.8803094-3.6 10.2235648.1637852.1913236.3368208 14.8151396.5184 14.9896186.9049941-.8800094 1.9432717-1.6122555 3.0816-2.173301z" fill="url(#h)" transform="translate(49.569231 196)"/><path d="M68.868 49.7219948c-.4968-4.107153-3.24-8.119498-8.3016-11.4139325-12.4128-8.0927773-34.0992-8.6857194-48.4344-1.3900429C4.572 40.7693241.5688 46.0475436.288 51.3635857v1.1263621c.18 3.6227875 2.1096 7.2313709 5.8464 10.353261.79748398.675728 1.63446434 1.3013536 2.5056 1.8728844 12.4128 8.0927774 34.0992 8.6857194 48.4344 1.3972632 2.1594958-1.0753244 4.1738646-2.4015314 6.0048-3.9534009 3.4128-2.9442503 5.3496-6.2955014 5.76-9.7035027.0034432-.0598773.0034432-.1201453 0-.1805067l.0288-2.5539513zm-20.88 5.4926662c-1.0074511 1.1323185-2.2279451 2.0525994-3.6 2.7144838-6.228 3.1507025-15.588 2.8826741-20.9736-.6006009-.7812965-.4977708-1.4923254-1.105033-2.1096-1.8017276-2.88-3.3432554-1.5984-7.5708922 3.6-10.2235648 6.1992-3.1743877 15.5736-2.8836863 20.9448.6057967 4.0392 2.6088461 4.6656 6.2918925 2.1096 9.3035884l.0288.0020244z" fill="url(#i)" transform="translate(49.569231 196)"/><path d="M57.0888 88.1000916c-14.3352 7.2956765-36 6.6753716-48.4344-1.3900429C3.276 83.2128393.5184 78.8962307.288 74.5262127V52.4899478c.18 3.6227875 2.1096 7.2313709 5.8464 10.353261.79748398.675728 1.63446434 1.3013536 2.5056 1.8728844 12.4128 8.0927774 34.0992 8.6857194 48.4344 1.3972632 2.1594958-1.0753244 4.1738646-2.4015314 6.0048-3.9534009 3.4416-2.9638867 5.3856-6.3507331 5.76-9.7757054l.0576 20.018638c.3672 5.7298243-3.6504 11.5485519-11.808 15.6972035z" fill="url(#j)" transform="translate(49.569231 196)"/><path d="M96.779631 251.9831136l15.6312 6.8749476v21.6608108s-9.0072 8.6882446-27.1584 8.6759405c-.288-5.688169-.8784-21.6431445-.8784-21.6431445l-3.9888-11.6667426s9.6192 1.708641 16.3944-3.9018118z" fill="#1D7AA4"/><path d="M34.7076923 71.2068167s17.8276442-.4095965 28.1339077-8.7150304v22.0704073s-10.878499 9.3732767-28.1339077 8.6279348V71.2068167z" fill="url(#k)" transform="translate(49.569231 196)"/></g><g opacity=".6" transform="translate(359 189)" fill="url(#l)" stroke="#00C18D" stroke-width="1.68"><path d="M429.258621 153.003228c0 3.584907-2.3553 7.057786-7.0659 9.746467l-144.857182 82.846914c-9.533358 5.377361-25.011043 5.377361-34.544401 0L7.06590005 110.817314C2.35530002 108.128633 0 104.543726 0 101.070847c0-3.5849081 2.35530002-7.0577874 7.06590005-9.7464681L151.923082 8.47746552c9.533357-5.37736143 25.011043-5.37736143 34.5444 0L422.192721 143.25676c4.7106 2.576652 7.0659 6.16156 7.0659 9.746468z"/><path d="M429.258621 148.558783c0 3.584908-2.3553 7.057787-7.0659 9.746468l-144.857182 82.846913c-9.533358 5.377362-25.011043 5.377362-34.544401 0L7.06590005 106.37287C2.35530002 103.684189 0 100.099281 0 96.6264021c0-3.5849077 2.35530002-7.0577869 7.06590005-9.7464676L151.923082 4.03302107c9.533357-5.37736143 25.011043-5.37736143 34.5444 0L422.192721 138.812316c4.7106 2.576652 7.0659 6.16156 7.0659 9.746467z"/></g><g opacity=".6" transform="translate(182 342)" fill="url(#m)" stroke="#00C18D" stroke-width="1.68"><path d="M339.444142 152.580661c0 3.574873-2.350716 7.03803-7.052147 9.719185l-55.596286 29.678422c-9.514801 5.362309-24.962359 5.362309-34.47716 0L7.05214638 57.5762591C2.35071546 54.8951048 0 51.3202323 0 47.8570746c0-3.5748724 2.35071546-7.0380301 7.05214638-9.7191845L62.6484327 8.45946736c9.5148006-5.36230868 24.9623594-5.36230868 34.4771601 0L332.391995 142.861477c4.701431 2.569439 7.052147 6.144312 7.052147 9.719184z"/><path d="M339.444142 148.142925c0 3.574873-2.350716 7.038031-7.052147 9.719185l-55.596286 29.678423c-9.514801 5.362308-24.962359 5.362308-34.47716 0L7.05214638 53.1385233C2.35071546 50.4573689 0 46.8824965 0 43.4193388c0-3.5748725 2.35071546-7.0380302 7.05214638-9.7191845L62.6484327 4.02173151c9.5148006-5.36230868 24.9623594-5.36230868 34.4771601 0L332.391995 138.423741c4.701431 2.569439 7.052147 6.144312 7.052147 9.719184z"/></g><g transform="translate(8 432)"><path d="M172.982359 162.449249c0 3.327419-2.18307 6.550856-6.549212 9.04642l-63.932783 36.28966c-8.836238 4.991128-23.1821308 4.991128-32.0183691 0l-63.93278299-36.28966C2.18307064 169.000105 0 165.672686 0 162.449249c0-3.327418 2.18307064-6.550855 6.54921191-9.046419l63.93278299-36.28966c8.8362383-4.991128 23.1821311-4.991128 32.0183691 0l63.932783 36.28966c4.366142 2.391582 6.549212 5.719001 6.549212 9.046419z" fill-opacity=".25" fill="#000" fill-rule="nonzero" opacity=".5"/><g fill-rule="nonzero"><path d="M173.398182 49.495353c0 3.3274187-2.183071 6.5508556-6.549212 9.0464196l-63.932783 36.2896601c-8.8362381 4.991128-23.1821308 4.991128-32.0183691 0L6.7571234 58.8969799C2.39098213 56.4014159.20791149 53.0739972.20791149 49.8505603c0-3.3274186 2.18307064-6.5508555 6.54921191-9.0464195L70.8978179 4.15927336c8.8362383-4.99112803 23.182131-4.99112803 32.0183691 0L166.84897 40.4489334c4.262186 2.4955641 6.549212 5.7190009 6.549212 9.0464196z" fill="url(#n)" transform="translate(0 68.657635)"/><path d="M173.398182 49.495353v25.1636039c0 3.3274186-2.183071 6.5508555-6.549212 9.0464195l-32.018369 18.0928396-32.01837 18.092839c-4.3661408 2.495564-10.1876625 3.743346-16.0091842 3.743346s-11.5390877-1.247782-16.0091847-3.743346l-32.0183693-18.092839L6.7571234 83.7053764C2.39098213 81.2098124.20791149 77.8823937.20791149 74.6589569V49.495353c0 3.3274187 2.18307064 6.5508556 6.54921191 9.0464196l63.932783 36.2896601c8.8362383 4.991128 23.182131 4.991128 32.0183696 0l63.932783-36.2896601c4.470097-2.495564 6.757123-5.8229827 6.757123-9.0464196z" fill="url(#o)" transform="translate(0 68.657635)"/></g><g opacity=".95" fill-rule="nonzero"><path d="M173.398182 49.2873893c0 3.3274187-2.183071 6.5508556-6.549212 9.0464196L102.812231 94.623469c-8.8362378 4.991128-23.1821306 4.991128-32.0183689 0L6.7571234 58.439368C2.39098213 55.943804.20791149 52.6163853.20791149 49.3929484c0-3.3274187 2.18307064-6.5508555 6.54921191-9.0464195L70.7938621 3.95130969c8.8362383-4.99112803 23.1821311-4.99112803 32.0183689 0l63.932783 36.28966011c4.366142 2.495564 6.653168 5.7190009 6.653168 9.0464195z" fill="url(#p)" transform="translate(0 34.34363)"/><path d="M173.398182 49.2873893v25.1636039c0 3.3274187-2.183071 6.5508555-6.549212 9.0464196l-32.018369 18.0928392-32.01837 18.092839c-4.3661408 2.495564-10.1876625 3.743346-16.0091842 3.743346s-11.5390877-1.247782-16.0091847-3.743346l-32.0183693-18.092839L6.7571234 83.4974128C2.39098213 81.0018487.20791149 77.67443.20791149 74.4509932V49.2873893c0 3.3274187 2.18307064 6.5508556 6.54921191 9.0464196l63.932783 36.2896601c8.8362383 4.991128 23.182131 4.991128 32.0183696 0l63.932783-36.2896601c4.470097-2.495564 6.757123-5.7190009 6.757123-9.0464196z" fill="url(#q)" transform="translate(0 34.34363)"/></g><g opacity=".9" fill-rule="nonzero"><path d="M173.398182 49.495353c0 3.3274187-2.183071 6.5508556-6.549212 9.0464196l-63.932783 36.2896601c-8.8362381 4.991128-23.1821308 4.991128-32.0183691 0L6.86107915 58.7508636C2.49493787 56.2552996.31186723 52.9278809.31186723 49.704444c0-3.2234368 2.18307064-6.5508555 6.54921192-9.0464195L70.8978179 4.15927336c8.8362383-4.99112803 23.182131-4.99112803 32.0183691 0L166.84897 40.4489334c4.262186 2.4955641 6.549212 5.8229828 6.549212 9.0464196z" fill="url(#r)" transform="translate(0 .029624)"/><path d="M173.398182 49.495353v25.1636039c0 3.3274186-2.183071 6.5508555-6.549212 9.0464195l-32.122325 18.1968206-32.018369 18.09284c-4.3661415 2.495564-10.1876632 3.743346-16.0091849 3.743346-5.8215217 0-11.5390877-1.247782-16.0091847-3.743346l-31.8104579-18.09284L6.86107915 83.8093583C2.49493787 81.3137942.31186723 77.9863755.31186723 74.7629387V49.5993348c0 3.3274187 2.18307064 6.5508556 6.54921192 9.0464196L70.7938621 94.9354145c8.8362383 4.991128 23.1821311 4.991128 32.0183689 0l63.932783-36.2896601c4.366142-2.495564 6.653168-5.8229827 6.653168-9.1504014z" fill="url(#s)" transform="translate(0 .029624)"/></g><g opacity=".6" stroke="#FFF" stroke-linecap="round" stroke-linejoin="round" stroke-width="2.2464"><path d="M95.4313731 40.5825398l-8.7322826 4.9911281c3.0147166 1.6637093 6.3413005 3.0154732 9.9797515 4.1592733 3.5344953-2.8075095 3.1186724-6.6548373-1.2474689-9.1504014M116.3264778 30.39232011c9.2520612 5.82298269 12.1628221 13.72560209 8.8362383 20.90034869 6.6531676-1.0398184 12.8905123-3.0154732 17.880388-5.8229828l-26.7166263-15.07736589zM77.966808 50.5647959L58.5270837 61.5868703c7.7966809 4.3672371 17.9843439 6.6548374 28.1720068 6.6548374V52.6444326c-3.2226281-.1039818-6.3413004-.8318547-8.7322825-2.0796367M95.4313731 50.4608141c-2.3909821 1.3517638-5.6136102 2.0796367-8.7322826 2.0796367v15.5972751c10.187663 0 20.375326-2.1836185 28.1720068-6.6548374 0 0 0 0 0 0L95.4313731 50.4608141s0 0 0 0M77.8628522 40.3745762s0 0 0 0L58.423128 29.35250177s0 0 0 0C50.62644713 33.8237206 46.67612883 39.6467033 46.67612883 45.469686H74.1204454c0-1.7676911 1.247469-3.6393641 3.7424068-5.0951098"/><path d="M77.7588965 50.4608141c-2.3909821-1.3517639-3.6384511-3.119455-3.6384511-4.8871462H46.67612883c0 5.8229827 3.9503183 11.5419836 11.74699917 15.9092206 0 0 .1039557 0 .1039557.1039818L77.966808 50.5647959c-.1039558-.1039818-.1039558-.1039818-.2079115-.1039818M86.5951348 38.3989213V22.80164622c-10.187663 0-20.375326 2.18361852-28.1720068 6.55085555L77.8628522 40.3745762c2.3909822-1.3517639 5.6136102-1.9756549 8.7322826-1.9756549M96.678842 49.6289594c-.415823.3119455-.8316459.623891-1.2474689.8318547l19.4397242 11.0220744c5.0938315-2.9114914 8.6283268-6.4468737 10.2916188-10.1902197-3.4305396.5199091-6.8610792.8318546-10.2916188.8318546-6.2373446 0-12.4746893-.8318546-18.1922553-2.495564"/><path d="M116.3264778 30.39232011l-1.4553805-.83185467L95.4313731 40.5825398c4.2621855 2.4955641 4.6780085 6.3428919 1.2474689 9.0464196 5.717566 1.6637094 11.8509549 2.495564 18.1922553 2.495564 3.4305396 0 6.9650349-.3119455 10.2916188-.8318546 3.3265838-7.1747466.4158229-15.077366-8.8362383-20.90034869"/></g><ellipse fill="#F07F00" fill-rule="nonzero" transform="rotate(-75.048 102.48895 107.373129)" cx="102.48895" cy="107.373129" rx="5.09480366" ry="3.95021286"/><ellipse fill="#1DBAE0" fill-rule="nonzero" transform="rotate(-76.89 125.848222 93.141187)" cx="125.848222" cy="93.1411872" rx="5.0948389" ry="3.95021019"/><ellipse fill="#1DBAE0" fill-rule="nonzero" transform="rotate(-73.937 101.662543 142.556037)" cx="101.662543" cy="142.556037" rx="5.09522571" ry="3.95055989"/><ellipse fill="#F07F00" fill-rule="nonzero" transform="rotate(-70.688 124.960304 128.485569)" cx="124.960304" cy="128.485569" rx="5.09479728" ry="3.95029277"/><ellipse fill="#F07F00" fill-rule="nonzero" transform="rotate(-72.843 101.169731 176.164921)" cx="101.169731" cy="176.164921" rx="5.09501199" ry="3.95041494"/></g><g opacity=".20175316" stroke="#000" stroke-dasharray="4" stroke-width=".8"><path d="M98.37111111 157.5672727v76.4072723M258.682831 247.327273v76.407272M332.905053 209.494545v76.407273M166.6472752 111.5745455v76.4072725M187.4294974 97.48v76.407273M347.007275 202.818182v76.407273M417.518386 159.7927273V236.2M258.682831 73v76.4072727M282.805053 297.4l-.371111 44.138182M347.192831 257.156364l-.371111 44.138181M598.063942 398.843636l-.371111 44.138182M529.779497 436.676364l-.371111 44.138181"/></g><g><g fill="#F5F5F5" transform="translate(365 77)"><ellipse cx="8.16475584" cy="4.81623616" rx="8.16475584" ry="4.81623616"/><ellipse cx="25.9787686" cy="15.1896679" rx="8.16475584" ry="4.81623616"/><path d="M45.2772824 30.3793358c4.5092701 0 8.1647558-2.1563024 8.1647558-4.8162362 0-2.6599338-3.6554857-4.8162361-8.1647558-4.8162361-4.5092702 0-8.1647559 2.1563023-8.1647559 4.8162361s3.6554857 4.8162362 8.1647559 4.8162362z"/></g><g fill="#FFF"><path d="M792.1246847 317.1972359c6.5184455 3.6394525 8.0180757 6.8081475 4.4988905 9.506085l-18.9322797-10.7802798c3.103814-2.7899893 7.9149437-2.3652577 14.4333892 1.2741948zm6.285046-5.5785562c2.9774395 1.6040117 3.9246183 4.1842532 2.1155833 5.7631309-1.8090351 1.5788776-5.6892393 1.5585025-8.6666787-.0455091-2.9774395-1.6040117-3.9246184-4.1842532-2.1155833-5.7631309 1.8090351-1.5788776 5.6892393-1.5585025 8.6666787.0455091zM758.3661458 294.56386892l19.0884961 11.12556598c1.8181122 1.0514122 2.1334848 2.6884943.7044044 3.6565252-1.4290804.968031-4.0614501.9004372-5.8795623-.150975l-19.0884961-11.125566c-1.8181122-1.0514121-2.1334848-2.68849424-.7044044-3.65652519 1.4290804-.96803096 4.0614501-.90043714 5.8795623.15097501zM743.99945055 286.40457698l6.05424605 3.77013522c1.7472833 1.04040886 2.0503698 2.66035849.6769627 3.61825876-1.3734071.95790027-3.90322651.89101384-5.65050977-.14939502l-6.05424608-3.77013522c-1.74728326-1.04040886-2.05036976-2.66035849-.67696265-3.61825876 1.37340711-.95790027 3.90322649-.89101384 5.65050975.14939502z"/></g></g><g opacity=".66029576" style="mix-blend-mode:overlay" fill="#FFF"><path d="M220.55055127 375.9957531l77.16983723 44.6964098c2.5629611 1.4792362 3.0075364 3.782454.9929867 5.1443809-2.0145498 1.3619269-5.7253556 1.2668289-8.2883167-.2124074l-77.16983724-44.6964098c-2.56296115-1.4792362-3.00753642-3.782454-.99298667-5.1443809 2.01454976-1.3619269 5.72535554-1.2668289 8.28831668.2124074z"/><path d="M391.04605607 454.6298676c1.41181574.8151122.82447695 2.46696662-1.31185807 3.68952003l-17.62169372 10.08430903c-2.13633501 1.22255339-5.0126795 1.55284977-6.42449533.73773752L305.1884683 434.2120081c-1.41181579-.81511223-.82447693-2.46696662 1.31185804-3.68952004l17.62169372-10.08430903c2.13633503-1.2225534 5.0126795-1.55284978 6.42449533-.73773753l60.49954069 34.9294261zm-63.54759302-33.4287942c-.47233649-.2727036-1.43101343-.16848982-2.14126499.23276795l-17.57566345 9.92940015c-.71025153.40125779-.90311976.94761137-.4307833 1.22031495l60.72209776 35.05791949c.4723364.27270355 1.4310134.16848987 2.14126496-.2327679l17.5756634-9.92940019c.71025155-.40125777.9031198-.9476114.43078332-1.220315l-60.7220977-35.05791945zm15.20271735 13.78128595c.19680323.1136244.37399748.24806435.53158265.40331983.15758518.15525546.27902503.32762228.36431945.5171004.08529442.18947814.12193915.3976128.10993402.6244039-.01200514.2267911-.0891964.4685345-.23157388.72523012l-2.66734365.17786712.04490381-.09321827c.09381947-.2155269.11094538-.41717623.05137757-.60494796-.06807735-.21459618-.24643846-.40521886-.53508317-.57186796-.28864471-.1666491-.64192451-.27128333-1.05983951-.31390273-.41791502-.04261936-.87128828-.02682944-1.36011973.04737008-.48883146.07419953-.99644872.2047482-1.5228516.39164614-.52640297.18689788-1.03735844.42361572-1.53286664.7101535-.5056205.2923856-.91742257.5892713-1.2354059.8906572-.31798338.30138597-.542628.59238746-.67393356.87300455-.13130568.28061712-.16319205.53975273-.09565918.77740677.06753296.23765408.23906169.4360182.51458611.5950923.3148852.18179905.6948138.28428981 1.13978598.30747238.44497219.02318257.92820292-.02503522 1.4496923-.14465332l-.192135 1.58940038-.19842666.04024947c-.8540037.16500018-1.63201462.20761584-2.33403288.12784713-.75601977-.08590474-1.37347352-.26710009-1.85236132-.54358609-.54448887-.3143608-.91487566-.68012327-1.11116054-1.09728729-.19628474-.41716406-.21648388-.8641337-.06059742-1.34090918.15588655-.47677542.48922639-.97088076 1.0000197-1.48231593.5107933-.51143516 1.19596748-1.01568043 2.05552242-1.51273586.85955489-.49705535 1.73169208-.89335747 2.61641156-1.18890637.88471944-.29554882 1.73958782-.4885495 2.56460516-.57900203.82501742-.09045248 1.5985912-.07913719 2.32072136.0339459.72213015.11308308 1.35543967.32680502 1.89992855.64116582zm15.24512518 8.616378c.19680324.1136244.3739974.24806431.53158266.40331984.15758518.15525546.27902502.32762228.36431945.5171004.08529442.18947813.12193906.39761275.10993401.6244039-.01200513.2267911-.08919648.46853445-.23157387.72523012l-2.66734376.17786711.04490394-.0932183c.09381947-.2155269.11094526-.41717624.05137754-.60494792-.06807743-.21459623-.24643846-.40521887-.53508317-.57186797-.2886447-.1666491-.6419245-.27128333-1.0598395-.31390272-.417915-.0426194-.8712883-.0268294-1.36011976.04737012-.4888314.07419944-.99644867.20474812-1.52285155.39164605-.52640296.18689789-1.03735849.42361582-1.53286669.7101536-.50562053.29238545-.91742252.58927121-1.2354059.89065718-.31798342.30138584-.54262795.59238739-.67393355.87300456-.1313057.28061712-.16319206.53975273-.09565919.77740677.06753296.23765409.2390616.43601815.51458612.5950923.31488519.18179905.69481379.28428981 1.13978602.3074723.44497219.02318256.92820293-.02503523 1.44969225-.14465324l-.19213494 1.58940029-.19842672.04024956c-.85400364.1650001-1.63201462.20761584-2.33403288.12784713-.75601972-.08590483-1.37347347-.26710017-1.85236126-.54358617-.54448888-.3143608-.91487572-.68012319-1.11116054-1.0972873-.1962848-.41716396-.21648398-.86413375-.06059743-1.34090917.15588641-.47677539.48922634-.97088068 1.00001965-1.48231585.51079336-.51143525 1.19596753-1.01568052 2.05552242-1.51273586.85955494-.49705543 1.73169213-.89335755 2.61641157-1.18890637.88471937-.2955489 1.73958784-.48854953 2.56460517-.57900207.82501742-.09045248 1.59859121-.07913719 2.32072137.03394589.72213015.11308309 1.35543967.32680503 1.89992854.64116583zm-10.35547645-5.76948785l-8.47049026 4.8875867 2.90876127 1.6793741-2.1626783 1.2478945-4.47888854-2.5858875 10.63316865-6.13548115 1.57012718.90651335zm5.30233004 3.31456158l-10.76812476 6.0575642-1.43517107-.8285964 10.76812477-6.0575642 1.43517106.8285964zm10.23725662 5.2662642l-4.41287321 2.54928282 7.08429311-1.00693782 1.98170792 1.1441396-7.99820543 1.08608278-2.36642893 5.20443674-2.11770742-1.22265895 2.24557845-4.52872197-5.04328374 2.91346607-1.51542364-.87493025 10.62691925-6.13908927 1.51542364.87493025zM474.08995907 501.4099776c1.41181574.8151122.82447695 2.46696662-1.31185807 3.68952003l-17.62169372 10.08430903c-2.13633501 1.22255339-5.0126795 1.55284977-6.42449533.73773752L388.2323713 480.9921181c-1.41181579-.81511223-.82447693-2.46696662 1.31185804-3.68952004l17.62169372-10.08430903c2.13633503-1.2225534 5.0126795-1.55284978 6.42449533-.73773753l60.49954069 34.9294261zm-63.54759302-33.4287942c-.47233649-.2727036-1.43101343-.16848982-2.14126499.23276795l-17.57566345 9.92940015c-.71025153.40125779-.90311976.94761137-.4307833 1.22031495l60.72209776 35.05791949c.4723364.27270355 1.4310134.16848987 2.14126496-.2327679l17.5756634-9.92940019c.71025155-.40125777.9031198-.9476114.43078332-1.220315l-60.7220977-35.05791945zm15.20271735 13.78128595c.19680323.1136244.37399748.24806435.53158265.40331983.15758518.15525546.27902503.32762228.36431945.5171004.08529442.18947814.12193915.3976128.10993402.6244039-.01200514.2267911-.0891964.4685345-.23157388.72523012l-2.66734365.17786712.04490381-.09321827c.09381947-.2155269.11094538-.41717623.05137757-.60494796-.06807735-.21459618-.24643846-.40521886-.53508317-.57186796-.28864471-.1666491-.64192451-.27128333-1.05983951-.31390273-.41791502-.04261936-.87128828-.02682944-1.36011973.04737008-.48883146.07419953-.99644872.2047482-1.5228516.39164614-.52640297.18689788-1.03735844.42361572-1.53286664.7101535-.5056205.2923856-.91742257.5892713-1.2354059.8906572-.31798338.30138597-.542628.59238746-.67393356.87300455-.13130568.28061712-.16319205.53975273-.09565918.77740677.06753296.23765408.23906169.4360182.51458611.5950923.3148852.18179905.6948138.28428981 1.13978598.30747238.44497219.02318257.92820292-.02503522 1.4496923-.14465332l-.192135 1.58940038-.19842666.04024947c-.8540037.16500018-1.63201462.20761584-2.33403288.12784713-.75601977-.08590474-1.37347352-.26710009-1.85236132-.54358609-.54448887-.3143608-.91487566-.68012327-1.11116054-1.09728729-.19628474-.41716406-.21648388-.8641337-.06059742-1.34090918.15588655-.47677542.48922639-.97088076 1.0000197-1.48231593.5107933-.51143516 1.19596748-1.01568043 2.05552242-1.51273586.85955489-.49705535 1.73169208-.89335747 2.61641156-1.18890637.88471944-.29554882 1.73958782-.4885495 2.56460516-.57900203.82501742-.09045248 1.5985912-.07913719 2.32072136.0339459.72213015.11308308 1.35543967.32680502 1.89992855.64116582zm15.24512518 8.616378c.19680324.1136244.3739974.24806431.53158266.40331984.15758518.15525546.27902502.32762228.36431945.5171004.08529442.18947813.12193906.39761275.10993401.6244039-.01200513.2267911-.08919648.46853445-.23157387.72523012l-2.66734376.17786711.04490394-.0932183c.09381947-.2155269.11094526-.41717624.05137754-.60494792-.06807743-.21459623-.24643846-.40521887-.53508317-.57186797-.2886447-.1666491-.6419245-.27128333-1.0598395-.31390272-.417915-.0426194-.8712883-.0268294-1.36011976.04737012-.4888314.07419944-.99644867.20474812-1.52285155.39164605-.52640296.18689789-1.03735849.42361582-1.53286669.7101536-.50562053.29238545-.91742252.58927121-1.2354059.89065718-.31798342.30138584-.54262795.59238739-.67393355.87300456-.1313057.28061712-.16319206.53975273-.09565919.77740677.06753296.23765409.2390616.43601815.51458612.5950923.31488519.18179905.69481379.28428981 1.13978602.3074723.44497219.02318256.92820293-.02503523 1.44969225-.14465324l-.19213494 1.58940029-.19842672.04024956c-.85400364.1650001-1.63201462.20761584-2.33403288.12784713-.75601972-.08590483-1.37347347-.26710017-1.85236126-.54358617-.54448888-.3143608-.91487572-.68012319-1.11116054-1.0972873-.1962848-.41716396-.21648398-.86413375-.06059743-1.34090917.15588641-.47677539.48922634-.97088068 1.00001965-1.48231585.51079336-.51143525 1.19596753-1.01568052 2.05552242-1.51273586.85955494-.49705543 1.73169213-.89335755 2.61641157-1.18890637.88471937-.2955489 1.73958784-.48854953 2.56460517-.57900207.82501742-.09045248 1.59859121-.07913719 2.32072137.03394589.72213015.11308309 1.35543967.32680503 1.89992854.64116583zm-10.35547645-5.76948785l-8.47049026 4.8875867 2.90876127 1.6793741-2.1626783 1.2478945-4.47888854-2.5858875 10.63316865-6.13548115 1.57012718.90651335zm5.30233004 3.31456158l-10.76812476 6.0575642-1.43517107-.8285964 10.76812477-6.0575642 1.43517106.8285964zm10.23725662 5.2662642l-4.41287321 2.54928282 7.08429311-1.00693782 1.98170792 1.1441396-7.99820543 1.08608278-2.36642893 5.20443674-2.11770742-1.22265895 2.24557845-4.52872197-5.04328374 2.91346607-1.51542364-.87493025 10.62691925-6.13908927 1.51542364.87493025z" fill-rule="nonzero"/><path d="M231.6764212 370.0685826l43.0576761 25.3087569c2.5640128 1.4958083 3.0087705 3.8248294.9933941 5.2020141-2.0153763 1.3771847-5.7277047 1.2810213-8.2917175-.214787l-43.0576761-25.3087569c-2.5640127-1.4958084-3.0087704-3.8248294-.9933941-5.2020141 2.0153764-1.3771848 5.7277047-1.2810214 8.2917175.214787zM253.240569 358.17819923l50.3960298 29.82425517c2.5805728 1.4835686 3.028203 3.793532.9998101 5.1594477-2.0283929 1.3659157-5.7646978 1.2705391-8.3452706-.2130295l-50.3960298-29.82425515c-2.5805728-1.48356861-3.028203-3.79353203-.9998101-5.1594477 2.0283929-1.36591568 5.7646979-1.27053913 8.3452706.21302948zM242.7268502 364.10999379l22.3851116 13.54125791c2.5448193 1.472819 2.9862476 3.766045.9859578 5.1220636-2.0002897 1.3560186-5.6848286 1.2613332-8.2296478-.2114859l-22.3851117-13.5412579c-2.5448192-1.472819-2.9862476-3.76604504-.9859578-5.12206364 2.0002898-1.3560186 5.6848286-1.26133312 8.2296479.21148593zM276.8341672 384.1586126l22.3851117 13.5412579c2.5448192 1.472819 2.9862476 3.766045.9859578 5.1220636-2.0002898 1.3560186-5.6848286 1.2613332-8.2296478-.2114859l-22.3851117-13.5412579c-2.5448192-1.472819-2.9862476-3.7660451-.9859578-5.1220637s5.6848286-1.2613331 8.2296478.211486z"/></g><g fill="#FFF"><g opacity=".69115048" style="mix-blend-mode:overlay"><path d="M530.7046668 321.9141485l99.0455242 57.3274535c3.289496 1.897263 3.860097 4.851361 1.274473 6.598164-2.585623 1.746802-7.348348 1.62483-10.637843-.272433l-99.04552484-57.3274531c-3.28949549-1.897263-3.86009655-4.8513618-1.27447315-6.5981643 2.58562341-1.7468025 7.3483483-1.6248301 10.63784379.2724329zM544.803356 314.5082312l55.2828303 32.1330318c3.2920003 1.8991393 3.8630359 4.8561596 1.2754436 6.6046896-2.5875922 1.74853-7.3539437 1.626437-10.645944-.2727024l-55.2828303-32.1330317c-3.2920003-1.8991394-3.8630358-4.8561596-1.2754436-6.6046896 2.5875923-1.74853 7.3539437-1.626437 10.645944.2727023zM572.3383175 298.9488823l64.8020265 38.0824704c3.318245 1.8943627 3.893833 4.8439456 1.285612 6.5880778-2.608221 1.7441322-7.41257 1.6223463-10.730815-.2720165l-64.8020266-38.0824704c-3.3182444-1.8943627-3.8938323-4.8439456-1.2856115-6.5880778 2.6082208-1.7441322 7.4125701-1.6223463 10.7308146.2720165zM586.4276729 290.8007341l43.6868051 25.2363029c3.318244 1.8943628 3.893832 4.8439457 1.285611 6.5880779-2.608221 1.7441322-7.41257 1.6223462-10.730814-.2720165l-43.6868052-25.2363029c-3.3182444-1.8943628-3.8938323-4.8439457-1.2856115-6.5880779 2.6082208-1.7441322 7.4125701-1.6223462 10.7308146.2720165zM643.52664 324.1340674l29.523584 17.0140807c3.318245 1.8943628 3.893833 4.8439457 1.285612 6.5880779-2.608221 1.7441322-7.41257 1.6223463-10.730815-.2720165l-29.523584-17.0140807c-3.318245-1.8943627-3.893833-4.8439457-1.285612-6.5880778 2.608221-1.7441322 7.41257-1.6223463 10.730815.2720164zM559.5312828 307.0927972l28.7144989 17.3679682c3.2643665 1.8890324 3.8306087 4.8303158 1.2647372 6.5695403-2.5658714 1.7392246-7.2922131 1.6177813-10.5565796-.2712511l-28.714499-17.3679682c-3.2643665-1.8890324-3.8306086-4.8303157-1.2647372-6.5695403 2.5658714-1.7392245 7.2922131-1.6177813 10.5565797.2712511zM603.2824391 332.2779824l28.7144989 17.3679682c3.264367 1.8890324 3.830609 4.8303158 1.264737 6.5695403-2.565871 1.7392245-7.292213 1.6177813-10.556579-.2712511l-28.7144993-17.3679682c-3.2643666-1.8890324-3.8306087-4.8303157-1.2647373-6.5695403 2.5658714-1.7392245 7.2922131-1.6177813 10.5565797.2712511zM617.9656145 275.10075066l78.6628745 44.75672274c4.816716 2.6452299 5.652231 6.7639367 1.866175 9.1993892-3.786056 2.4354525-10.75998 2.2653943-15.576697-.3798355l-78.6628741-44.7567228c-4.8167163-2.64522979-5.6522314-6.76393659-1.8661754-9.19938909 3.786056-2.4354525 10.7599808-2.26539437 15.576697.37983545z"/></g><path d="M575.702375 242.7964014c3.715108 2.0619165 3.280988 5.7039115-.967721 8.11858l-58.5603741 33.2816117c-4.2487092 2.4146685-10.7277961 2.7016554-14.4429043.6397389l-51.20569892-28.4195964c-3.7151082-2.0619165-3.28098882-5.7039115.96772043-8.11858l58.56037409-33.28161166c4.2487093-2.41466851 10.7277962-2.70165536 14.4429044-.63973886l51.2056994 28.41959632zm-39.2024758 11.9821079l-31.146797 1.3792229-.6732394 5.6420391-4.0844534.1809182 1.5493204-12.9978466-49.57749226 2.1955502c-.8737813 1.2367787-.55126623 2.6031995 1.0405641 3.4866788l51.20569896 28.4195963c2.2294691 1.2373743 6.1160547 1.0652206 8.6657426-.3838433l21.1233433-12.0050277 1.8973127-15.9172879zm36.1203508-10.2304441l-51.2056994-28.41959635c-2.2294691-1.23737426-6.1160547-1.06522054-8.6657426.38384332l-56.70647595 32.22798593 50.46129295-2.2347457-.8768514 7.3562454 35.2320208-1.560579-1.8980832 15.9177259 33.0789058-18.7997315c2.549688-1.4490638 2.810102-3.6337737.580633-4.871148zm-68.2205971 19.5854729l-.5309975 4.4547429-4.0850311.1809437.5309975-4.4547429 4.0850311-.1809437zm19.7969151-36.6506862c4.3686546 2.4246403 3.8582789 6.7063794-1.1370751 9.5453884-4.9953541 2.8390091-12.6139861 3.1764713-16.981967.752205-4.3679808-2.4242664-3.8582789-6.7063794 1.1378457-9.5458264 4.995354-2.8390091 12.6125418-3.1764073 16.9811964-.751767zm-3.0813544 1.7512258c-2.8816681-1.5993502-7.9084726-1.377095-11.2040347.4958715-3.2963326 1.8734044-3.6330993 4.6986703-.7507575 6.2983944 2.8823419 1.5997241 7.9084726 1.377095 11.2048052-.4963094 3.2955621-1.8729665 3.6316551-4.6986063.749987-6.2979565z" fill-rule="nonzero" opacity=".78778367" style="mix-blend-mode:overlay"/></g><g transform="translate(664 441)"><path fill="#000" fill-rule="nonzero" opacity=".1" d="M0 164.353429l88.1647071-52.676346 85.0748229 49.581431-85.0748229 54.219319z"/><path fill="url(#t)" d="M0 119.365031l88.1647071-52.6763463L173.23953 116.261145l-85.0748229 54.228289z"/><path fill="url(#u)" fill-rule="nonzero" d="M173.23953 136.786261l-85.7107122 54.954921L.42989699 140.473246 0 119.365031l88.1647071 51.124403 85.0748229-54.228289z"/><path fill="url(#v)" fill-rule="nonzero" d="M88.1647071 170.489434v20.794239l85.0748229-54.497412v-20.525116z"/><path fill="url(#t)" d="M0 86.2449576l88.1647071-52.6763461L173.23953 83.1410721 88.1647071 137.369361z"/><path fill="url(#u)" fill-rule="nonzero" d="M173.23953 83.1410721v20.5251159l-85.7107122 54.954921L.42989699 107.353173 0 86.2449576l88.1647071 51.1244034z"/><path fill="url(#v)" fill-rule="nonzero" d="M88.1647071 137.369361V158.1636l85.0748229-54.497412V83.1410721z"/><path fill="url(#t)" d="M0 52.792966L88.1647071.11661998 173.23953 49.6890805 88.1647071 103.917369z"/><path fill="url(#u)" fill-rule="nonzero" d="M173.23953 70.2141963L87.5288178 125.169117.42989699 73.9011817 0 52.792966l88.1647071 51.124403L173.23953 49.6890805z"/><path fill="url(#v)" fill-rule="nonzero" d="M88.1647071 103.917369v20.794239L173.23953 70.2141963V49.6890805z"/><ellipse fill="#F18600" fill-rule="nonzero" transform="rotate(-75.05 99.506271 107.569894)" cx="99.5062708" cy="107.569894" rx="5.53436507" ry="4.36213632"/><ellipse fill="#F18600" fill-rule="nonzero" transform="rotate(-78.96 112.137694 99.584211)" cx="112.137694" cy="99.584211" rx="5.53463376" ry="4.36192389"/><ellipse fill="#38CFF2" fill-rule="nonzero" transform="rotate(-76.89 125.031654 92.056042)" cx="125.031654" cy="92.0560421" rx="5.53450088" ry="4.36202895"/><ellipse fill="#38CFF2" fill-rule="nonzero" transform="rotate(-73.94 98.551123 141.241897)" cx="98.5511235" cy="141.241897" rx="5.53427533" ry="4.36220727"/><ellipse fill="#F18600" fill-rule="nonzero" transform="rotate(-70.69 124.078498 125.728803)" cx="124.078498" cy="125.728803" rx="5.53398023" ry="4.36244054"/><ellipse fill="#F18600" fill-rule="nonzero" transform="rotate(-72.84 98.017088 174.501837)" cx="98.0170882" cy="174.501837" rx="5.53418075" ry="4.36228203"/><path stroke="#00AEEF" stroke-width=".96768" stroke-linecap="round" stroke-linejoin="round" d="M88.6483412 48.3793485l2.248003-1.4712059"/><ellipse stroke="#FFF" stroke-width=".96768" fill="#FFF" fill-rule="nonzero" opacity=".4" stroke-linecap="round" stroke-linejoin="round" cx="88.3617433" cy="48.9624484" rx="32.1168874" ry="20.7583557"/><path d="M63.50595167 59.71008423l-9.35868645-5.38839598-5.3785913-11.45738405-5.00957327 2.93035931 3.90656738 7.24675332-12.2739085-2.35226122-5.2532822 3.07291733 19.7844992 3.03062106 9.35868636 5.38839588 4.22428878-2.47100565zm12.80102556-7.05635072c1.01094096-.59135182 1.77727697-1.25543827 2.29900813-1.99225945.52173126-.73682119.76601111-1.49718897.73283967-2.28110324-.03317144-.78391427-.34570051-1.56628035-.93758721-2.34709822-.5918867-.78081788-1.48695125-1.51617925-2.68519365-2.2060843-1.1982424-.68990497-2.4724098-1.2035095-3.82250219-1.54081352-1.35009239-.33730401-2.7006411-.51247857-4.05164623-.52552346-1.35100513-.013045-2.65924167.13473468-3.92470952.44333894-1.26546785.30860437-2.4036722.7585824-3.41461316 1.34993422-1.01094086.59135172-1.77727697 1.25543827-2.29900813 1.99225946-.52173126.73682119-.76601112 1.49718886-.73283968 2.28110314.03317144.78391427.34570062 1.56628034.93758731 2.34709822.5918867.78081787 1.48695125 1.51617934 2.68519365 2.2060843 1.1982424.68990507 2.4724098 1.2035096 3.8225021 1.54081362 1.35009238.337304 2.7006412.51247846 4.05164623.52552346 1.35100513.013045 2.65924167-.13473469 3.92470952-.44333905 1.26546785-.30860426 2.4036723-.7585823 3.41461316-1.34993412zm-4.0905517-2.35519293c-1.02899331.60191168-2.17902613.86697159-3.45009836.79517992-1.27107223-.07179166-2.47474058-.43479764-3.61100486-1.08901793-1.13626437-.6542202-1.7712784-1.34986162-1.9050421-2.08692408-.13376368-.73706236.31385114-1.40654949 1.34284455-2.00846107 1.02899341-.60191169 2.17902624-.8669717 3.45009846-.79518003 1.27107223.07179176 2.47474049.43479774 3.61100486 1.08901794 1.13626428.6542203 1.7712783 1.34986162 1.9050421 2.08692408.13376368.73706246-.31385123 1.40654948-1.34284465 2.00846117zm18.65893209-6.16660877c.48741797-.28511605.86642314-.59074465 1.13701551-.9168856.27059247-.32614107.45473481-.64967227.55242724-.97059372.09769243-.32092144.1147514-.63064564.0511769-.92917258-.0635744-.29852694-.16776702-.57329427-.31257786-.8243019l.05415756-.03167951 2.0452758 1.17759647 3.8993435-2.28092833-15.06066747-8.6713922-4.0618162 2.37596704 7.49934473 4.31785372c.4958245.28547794.94391076.57490074 1.34425901.86826838.40034815.29336765.69554215.59429133.8855819.90277086.19003976.30847964.23104859.62020641.12302649.93518033-.1080221.31497402-.4237946.62557881-.94731758.93181459-.52352298.30623578-1.04914754.469823-1.57687379.49076179-.52772624.02093878-1.05555006-.04199411-1.58347166-.18879857-.5279215-.14680446-1.03783942-.34610461-1.52975359-.59790038-.49191416-.25179576-.95479453-.50259028-1.3886409-.75238346l-7.37538857-4.24648419-4.0618161 2.37596704L78.873702 42.8793469c1.01230822.58285076 2.01097943 1.08974985 2.99601353 1.52069717s1.97378316.72783358 2.96624711.8906588c.99246405.16282521 1.98989743.1608809 2.99230044-.00583293 1.00240302-.16671384 2.01810113-.55102655 3.04709455-1.15293813zm14.35898443-8.83094893l-6.29077225-3.62200124c-.7437367-.42821692-1.38939025-.84186882-1.93696077-1.24095567-.54757053-.39908676-.92158934-.79777956-1.12205644-1.19607819-.200467-.39829873-.19900027-.80081563.0044004-1.20755101.20340067-.40673528.69323008-.83713974 1.46948833-1.29121347.30689272-.17951756.62607034-.33624644.95753274-.47018696.3314623-.13394041.69326204-.25565223 1.08539902-.36513524l-4.24549676-2.44440486c-.26055572.08047368-.51850466.1834021-.7738467.30878532-.25534206.12538313-.50035444.25671379-.73503715.39399187-.90262583.52799271-1.41938746 1.10004437-1.55028508 1.71615509-.13089762.61611071.05185874 1.31851986.5482692 2.10722752l-.05415757.0316795-2.41714414-1.39170487-4.0618161 2.37596703 15.06066798 8.6713922 4.06181529-2.37596702zM86.8481605 78.11575208l-3.05070648-3.61090258 7.44666284-4.35593962 6.3001594 1.71012902 4.76586463-2.7878013-30.2804945-7.75374614-3.49316177 2.04333159 13.65412679 17.47937132 4.65754909-2.72444228zm-1.12977028-9.48252672l-4.68462798 2.740282-4.48881151-5.28754276 9.17343949 2.54726076zm29.50626353 1.0846803l-8.67692739-4.99586383.05415737-.0316796c1.19244277.1417658 2.30400823.08504976 3.3346954-.17014798 1.03068716-.25519783 1.97026542-.63095337 2.81873379-1.12726647.93873064-.54911234 1.55608431-1.16801581 1.85206201-1.85671053.2959767-.6886946.32934518-1.39762833.10010545-2.126801-.22923973-.72917277-.68428281-1.45215469-1.36512924-2.16894595-.68084543-.71679118-1.54808205-1.3785071-2.60170886-1.98514777-1.13626377-.6542202-2.33300808-1.16515465-3.59023091-1.53280318-1.25722284-.36764853-2.51620533-.58439487-3.77694849-.6502391-1.26074215-.06584424-2.4793681.02352253-3.65587661.26810008-1.17650872.24457766-2.25218096.65198258-3.2270168 1.22221466-.46936543.27455617-.83934437.57490484-1.10993674.9010458-.27059246.32614106-.46827425.65759217-.59304546.99435332-.12477111.33676124-.17858686.66199139-.16144714.97569064.01713981.31369925.0787592.59538514.18485804.84505769l-.05415746.0316795-1.98329778-1.1419117-3.7368708 2.18588971 22.12616533 12.73945275 4.06181629-2.37596704zm-7.85967336-7.91984132c-1.02899391.6019116-2.17902713.86697162-3.45009866.79517994-1.27107253-.07179166-2.47474118-.43479764-3.61100496-1.08901794-1.13626448-.65422029-1.7712785-1.34986162-1.9050422-2.08692408-.13376378-.73706245.31385113-1.40654948 1.34284455-2.00846116 1.02899361-.6019116 2.17902583-.8669716 3.45009836-.79517993 1.27107253.07179166 2.47474018.43479765 3.61100496 1.08901793 1.13626478.65422029 1.7712781 1.34986163 1.905042 2.08692409.13376388.73706245-.31385114 1.40654948-1.34284405 2.00846115zm24.91930098-2.0592203l-8.67692738-4.99586383.05415736-.0316795c1.19244277.1417658 2.30400824.08504977 3.3346954-.17014807 1.03068716-.25519784 1.97026543-.63095327 2.8187338-1.12726638.93873064-.54911234 1.5560843-1.1680159 1.852062-1.85671052.2959767-.6886947.32934519-1.39762833.10010546-2.1268011-.22923974-.72917268-.68428282-1.4521547-1.36512924-2.16894585-.68084543-.71679128-1.54808205-1.3785072-2.60170886-1.98514777-1.13626378-.6542203-2.33300808-1.16515466-3.59023092-1.53280319-1.25722283-.36764853-2.51620532-.58439486-3.77694848-.6502391-1.26074216-.06584423-2.4793681.02352243-3.65587682.26810009-1.17650872.24457766-2.25218035.65198257-3.2270169 1.22221466-.46936482.27455616-.83934437.57490474-1.10993663.9010458-.27059227.32614106-.46827376.65759216-.59304547.99435331-.1247707.33676124-.17858685.6619914-.16144644.97569064.01713942.31369915.0787589.59538504.18485745.8450576l-.05415737.0316796-1.98329817-1.1419117-3.7368701 2.1858896 22.12616502 12.73945276 4.0618163-2.37596704zm-7.85967335-7.91984131c-1.02899392.6019117-2.17902714.86697171-3.45009867.79517993-1.27107252-.07179166-2.47474118-.43479763-3.61100495-1.08901783-1.13626478-.65422029-1.77127811-1.34986163-1.905042-2.08692408-.13376388-.73706246.31385113-1.40654959 1.34284404-2.00846116 1.02899392-.6019117 2.17902614-.8669717 3.45009867-.79517994 1.27107253.07179166 2.47474018.43479765 3.61100495 1.08901794 1.13626478.65422019 1.77127811 1.34986152 1.905042 2.08692398.13376388.73706246-.31385113 1.40654958-1.34284404 2.00846116z" fill="#000" fill-rule="nonzero" opacity=".11972191"/><path d="M63.50595169 53.77703703l-9.35868645-5.38839598L48.76867393 36.931257l-5.00957326 2.93035931 3.90656737 7.24675332-12.2739085-2.35226122-5.2532822 3.07291733 19.78449921 3.03062096 9.35868635 5.38839598 4.22428879-2.47100565zm12.80102555-7.05635072c1.01094096-.59135182 1.77727697-1.25543827 2.29900813-1.99225945.52173126-.73682119.76601112-1.49718897.73283968-2.28110324-.03317145-.78391427-.34570052-1.56628035-.93758722-2.34709822-.5918867-.78081788-1.48695124-1.51617925-2.68519364-2.2060843-1.1982424-.68990497-2.4724098-1.2035095-3.8225022-1.54081352-1.35009239-.33730401-2.7006411-.51247857-4.05164623-.52552346-1.35100513-.013045-2.65924167.13473468-3.92470952.44333894-1.26546785.30860437-2.4036722.7585824-3.41461316 1.34993412-1.01094086.59135182-1.77727697 1.25543837-2.29900813 1.99225956-.52173126.73682119-.76601112 1.49718886-.73283967 2.28110314.03317144.78391427.3457006 1.56628034.9375873 2.34709822.5918867.78081787 1.48695126 1.51617934 2.68519366 2.2060843 1.1982424.68990507 2.4724098 1.2035095 3.82250209 1.54081362 1.35009239.337304 2.7006412.51247846 4.05164623.52552346 1.35100513.013045 2.65924167-.13473469 3.92470952-.44333905 1.26546785-.30860426 2.4036723-.7585823 3.41461316-1.34993412zm-4.0905517-2.35519293c-1.0289933.60191168-2.17902613.86697159-3.45009836.79517992-1.27107222-.07179166-2.47474058-.43479764-3.61100485-1.08901793-1.13626438-.6542202-1.77127841-1.34986162-1.9050421-2.08692408-.13376368-.73706246.31385113-1.40654949 1.34284454-2.00846117 1.02899342-.60191159 2.17902624-.8669716 3.45009847-.79517993 1.27107223.07179176 2.47474048.43479764 3.61100485 1.08901794 1.13626428.6542203 1.77127831 1.34986162 1.9050421 2.08692408.13376369.73706246-.31385123 1.40654948-1.34284464 2.00846117zm18.65893209-6.16660888c.48741797-.28511604.86642315-.59074454 1.13701551-.9168856.27059247-.32614096.45473482-.64967216.55242725-.9705936.09769242-.32092145.11475139-.63064565.0511769-.92917259-.0635744-.29852694-.16776702-.57329427-.31257787-.8243019l.05415757-.03167951 2.0452758 1.17759647 3.8993435-2.28092843-15.06066748-8.6713921-4.06181619 2.37596704 7.49934473 4.31785372c.49582449.28547784.94391076.57490074 1.344259.86826838.40034815.29336765.69554215.59429123.8855819.90277086.19003976.30847964.2310486.62020641.1230265.93518033-.1080221.31497402-.4237946.62557881-.94731758.93181459-.52352299.30623578-1.04914755.469823-1.5768738.49076179-.52772624.02093878-1.05555006-.04199411-1.58347165-.18879857-.5279215-.14680446-1.03783943-.34610461-1.5297536-.59790038-.49191416-.25179576-.95479452-.50259028-1.3886409-.75238347l-7.37538857-4.24648418-4.06181609 2.37596704L78.873702 36.9462997c1.01230823.58285076 2.01097944 1.08974985 2.99601353 1.52069717.9850341.43094732 1.97378317.72783358 2.96624712.8906588.99246404.16282521 1.98989743.1608809 2.99230044-.00583293 1.00240301-.16671384 2.01810113-.55102655 3.04709454-1.15293824zm14.35898443-8.83094882l-6.29077225-3.62200134c-.74373669-.42821682-1.38939025-.84186872-1.93696077-1.24095557-.54757052-.39908676-.92158934-.79777956-1.12205644-1.19607819-.200467-.39829873-.19900027-.80081573.0044004-1.20755101.20340067-.40673528.69323008-.83713984 1.46948833-1.29121347.30689273-.17951756.62607034-.33624654.95753274-.47018696.3314623-.13394041.69326204-.25565223 1.08539903-.36513524l-4.24549676-2.44440486c-.26055573.08047368-.51850466.1834021-.77384672.30878522-.25534205.12538323-.50035443.25671389-.73503714.39399197-.90262583.52799271-1.41938746 1.10004437-1.55028508 1.71615509-.13089762.61611071.05185874 1.31851986.5482692 2.10722752l-.05415757.0316795-2.41714414-1.39170487-4.0618161 2.37596703 15.06066798 8.6713922 4.0618153-2.37596702zm-18.38618155 42.8147692l-3.05070647-3.61090258 7.44666283-4.35593962 6.30015941 1.71012902 4.76586462-2.7878013-30.2804945-7.75374624-3.49316176 2.04333169 13.65412678 17.47937122 4.6575491-2.72444218zm-1.12977028-9.48252682l-4.68462798 2.740282-4.4888115-5.28754266 9.17343948 2.54726066zm29.50626353 1.0846803l-8.67692738-4.99586373.05415736-.0316796c1.19244277.1417658 2.30400824.08504976 3.3346954-.17014808 1.03068716-.25519773 1.97026543-.63095327 2.8187338-1.12726637.93873063-.54911234 1.5560843-1.16801591 1.852062-1.85671053.2959767-.6886946.32934519-1.39762833.10010546-2.126801-.22923974-.72917277-.68428282-1.45215469-1.36512925-2.16894595-.68084542-.71679118-1.54808204-1.3785071-2.60170886-1.98514777-1.13626377-.6542202-2.33300808-1.16515465-3.5902309-1.53280318-1.25722284-.36764853-2.51620534-.58439487-3.7769485-.6502391-1.26074215-.06584424-2.47936809.02352243-3.65587661.26810008-1.17650872.24457766-2.25218095.65198258-3.2270168 1.22221466-.46936542.27455617-.83934437.57490474-1.10993673.9010458-.27059247.32614106-.46827426.65759217-.59304547.99435332-.1247711.33676124-.17858686.66199139-.16144714.97569064.01713982.31369925.0787592.59538514.18485805.84505769l-.05415747.0316795-1.98329777-1.1419117-3.73687081 2.18588971 22.12616533 12.73945265 4.06181629-2.37596704zm-7.85967335-7.91984122c-1.02899392.6019116-2.17902714.86697162-3.45009867.79517994-1.27107253-.07179166-2.47474118-.43479764-3.61100496-1.08901794-1.13626447-.65422029-1.7712785-1.34986162-1.90504219-2.08692408-.13376379-.73706246.31385113-1.40654948 1.34284454-2.00846116 1.02899362-.6019117 2.17902584-.8669716 3.45009837-.79517993 1.27107252.07179166 2.47474018.43479765 3.61100495 1.08901793 1.13626478.65422019 1.77127811 1.34986163 1.905042 2.08692409.13376388.73706245-.31385113 1.40654948-1.34284404 2.00846115zm24.91930098-2.0592203l-8.67692739-4.99586383.05415737-.0316795c1.19244277.1417658 2.30400823.08504977 3.3346954-.17014807 1.03068716-.25519784 1.97026542-.63095327 2.81873379-1.12726638.93873064-.54911244 1.55608431-1.1680159 1.85206201-1.85671052.2959767-.6886947.32934518-1.39762833.10010545-2.1268011-.22923973-.72917268-.68428281-1.4521547-1.36512924-2.16894585-.68084543-.71679128-1.54808205-1.3785072-2.60170886-1.98514777-1.13626378-.6542203-2.33300808-1.16515466-3.59023091-1.53280319-1.25722284-.36764853-2.51620533-.58439486-3.77694849-.6502391-1.26074215-.06584423-2.4793681.02352243-3.65587681.26810009-1.17650872.24457766-2.25218036.65198247-3.2270169 1.22221466-.46936483.27455616-.83934437.57490474-1.10993664.9010458-.27059227.32614096-.46827375.65759206-.59304546.99435331-.12477071.33676114-.17858686.6619914-.16144644.97569064.01713941.31369915.0787589.59538504.18485744.8450576l-.05415736.0316796-1.98329818-1.1419117-3.7368701 2.1858896 22.12616502 12.73945276 4.0618163-2.37596704zm-7.85967336-7.91984131c-1.02899391.6019117-2.17902713.86697171-3.45009866.79517993-1.27107253-.07179166-2.47474118-.43479763-3.61100496-1.08901783-1.13626478-.65422029-1.7712781-1.34986163-1.905042-2.08692408-.13376388-.73706246.31385113-1.40654959 1.34284405-2.00846116 1.02899391-.6019117 2.17902613-.8669717 3.45009866-.79517994 1.27107253.07179166 2.47474018.43479765 3.61100496 1.08901784 1.13626477.65422029 1.7712781 1.34986162 1.905042 2.08692408.13376388.73706246-.31385113 1.40654958-1.34284405 2.00846116z" fill="#FFF" fill-rule="nonzero" opacity=".7414202"/></g></g></svg>