<svg width="915" height="643" fill="none" xmlns="http://www.w3.org/2000/svg"><path d="M881.015 422.544c0 4.001-2.628 7.877-7.884 10.878 0 0-8.11 4.609-12.165 6.914C744.753 506.377 512.327 638.46 512.327 638.46c-10.637 6.002-27.908 6.002-38.546 0L7.88438 374.427C2.62813 371.426 0 367.424 0 363.548c0-4.002 2.62813-7.878 7.88438-10.879L368.688 147.632c10.638-6.002 27.908-6.002 38.546 0l465.897 264.033c5.256 2.876 7.884 6.877 7.884 10.879Z" fill="#F2F4F6"/><path opacity=".422596" d="M881.015 323.239c0 4.002-2.628 7.878-7.884 10.879 0 0-8.11 4.609-12.165 6.913-116.213 66.042-348.639 198.125-348.639 198.125-10.637 6.002-27.908 6.002-38.546 0L7.88438 275.122C2.62813 272.121 0 268.12 0 264.244c0-4.002 2.62813-7.878 7.88438-10.879L368.688 48.3275c10.638-6.0021 27.908-6.0021 38.546 0L873.131 312.361c5.256 2.876 7.884 6.877 7.884 10.878Z" fill="url(#a)"/><path fill-rule="evenodd" clip-rule="evenodd" d="M57.4696 149.589c.9967-1.806 2.4918-2.99 4.4853-3.613 1.9312-.623 3.8-.436 5.6066.561 1.8066.996 3.0525 2.491 3.6132 4.422.1246.374.1869.685.2492.997h.1246l7.1017 34.878h.0623c.4984 1.682.3115 3.301-.5606 4.859-.8099 1.557-2.1181 2.615-3.8001 3.114-1.682.498-3.3017.311-4.9214-.561-1.4951-.81-2.4918-2.055-2.9902-3.799v-.125c-.0623-.062-.0623-.124-.0623-.187l-9.1575-34.442c-.0312-.094-.0779-.203-.1246-.312-.0468-.109-.0935-.218-.1246-.311-.6853-1.807-.4984-3.675.4984-5.481ZM55.414 218.35c1.8688-1.869 4.1115-2.741 6.7902-2.678 2.6165.062 4.8591 1.059 6.6657 2.989 1.8066 1.931 2.6787 4.173 2.6164 6.789 0 .748-.1245 1.433-.3114 2.118-.065 1.006-.1468 2.013-.228 3.01-.0745.916-.1484 1.825-.2081 2.72-1.2459 18.062-2.1804 33.135-2.9279 45.218-.0623.685-.1246 1.868-.1869 3.488v-.312l-.1246 4.672V289.229l-.4361 13.204v.187c-.0623 1.37-.5606 2.491-1.5574 3.488-1.059.934-2.2426 1.432-3.6132 1.432-1.4328-.062-2.6164-.623-3.4885-1.619-.9968-.997-1.4328-2.18-1.4328-3.613v-.622l-2.1181-17.066c-2.741-21.986-4.3607-34.505-4.7968-37.557-.3738-2.492-.623-4.858-.623-7.225-.0623-5.855.8722-11.398 2.8657-16.692l.3114.062c.3738-1.868 1.3082-3.488 2.8034-4.858Zm-17.6297 8.72c-2.6165-.063-4.9214.809-6.7903 2.616-1.4328 1.432-2.3673 3.114-2.9902 5.045l-.2492-.125c-.8099 2.118-1.4328 4.298-1.9312 6.478-.7475 3.301-1.059 6.726-1.059 10.214 0 2.367.1246 4.796.4983 7.225.4984 3.052 1.9935 15.571 4.5477 37.619l1.9934 17.066c-.0623.125-.0623.374-.0623.685-.0623 1.37.4361 2.554 1.3706 3.613.9344.996 2.0557 1.557 3.4885 1.619 1.3705 0 2.6165-.436 3.6755-1.433.9967-.996 1.4951-2.117 1.5574-3.487v-.187l.4984-13.267c0-.342.0156-.685.0311-1.027.0156-.343.0312-.685.0312-1.028.0623-.249.0623-.561.0623-.81l.1869-4.671v.311c.0623-1.619.1246-2.802.1868-3.425.8099-12.083 1.9312-27.156 3.3017-45.156.0623-.187.0623-.436.0623-.623.1869-1.744.3115-3.488.4361-5.232.1869-.685.2492-1.37.3115-2.117.1246-2.554-.6853-4.796-2.4919-6.789-1.8065-1.993-4.0492-2.99-6.6656-3.114Z" fill="#DFE4E8"/><path d="M38.532 174.004c4.2361.125 7.787 1.744 10.7149 4.796 2.8656 3.052 4.2361 6.664 4.1115 10.899v.063l-4.1738 47.398c-.1246 2.74-1.1213 5.107-2.9279 7.162.1246-1.744.3114-3.488.436-5.232.1869-.685.2492-1.432.3115-2.117.1246-2.554-.7475-4.858-2.4918-6.789-1.8066-1.931-4.0493-2.99-6.6657-3.114-2.6787-.125-4.9214.747-6.7903 2.616-1.4328 1.432-2.4295 3.052-2.8656 4.982l-.2492-.124c-.8098 2.117-1.4328 4.235-1.9312 6.477-.5606-1.37-.8721-2.803-.9344-4.36h-.0623c-.4361-11.896-.9344-23.73-1.5574-35.501.7476.249 1.5574.311 2.4295.187 1.7443-.187 3.1771-.935 4.2985-2.243 1.1836-1.37 1.6197-2.927 1.4328-4.671v-.125l-.1869-18.871c2.1804-.997 4.5476-1.495 7.1018-1.433Z" fill="#37474F"/><path d="M60.9763 122.303c.3995.216.7341.507 1.0686.798l22.4794 25.676 7.5586 5.273s4.4346.893 6.6831.768c2.248-.124 7.72 2.302 7.621 4.132-.187 3.425-7.0482-.21-6.8077 1.515.3338 2.394 8.0677 7.701 7.3717 8.698-.566.82-3.434 1.328-4.559 1.39-1.124.062-11.2984-3.17-13.2496-4.473l-.0837-.072-.1672-.146-37.1776-28.512c-.3158-.143-.4831-.289-.799-.432-2.1371-1.595-3.5872-3.643-4.2015-6.146-.5493-2.577-.1696-4.872 1.2877-6.886 1.3923-1.94 3.2587-3.073 5.7479-3.403 2.7027-.407 5.0902.225 7.2273 1.82Z" fill="#DFE4E8"/><path d="M28.7263 74.5002c.0815-.0862.0791-.17.0768-.2538.6281-1.5272 1.5125-2.8939 2.483-4.1792 2.8347-3.602 6.4591-5.9682 10.7102-6.9263 5.2451-1.4053 10.4535-1.1323 15.4552.74 3.5783-1.023 6.8565-.7797 9.921.8116 2.8083 1.4307 4.7997 3.6391 5.9741 6.6253 1.2581 2.9839 1.4244 5.9145.5848 8.8734-.9211 3.0451-2.9482 5.5341-6.0024 7.2973.0956.4166.1888.7495.2844 1.1661.4944 2.6698.0622 5.198-1.3759 7.7543-.2374.5099-.5609.9383-.8843 1.3668 2.1721-.3127 4.1187.3036 5.9213 1.7625 1.9772 1.7058 3.128 3.8538 3.3733 6.6148.1215 1.338-.0132 2.516-.2364 3.529 1.5855-.296 2.7966 1.012 3.4587 3.677.7482 2.746.2509 5.947-1.3242 9.598-1.5751 3.65-6.5335 6.305-14.959 7.968-7.5181 7.088-17.222 8.032-29.0326 2.66-3.0824.758-5.4199 1.159-6.9262 1.285-1.5087.043-3.6974-.231-6.4775-.656-2.7824-.509-4.9108-1.624-6.5504-3.255-1.7305-1.88-2.6322-4.119-2.7052-6.717-.1332-1.758.3249-3.364 1.2069-4.814 1.0449-1.623 2.6859-2.927 4.7555-3.908-1.6326-1.38-2.604-3.114-2.9167-5.286-.2288-2.174.3899-4.036 1.7701-5.668l.4073-.431c.7332-.775 1.8854-1.563 3.5406-2.364 1.9019-.976 3.2241-1.684 3.7991-2.1194.9031-.6963 1.6316-1.6393 2.2715-2.7476.1366-10.0677 1.2682-17.5636 3.397-22.4038Z" fill="#1B127D"/><path d="m40.6936 90.4232 2.9211-.5013c2.4089-.8223 4.7152-2.3125 7.0841-4.559 1.878-1.8135 3.8208-4.2996 5.7473-7.3722 1.4448-2.3044 2.9131-3.771 4.3188-4.4813 1.6157.7931 2.9174 2.3496 3.9888 4.6672 1.514 3.1436 2.3067 7.4814 2.3806 13.097.0433 4.5265-.5259 8.1479-1.7076 10.8644-.87 1.869-1.8426 3.07-3.0831 3.692-1.3219.708-3.8335.862-7.5346.463l.0253 6.875c.2641 3.43-1.2066 4.813-4.582 4.069-1.2664-.3-3.1311-1.002-5.5918-2.023-2.5445-1.018-3.8414-2.407-3.8932-4.251l-.0047-.167c-.0118-.419-.0235-.838-.0353-1.257-.0094-.335-.0188-.67-.0259-.921l-.4241-9.1277c-.91.4447-1.8294.5547-2.7559.4127-1.0102-.1393-1.7785-.6208-2.4677-1.2722-1.297-1.3889-2.0097-2.8782-2.3105-4.6305-.3008-1.7523-.0056-3.186.9693-4.3034.975-1.1174 2.0549-1.4831 3.5704-1.2741 1.3454.1299 2.4559.8533 3.4107 2.0004Z" fill="#DFE4E8"/><path d="M43.0542 102.061c.5428 1.41 1.4975 2.557 2.6942 3.362 1.4551 1.049 4.5071 2.221 9.0721 3.518l.0156-2.432c-2.1858-.19-4.4624-.629-6.7461-1.32-2.7935-.927-4.5001-1.969-5.0358-3.128Z" fill="#000" fill-opacity=".0862745"/><path d="M38.6091 317.464c1.1692-.304 1.6993-.698 1.6657-1.116l-.1064-1.325c.3519.884 1.795 2.242 4.271 4.22 2.7661 2.094 5.3536 3.712 7.8209 4.707 3.7093 1.598 5.6016 2.429 5.7467 2.487 1.979 1.035 3.1151 2.067 3.414 3.166.4078 1.582-.0551 2.813-1.3776 3.831-1.3281.95-3.3875 1.536-6.2423 1.836-2.7851.293-5.4225-.197-7.9066-1.402-1.0969-.543-2.8023-1.67-5.186-3.374-1.7809-1.191-3.69-2.231-5.6577-3.126-1.4569-.655-2.4031-1.071-2.7687-1.252-.9574-.555-1.5715-1.208-1.9066-1.883-.3407-.745-.4053-2.424-.194-5.039.1753-2.19.5098-3.27 1.0094-3.17l.0616.768c.3769.32 1.0328.619 1.8226.836.8596.212 1.8531.343 2.8299.264.773.008 1.6744-.134 2.7041-.428Z" fill="#1B127D"/><path d="M32.5499 320.263c-1.5205-1-1.9498-2.428-1.3724-4.366.4931-1.938 1.075-3.119 1.5763-3.711 1.0036-1.015 2.2626-1.528 3.6929-1.536 1.4303-.009 2.6954.488 3.7111 1.492.7618.752 1.2721 1.674 1.4465 2.683.9326 1.172 1.3568 1.758 1.4419 1.926.9331 1.256 2.2864 2.426 4.1449 3.676 2.4506 1.752 4.9843 3.335 7.6011 4.75 1.2666.749 1.8591 1.334 1.7775 1.756-.1652.505-.7522.845-1.9286 1.105-1.2595.428-2.6893.521-4.373.363-2.1886-.156-4.296-.816-6.406-1.897-1.1809-.497-2.5322-1.331-4.1378-2.499-3.3746-1.494-5.8221-2.741-7.1744-3.742Z" fill="#DFE4E8"/><path d="m25.0821 239.608.5779-4.582c4.6475.237 12.5101.71 23.583 1.334-.4083 7.52-1.4366 21.815-3.0007 42.88-5.0333 4.755-11.5185 4.792-19.6331-.046-1.1614-12.821-1.9368-21.873-2.0694-27.088-.1729-4.454.0046-8.676.5423-12.498Z" fill="#37474F"/><path d="M44.4244 230.168c1.8053 1.945 2.6383 4.229 2.5407 6.855-.0976 2.625-1.098 4.841-3.0411 6.605-1.9432 1.764-4.2288 2.639-6.8538 2.542-2.6249-.098-4.8408-1.098-6.6044-3.042-1.8053-1.945-2.6398-4.188-2.5422-6.813.0976-2.626 1.0979-4.842 3.0426-6.648 1.9031-1.807 4.1871-2.64 6.8121-2.543 2.625.098 4.8409 1.098 6.6461 3.044Z" fill="#37474F"/><path d="M46.0583 228.333c2.2857 2.463 3.3405 5.355 3.2169 8.679-.1235 3.325-1.39 6.131-3.8504 8.365-2.4622 2.286-5.3542 3.341-8.6778 3.217-3.3237-.123-6.1294-1.39-8.3624-3.851-2.2858-2.462-3.3425-5.302-3.2189-8.627.1235-3.324 1.39-6.13 3.8523-8.416 2.4095-2.289 5.3015-3.344 8.6251-3.22 3.3237.123 6.1294 1.39 8.4152 3.853Z" fill="#37474F"/><path d="M56.0842 122.434c-1.7025-1.2-2.6811-2.79-3.0212-4.753-.3548-2.049.0324-3.875 1.2322-5.578 1.1999-1.703 2.7889-2.682 4.8376-3.036 2.0488-.355 3.8744.032 5.4915 1.247 1.7026 1.2 2.7666 2.775 3.1214 4.824s-.0324 3.875-1.247 5.493c-1.1999 1.702-2.7889 2.681-4.7522 3.021-2.1194.455-3.9597-.018-5.6623-1.218ZM60.3826 158.901c-1.7026-1.2-2.6812-2.789-3.0212-4.753-.3549-2.049.0323-3.875 1.2322-5.578 1.1998-1.703 2.7888-2.682 4.8376-3.036 2.0487-.355 3.8743.032 5.4915 1.247 1.7025 1.2 2.7665 2.775 3.1213 4.824.3549 2.049-.0323 3.875-1.247 5.493-1.1998 1.702-2.7888 2.681-4.7522 3.021-2.1341.37-3.9597-.018-5.6622-1.218Z" fill="#FFA8A7"/><path d="m53.1279 117.758 14.8004-1.707 4.1809 36.258-14.8003 1.706-4.181-36.257Z" fill="#FFA8A7"/><path d="m55.4054 140.819 1.1426 6.599c2.0784.66 4.4343.761 7.0821.388 2.6335-.456 5.2721-1.423 7.8393-2.802.0908-.016.1673-.114.2582-.129-.3194-1.304-.7958-3.516-1.5824-6.438-2.2039 1.316-4.5701 2.236-7.2179 2.609-2.5427.44-5.0803.37-7.5219-.227Z" fill="url(#b)"/><path d="M52.095 126.68c-.0746-.921-.0589-2.793.0327-5.697-.035-1.184-.0415-2.202-.0051-2.973l-.0142-.082c-.4681-2.213.0138-4.335 1.1982-6.325 1.3637-1.935 3.1858-3.185 5.4948-3.585 2.2948-.482 4.4168 0 6.3374 1.282 1.824 1.213 2.9486 2.802 3.5387 4.739.0286.165.0429.248.1539.398l.0571.33c.0714.413.1429.825.1175 1.169l.165-.028.0207 1.1 2.5851 14.93c1.5926 3.802 2.0893 6.18 1.5438 6.954-.5312.856-1.4351 1.522-2.6435 1.902-.0253.344-1.8649 1.002-5.5584 2.236-3.5428 1.124-6.5148 1.128-8.9984.029 0 0-1.0896-.406-3.1038-1.246-1.5051-.844-1.9953-2.203-1.3881-4.093.5644-2.136.7749-5.826.4666-11.04Z" fill="url(#c)"/><path d="m55.4054 140.819 1.1426 6.599c2.0784.66 4.4343.761 7.0821.388 2.6335-.456 5.2721-1.423 7.8393-2.802.0908-.016.1673-.114.2582-.129-.3194-1.304-.7958-3.516-1.5824-6.438-2.2039 1.316-4.5701 2.236-7.2179 2.609-2.5427.44-5.0803.37-7.5219-.227Z" fill="#000" fill-opacity=".1098"/><path d="M52.095 126.68c-.0746-.921-.0589-2.793.0327-5.697-.035-1.184-.0415-2.202-.0051-2.973l-.0142-.082c-.4681-2.213.0138-4.335 1.1982-6.325 1.3637-1.935 3.1858-3.185 5.4948-3.585 2.2948-.482 4.4168 0 6.3374 1.282 1.824 1.213 2.9486 2.802 3.5387 4.739.0286.165.0429.248.1539.398l.0571.33c.0714.413.1429.825.1175 1.169l.165-.028.0207 1.1 2.5851 14.93c1.5926 3.802 2.0893 6.18 1.5438 6.954-.5312.856-1.4351 1.522-2.6435 1.902-.0253.344-1.8649 1.002-5.5584 2.236-3.5428 1.124-6.5148 1.128-8.9984.029 0 0-1.0896-.406-3.1038-1.246-1.5051-.844-1.9953-2.203-1.3881-4.093.5644-2.136.7749-5.826.4666-11.04Z" fill="#ED26B7"/><path d="M70.3235 215.948c2.4904 2.255 3.7919 5.044 3.9573 8.366s-.8526 6.227-3.1093 8.665c-2.2541 2.491-5.043 3.792-8.3641 3.958-3.3212.165-6.2256-.853-8.6633-3.11-2.4903-2.255-3.7892-4.992-3.9546-8.314-.1655-3.321.8525-6.226 3.1066-8.717 2.2014-2.488 4.9903-3.79 8.3114-3.955 3.3212-.166 6.2256.852 8.716 3.107ZM69.6635 166.532c3.1546 2.856 4.8033 6.39 5.0127 10.598.2094 4.208-1.0802 7.888-3.939 10.976-2.8555 3.155-6.3884 4.804-10.5955 5.014-4.2071.209-7.8863-1.081-10.9741-3.94-3.1547-2.856-4.8-6.323-5.0094-10.531-.2094-4.208 1.0802-7.888 3.9357-11.043 2.7887-3.152 6.3216-4.801 10.5287-5.01 4.2071-.21 7.8862 1.08 11.0409 3.936Z" fill="#263238"/><path d="m74.3772 224.723-24.1738 1.481c-1.7891-15.203-3.8415-31.047-6.2406-47.521l30.8812-1.523-.4668 47.563Z" fill="#263238"/><path d="m49.5106 228.248.5392-4.585c4.6478.197 12.5116.604 23.5859 1.134-.3448 7.521-1.2521 21.82-2.6381 42.89-4.9915 4.796-11.474 4.888-19.621.204-1.2692-12.807-2.1206-21.849-2.381-27.056-.132-4.54.0098-8.762.515-12.587Z" fill="#37474F"/><path d="M68.8039 218.651c1.8211 1.93 2.6731 4.206 2.5976 6.832-.0755 2.625-1.0568 4.849-2.9844 6.629-1.9288 1.821-4.2051 2.674-6.83 2.598-2.625-.075-4.8485-1.057-6.6279-2.985-1.8211-1.929-2.6742-4.164-2.5988-6.789.0755-2.626 1.0568-4.85 2.9856-6.671 1.8872-1.823 4.1635-2.675 6.7884-2.6 2.6249.076 4.8485 1.057 6.6695 2.986Z" fill="#37474F"/><path d="M70.4333 216.756c2.3058 2.443 3.3846 5.326 3.2891 8.65-.0954 3.324-1.3379 6.14-3.7785 8.394-2.4422 2.306-5.3243 3.385-8.6479 3.29-3.3236-.096-6.139-1.338-8.3921-3.78-2.3058-2.442-3.3861-5.272-3.2906-8.596.0954-3.325 1.3379-6.141 3.78-8.447 2.3894-2.308 5.2716-3.387 8.5951-3.291 3.3236.095 6.1391 1.338 8.4449 3.78Z" fill="#37474F"/><path d="M64.3231 304.978c1.1761-.273 1.716-.653 1.6934-1.072l-.0718-1.327c.3285.893 1.735 2.288 4.1571 4.328 2.7092 2.165 5.2522 3.848 7.6913 4.907 3.6643 1.693 5.5333 2.573 5.6768 2.635 1.9502 1.085 3.0584 2.146 3.3284 3.252.3663 1.591-.1283 2.808-1.48 3.722-1.3517.914-3.4245 1.446-6.2846 1.671-2.7902.221-5.4124-.338-7.8629-1.606-1.0818-.572-2.7563-1.742-5.0935-3.507-1.7482-1.236-3.5587-2.329-5.5711-3.271-1.4386-.692-2.3033-1.136-2.6638-1.326-.9421-.58-1.5387-1.248-1.8559-1.931-.3209-.753-.3417-2.433-.0586-4.97.2321-2.184.5946-3.254 1.0911-3.141l.0415.769c.3682.33 1.0157.645 1.7992.883.8533.234 1.8425.39 2.8204.338.7721.028 1.6764-.091 2.643-.354Z" fill="#1B127D"/><path d="M58.2047 307.629c-1.4931-1.039-1.8848-2.476-1.2575-4.398.5432-1.923 1.1553-3.088 1.6716-3.666 1.0291-.989 2.3003-1.468 3.7295-1.439 1.4293.029 2.6803.558 3.6689 1.587.7415.772 1.2274 1.707 1.3753 2.719.9012 1.195 1.3098 1.792 1.3905 1.962.8995 1.279 2.2211 2.483 4.0454 3.781 2.4028 1.814 4.8929 3.462 7.4705 4.943 1.246.782 1.8227 1.382 1.7302 1.8-.1783.501-.7735.826-1.9556 1.054-1.2696.395-2.7005.451-4.3786.249-2.1825-.212-4.2709-.927-6.3525-1.977-1.1652-.612-2.4935-1.48-4.0673-2.689-3.3326-1.58-5.7455-2.89-7.0704-3.926Z" fill="#DFE4E8"/><path d="M25.7065 162.172c1.0953-2.946 2.6957-5.723 4.9695-8.247 4.4635-5.05 10.0207-7.657 16.5876-7.992 6.5668-.251 12.2911 1.939 17.257 6.486 3.1983 3.031 5.3862 6.651 6.5638 10.692-.0001.084.3364 1.262 1.0092 3.62.6729 2.272 1.0931 4.798 1.2607 7.575.6717 6.566-1.3505 12.289-5.9823 17.17-4.6318 4.881-10.6941 7.32-18.187 7.318-5.8091-.002-11.0286-.845-15.5743-2.698-1.0101-.337-2.0203-.674-2.9463-1.179-.0841-.085-.2525-.169-.4208-.253-8.9231-3.538-10.604-14.06-4.9584-31.314l.3371-1.094s0-.084.0842-.084Z" fill="#37474F"/><path d="M22.9617 167.252c2.8402-7.377 6.4096-12.24 10.8703-14.428 17.9241-10.211 30.8975-5.748 38.758 13.307 1.8638 4.622 3.241 9.487 4.0505 14.676 2.5902 16.621 4.0469 27.242 4.2889 31.783.4034 7.459 1.5328 28.133 3.3073 62.023l-1.3791 2.108c-1.3791 1.621-3.0824 3.242-5.1101 4.701-6.6509 4.7-15.5717 7.292-26.8436 7.938-11.2719.645-20.9214-.898-28.8673-4.63-3.973-1.866-6.8106-3.812-8.513-5.758 1.389-37.214 2.6125-62.509 3.6705-75.886.8953-11.594 2.1953-20.917 3.7381-28.051.5684-2.675 1.2178-5.27 2.0295-7.783Z" fill="#1B127D"/><path fill-rule="evenodd" clip-rule="evenodd" d="M59.6619 288.632c1.622-.404 3.1628-.728 4.7037-1.052.2456-8.351-.8837-29.836-3.3067-64.456-1.2115-17.188-2.4232-33.647-3.7163-49.214.6452 12.405 1.2879 34.052 1.8468 64.861.4789 27.323.6364 43.943.4725 49.861Zm14.5168-4.779c1.4598-.729 2.7575-1.458 3.9741-2.35-.4013-14.756-1.7743-34.539-4.119-59.186-1.0507-12.324-2.5871-27.648-4.6093-45.89 1.7777 22.377 3.0687 45.403 3.7919 69.077.4822 15.324.803 28.052.9623 38.349Zm-29.5185 5.829c-1.4596 0-3.1625-.082-5.1087-.244.3298-19.134.8213-36.808 1.3935-53.104 1.0628-30.484 2.1225-50.023 3.3412-58.536-.3263 7.135-.5724 17.107-.7382 29.917-.2505 25.863.1472 53.185 1.1122 81.967Zm-22.1373-4.627c1.3784.649 2.6757 1.217 3.8919 1.622-.9662-24.404-.4721-51.158 1.4011-80.102.6515-9.729 1.4652-19.701 2.5223-29.916-2.6 17.836-4.5517 37.537-5.7741 58.94-1.0591 17.512-1.7125 33.97-2.0412 49.456Z" fill="#000" fill-opacity=".2"/><path d="M49.246 180.17c-6.6656.561-12.7707-.124-18.2527-1.931-5.5444-1.868-8.4723-3.55-8.8461-4.982-.3737-1.433-.6852-3.364-.9344-5.73l53.5124-3.239c.2491 2.429-.623 4.671-2.6788 6.789-1.9935 2.055-4.3607 3.799-6.9771 5.169-4.0493 2.118-9.2822 3.426-15.8233 3.924Z" fill="url(#d)"/><path d="M30.9969 178.159c-5.4865-1.879-8.4196-3.511-8.8014-4.996-.3798-1.385-.6839-3.369-.9062-5.654l53.4485-3.28c.3122 2.383-.6073 4.69-2.6748 6.723-2.0655 2.132-4.4047 3.772-7.0135 5.119-3.9979 2.172-9.2438 3.473-15.7377 3.904-6.7513.735-12.8284.063-18.3149-1.816Z" fill="#ED26B7"/><path d="M55.8492 107.174c3.6754.56 6.6657 2.429 8.9083 5.481.7476.996 1.3705 2.117 1.8689 3.238.7475 1.121 1.4328 2.243 1.9935 3.364.1869.373.3737.747.4983 1.121l.3738.934c1.682 2.865 2.4296 5.792 2.2427 8.907-.1246 1.93-.623 3.861-1.4951 5.667.6229 4.547 1.4951 7.91 2.5541 10.09 1.1836 2.367 1.5574 4.734 1.2459 7.163.0623.062.1246.125.1246.187.6853.996 1.2459 1.993 1.5574 3.052.8099 2.242.9968 4.671.5607 7.225-.1869 1.183-.5607 2.242-1.1213 3.114-1.1837 2.055-3.1148 3.425-5.7936 4.235-3.8623 2.678-11.8362 4.298-23.8594 4.858-12.1477.561-20.0593-1.432-23.7348-5.917-.3738-1.121-.6853-2.18-.8721-3.114-.3738-2.18-.3115-3.986.1868-5.419 2.5542-5.045 2.6165-11.833.1869-20.366-2.4918-8.595-3.1771-14.201-2.118-16.879.1246-.81.3114-1.557.5606-2.18.0623-.187.0623-.312.0623-.374 1.7443-4.858 7.2887-8.969 16.6331-12.394.3115-.125.6852-.249.9967-.312 0-.062.0623-.062.0623-.062 2.1804-.561 4.9837-1.121 8.41-1.619 2.9279-.499 6.2296-.561 9.9674 0Z" fill="#ED26B7"/><path d="M74.2407 153.433c.3634.582.6372 1.081.9093 1.496-7.0969 5.36-16.3705 7.399-27.7315 6.201 12.7339-.428 21.7337-2.967 26.8222-7.697Z" fill="#000" fill-opacity=".1176"/><path d="M38.0683 109.178s-.0035-.169-.0944-.503c.3347-.091.6676-.266 1.0847-.443 2.5897-.894 6.87-1.402 12.7549-1.606.2591.331.4307.496.4307.496.3553.918.7139 2.004.9078 3.262.3793 2.095-.012 3.533-1.1757 4.23-1.4107.954-3.3432 1.077-5.7956.454-2.1144-.545-3.8992-1.434-5.3528-2.582-1.3661-.982-2.2311-2.142-2.7596-3.308Z" fill="#DFE4E8"/><path d="M37.4018 141.806c-2.8733-1.455-4.6603-3.269-5.432-5.356 6.0691 4.418 12.3038 6.226 18.6327 5.508-4.698 2.03-9.0745 1.951-13.2007-.152Z" fill="#000" fill-opacity=".0862745"/><path d="M23.0214 170.466c-1.2699-1.65-1.7334-3.457-1.4763-5.433.2682-2.061 1.1788-3.69 2.8288-4.96 1.65-1.27 3.457-1.734 5.5181-1.466 2.0611.268 3.6893 1.179 4.8733 2.818 1.27 1.65 1.7334 3.458 1.4652 5.519-.2683 2.062-1.2648 3.679-2.9036 4.863-1.6499 1.271-3.4569 1.734-5.4322 1.477-1.9752-.257-3.6034-1.167-4.8733-2.818Z" fill="#FFA8A7"/><path d="m20.7559 122.036 15.2539.176-.5154 44.745-15.254-.176.5155-44.745Z" fill="#DFE4E8"/><path d="M28.8789 115.066c2.3181-.034 4.3563.72 6.0062 2.4 1.5652 1.502 2.4113 3.281 2.5923 5.267.0152.123.038.309.0532.432l-.0315.255c-.0087.44-.025.819-.0413 1.197l.1237-.015-.1183 1.082.1891 15.852c.8644 3.973.9673 6.345.3012 7.054-.6585.772-1.6717 1.21-3.032 1.377-.2776-.217-.5477-.372-.8797-.52-1.5284-.691-3.5211-1.073-6.1711-1.187-3.2218-.17-5.2774-.043-6.2287.388-1.0132.438-1.4775.746-1.3929.924.0228.185-.857-.334-2.5698-1.504-1.7127-1.171-2.0262-2.701-1.0021-4.584 1.0166-1.944 1.8357-5.496 2.4575-10.655.3625-3.182.739-5.739.9984-7.716.1171-.579.1801-1.089.3124-1.544-.0335-2.318.7281-4.294 2.3391-5.998 1.6803-1.649 3.7067-2.526 6.0943-2.505Z" fill="#ED26B7"/><path d="m19.8622 152.037.0483-6.694c1.9413-.906 4.2481-1.392 6.9203-1.456 2.6716.019 5.4318.541 8.1889 1.482.0921 0 .1836.085.2758.085-.1018 1.338-.2103 3.597-.4163 6.608-2.3886-.938-4.8724-1.458-7.544-1.477-2.6716-.019-5.1633.548-7.473 1.452Z" fill="#000" fill-opacity=".1098"/><path d="m19.8622 152.037.0483-6.694c1.9413-.906 4.2481-1.392 6.9203-1.456 2.6716.019 5.4318.541 8.1889 1.482.0921 0 .1836.085.2758.085-.1018 1.338-.2103 3.597-.4163 6.608-2.3886-.938-4.8724-1.458-7.544-1.477-2.6716-.019-5.1633.548-7.473 1.452Z" fill="#ED26B7"/><g><path d="M35.5513 161.966c.3995.216.734.507 1.0686.798l22.4793 25.675 7.5586 5.274s4.4347.893 6.6831.768c2.2484-.124 7.7204 2.302 7.6208 4.132-.1866 3.425-7.048-.21-6.8075 1.515.3338 2.394 8.0681 7.701 7.3721 8.698-.5662.82-3.4349 1.328-4.5591 1.39-1.1242.062-11.2987-3.17-13.2499-4.473l-.0836-.073c-.0837-.072-.0837-.072-.1673-.145l-37.1775-28.512c-.3159-.143-.4832-.289-.799-.432-2.1372-1.595-4.3462-3.138-4.9605-5.641-.3167-1.486-.3294-5.82 0-7.119.242-.954 1.417-4.232 2.034-5.085 1.3923-1.939 3.6129-.687 6.102-1.017 2.7028-.407 4.7487 2.652 6.8859 4.247Z" fill="#FFA8A7"/></g><g><path d="M914.136 402.746c0 2.685-1.764 5.287-5.29 7.301l-5.385 3.148c-7.137 4.029-18.726 4.029-25.864 0L399.429 139.077c-3.527-2.015-5.291-4.7-5.291-7.302 0-2.686 1.764-5.287 5.291-7.302l5.384-3.148c7.138-4.028 18.726-4.028 25.864 0l478.169 274.119c3.526 1.93 5.29 4.616 5.29 7.302Z" fill="#F2F4F6"/><path d="M909.789 307.265c0 4.007-2.629 7.888-7.887 10.893L512.767 538.322c-10.641 6.01-27.917 6.01-38.558 0L8.16473 273.945C2.90682 270.94.277867 266.933.277867 263.052c0-4.007-1.745367-20.036 3.512543-23.041L397.299 16.9234c10.642-6.0099 27.917-6.0099 38.559 0L906.259 284.211c5.258 2.88 3.53 19.047 3.53 23.054Z" fill="#BFC9D1"/><path d="M909.639 291.835c0 4.002-2.629 7.878-7.885 10.879L513.155 522.605c-10.638 6.002-27.908 6.002-38.546 0L8.71201 258.572c-5.25625-3.001-7.884373-7.003-7.884373-10.879 0-4.001 2.628123-7.878 7.884373-10.879L397.311 16.9233c10.638-6.0021 27.908-6.0021 38.546 0L901.754 280.956c5.256 2.876 7.885 6.878 7.885 10.879Z" fill="#fff" stroke="#1B127D"/><path fill-rule="evenodd" clip-rule="evenodd" d="M909.167 291.103c0 2.671-1.755 5.258-5.265 7.261l-5.358 3.131c-7.104 4.006-18.637 4.006-25.741 0L396.919 28.8992c-3.51-2.003-5.265-4.6738-5.265-7.261 0-2.6708 1.755-5.258 5.265-7.2611l5.358-3.1305c7.104-4.00612 18.637-4.00612 25.741 0L903.902 283.842c3.51 1.92 5.265 4.591 5.265 7.261Z" fill="#fff" stroke="#1B127D"/><path fill-rule="evenodd" clip-rule="evenodd" d="M909.167 283.656c0 2.67-1.755 5.258-5.265 7.261l-5.358 3.13c-7.104 4.006-18.637 4.006-25.741 0L396.919 21.4514c-3.51-2.0031-5.265-4.6738-5.265-7.2611 0-2.6707 1.755-5.258 5.265-7.26104l5.358-3.13056c7.104-4.006095 18.637-4.006095 25.741 0L903.902 276.394c3.51 1.92 5.265 4.591 5.265 7.262Z" fill="#fff" stroke="#1B127D"/><g><path d="m191.896 362.765 397.313-225.746c11.714-6.608-403.101 229.05-397.313 225.746ZM91.623 307.155 488.936 81.4085C500.65 74.8002 85.8349 310.459 91.623 307.155ZM291.011 418.955l397.312-225.746c11.714-6.609-403.1 229.05-397.312 225.746ZM390.125 475.144l397.313-225.746c11.714-6.608-403.101 229.051-397.313 225.746Z" stroke="#BFC9D1" stroke-dasharray="2.5 5"/><path d="M592.275 479.769 87.8153 193.245C72.9422 184.858 599.624 483.963 592.275 479.769ZM693.128 421.842l-504.46-286.524c-14.873-8.388 511.809 290.718 504.46 286.524ZM790.503 365.652 286.044 79.1282C271.171 70.7407 797.852 369.846 790.503 365.652Z" stroke="#BFC9D1" stroke-dasharray="2.5 5.63"/><path fill-rule="evenodd" clip-rule="evenodd" d="m397.994 130.634 3.978 2.293-8.088 4.73 8.088 4.572-3.431 2.249-8.81-4.498-8.096 4.484-3.887-2.235 7.83-4.572-6.955-3.891 3.66-2.021 7.448 3.589 8.263-4.7Zm-94.557 58.483-3.977-2.293-8.264 4.699-7.448-3.588-3.66 2.021 6.955 3.891-7.829 4.572 3.887 2.234 8.095-4.483 8.811 4.497 3.43-2.248-8.087-4.573 8.087-4.729Zm-100.774 57.325-3.978-2.292-8.263 4.699-7.448-3.589-3.661 2.022 6.956 3.891-7.83 4.571 3.887 2.235 8.096-4.484 8.81 4.498 3.431-2.249-8.088-4.572 8.088-4.73Zm299.003-57.325-3.978-2.293-8.263 4.699-7.448-3.588-3.66 2.021 6.955 3.891-7.83 4.572 3.887 2.234 8.096-4.483 8.81 4.497 3.431-2.248-8.088-4.573 8.088-4.729Zm-102.512 53.897 3.977 2.292-8.087 4.73 8.087 4.572-3.43 2.249-8.811-4.498-8.095 4.484-3.887-2.235 7.829-4.572-6.955-3.89 3.66-2.022 7.448 3.589 8.264-4.699Zm-100.775 57.325 3.978 2.293-8.088 4.73 8.088 4.572-3.431 2.249-8.81-4.498-8.096 4.484-3.887-2.235 7.83-4.572-6.956-3.89 3.661-2.022 7.448 3.589 8.263-4.7Zm297.922-57.325 3.978 2.292-8.088 4.73 8.088 4.572-3.431 2.249-8.81-4.498-8.096 4.484-3.887-2.235 7.83-4.572-6.956-3.89 3.661-2.022 7.448 3.589 8.263-4.699Zm-94.557 58.482-3.977-2.293-8.264 4.7-7.448-3.589-3.66 2.021 6.955 3.891-7.829 4.572 3.887 2.234 8.095-4.483 8.811 4.498 3.43-2.249-8.087-4.573 8.087-4.729ZM400.97 358.822l-3.978-2.293-8.263 4.699-7.448-3.588-3.661 2.021 6.956 3.891-7.83 4.572 3.887 2.234 8.096-4.483 8.81 4.497 3.431-2.248-8.088-4.573 8.088-4.729Zm294.946-59.619 3.978 2.293-8.088 4.729 8.088 4.573-3.431 2.249-8.81-4.498-8.096 4.483-3.887-2.234 7.83-4.572-6.956-3.891 3.66-2.021 7.449 3.589 8.263-4.7Zm-94.557 58.483-3.977-2.293-8.264 4.699-7.448-3.589-3.66 2.022 6.955 3.891-7.83 4.571 3.887 2.235 8.096-4.484 8.811 4.498 3.43-2.249-8.087-4.572 8.087-4.729Zm-100.775 57.325-3.977-2.292-8.264 4.699-7.448-3.589-3.66 2.022 6.955 3.89-7.829 4.572 3.887 2.235 8.095-4.484 8.811 4.498 3.43-2.249-8.087-4.572 8.087-4.73Z" fill="#DFE4E8"/><g fill="#DFE4E8"><ellipse cx="164.238" cy="249.965" rx="6.08596" ry="4.05492"/><ellipse cx="264.512" cy="194.354" rx="6.08596" ry="4.05492"/><ellipse cx="365.944" cy="137.006" rx="6.08596" ry="4.05492"/><ellipse cx="465.638" cy="80.8167" rx="6.08596" ry="4.05492"/><ellipse cx="13.5381" cy="249.965" rx="6.08596" ry="4.05492"/><ellipse cx="113.812" cy="194.354" rx="6.08596" ry="4.05492"/><ellipse cx="215.244" cy="137.006" rx="6.08596" ry="4.05492"/><ellipse cx="314.939" cy="80.8167" rx="6.08596" ry="4.05492"/><ellipse cx="87.7285" cy="207.098" rx="6.08596" ry="4.05492"/><ellipse cx="188.003" cy="151.488" rx="6.08596" ry="4.05492"/><ellipse cx="289.435" cy="94.1399" rx="6.08596" ry="4.05492"/><ellipse cx="389.129" cy="37.9503" rx="6.08596" ry="4.05492"/><ellipse cx="87.7285" cy="291.093" rx="6.08596" ry="4.05492"/><ellipse cx="188.003" cy="235.483" rx="6.08596" ry="4.05492"/><ellipse cx="289.435" cy="178.135" rx="6.08596" ry="4.05492"/><ellipse cx="389.129" cy="121.945" rx="6.08596" ry="4.05492"/><g><ellipse cx="263.352" cy="306.154" rx="6.08596" ry="4.05492"/><ellipse cx="363.626" cy="250.544" rx="6.08596" ry="4.05492"/><ellipse cx="465.058" cy="193.196" rx="6.08596" ry="4.05492"/><ellipse cx="564.752" cy="137.006" rx="6.08596" ry="4.05492"/><ellipse cx="112.652" cy="306.154" rx="6.08596" ry="4.05492"/><ellipse cx="212.925" cy="250.544" rx="6.08596" ry="4.05492"/><ellipse cx="314.358" cy="193.196" rx="6.08596" ry="4.05492"/><ellipse cx="414.053" cy="137.006" rx="6.08596" ry="4.05492"/><ellipse cx="186.843" cy="263.288" rx="6.08596" ry="4.05492"/><ellipse cx="287.117" cy="207.678" rx="6.08596" ry="4.05492"/><ellipse cx="388.549" cy="150.33" rx="6.08596" ry="4.05492"/><ellipse cx="488.243" cy="94.1399" rx="6.08596" ry="4.05492"/><ellipse cx="186.843" cy="347.283" rx="6.08596" ry="4.05492"/><ellipse cx="287.117" cy="291.673" rx="6.08596" ry="4.05492"/><ellipse cx="388.549" cy="234.324" rx="6.08596" ry="4.05492"/><ellipse cx="488.243" cy="178.135" rx="6.08596" ry="4.05492"/></g><g><ellipse cx="365.364" cy="361.765" rx="6.08596" ry="4.05492"/><ellipse cx="465.638" cy="306.154" rx="6.08596" ry="4.05492"/><ellipse cx="567.07" cy="248.806" rx="6.08596" ry="4.05492"/><ellipse cx="666.764" cy="192.617" rx="6.08596" ry="4.05492"/><ellipse cx="214.664" cy="361.765" rx="6.08596" ry="4.05492"/><ellipse cx="314.937" cy="306.154" rx="6.08596" ry="4.05492"/><ellipse cx="416.37" cy="248.806" rx="6.08596" ry="4.05492"/><ellipse cx="516.064" cy="192.617" rx="6.08596" ry="4.05492"/><ellipse cx="288.855" cy="318.899" rx="6.08596" ry="4.05492"/><ellipse cx="389.129" cy="263.288" rx="6.08596" ry="4.05492"/><ellipse cx="490.561" cy="205.94" rx="6.08596" ry="4.05492"/><ellipse cx="590.255" cy="149.75" rx="6.08596" ry="4.05492"/><ellipse cx="288.855" cy="402.893" rx="6.08596" ry="4.05492"/><ellipse cx="389.129" cy="347.283" rx="6.08596" ry="4.05492"/><ellipse cx="490.561" cy="289.935" rx="6.08596" ry="4.05492"/><ellipse cx="590.255" cy="233.745" rx="6.08596" ry="4.05492"/></g><g><ellipse cx="465.638" cy="418.534" rx="6.08596" ry="4.05492"/><ellipse cx="565.912" cy="362.923" rx="6.08596" ry="4.05492"/><ellipse cx="667.344" cy="305.575" rx="6.08596" ry="4.05492"/><ellipse cx="767.038" cy="249.386" rx="6.08596" ry="4.05492"/><ellipse cx="314.938" cy="418.534" rx="6.08596" ry="4.05492"/><ellipse cx="415.211" cy="362.923" rx="6.08596" ry="4.05492"/><ellipse cx="516.644" cy="305.575" rx="6.08596" ry="4.05492"/><ellipse cx="616.338" cy="249.386" rx="6.08596" ry="4.05492"/><ellipse cx="389.128" cy="375.667" rx="6.08596" ry="4.05492"/><ellipse cx="489.403" cy="320.057" rx="6.08596" ry="4.05492"/><ellipse cx="590.834" cy="262.709" rx="6.08596" ry="4.05492"/><ellipse cx="690.529" cy="206.519" rx="6.08596" ry="4.05492"/><ellipse cx="389.128" cy="459.662" rx="6.08596" ry="4.05492"/><ellipse cx="489.403" cy="404.052" rx="6.08596" ry="4.05492"/><ellipse cx="590.834" cy="346.704" rx="6.08596" ry="4.05492"/><ellipse cx="690.529" cy="290.514" rx="6.08596" ry="4.05492"/></g><g><ellipse cx="565.911" cy="474.723" rx="6.08596" ry="4.05492"/><ellipse cx="666.185" cy="419.113" rx="6.08596" ry="4.05492"/><ellipse cx="767.617" cy="361.765" rx="6.08596" ry="4.05492"/><ellipse cx="867.312" cy="305.575" rx="6.08596" ry="4.05492"/><ellipse cx="415.211" cy="474.723" rx="6.08596" ry="4.05492"/><ellipse cx="515.485" cy="419.113" rx="6.08596" ry="4.05492"/><ellipse cx="616.917" cy="361.765" rx="6.08596" ry="4.05492"/><ellipse cx="716.612" cy="305.575" rx="6.08596" ry="4.05492"/><ellipse cx="489.402" cy="431.857" rx="6.08596" ry="4.05492"/><ellipse cx="589.676" cy="376.247" rx="6.08596" ry="4.05492"/><ellipse cx="691.108" cy="318.899" rx="6.08596" ry="4.05492"/><ellipse cx="790.802" cy="262.709" rx="6.08596" ry="4.05492"/><ellipse cx="489.402" cy="515.852" rx="6.08596" ry="4.05492"/><ellipse cx="589.676" cy="460.242" rx="6.08596" ry="4.05492"/><ellipse cx="691.108" cy="402.893" rx="6.08596" ry="4.05492"/><ellipse cx="790.802" cy="346.704" rx="6.08596" ry="4.05492"/></g></g></g></g><g><g fill="#fff" stroke="#1B127D"><path d="M575.427 135.492c0 4.026-2.622 7.925-7.867 10.944l-58.026 34.656c-10.615 6.037-27.849 6.037-38.463 0l-61.849-36.027c-5.245-3.019-7.868-7.044-7.868-10.943 0-4.026 2.623-7.925 7.868-10.944l58.026-34.6556c10.615-6.0377 27.848-6.0377 38.463 0l61.849 36.0266c5.245 2.893 7.867 6.918 7.867 10.943Z"/><path d="M575.427 130.494c0 4.026-2.622 7.925-7.867 10.944l-58.026 34.656c-10.615 6.037-27.849 6.037-38.463 0l-61.849-36.027c-5.245-3.019-7.868-7.044-7.868-10.943 0-4.025 2.623-7.925 7.868-10.944l58.026-34.6556c10.615-6.0377 27.848-6.0377 38.463 0l61.849 36.0266c5.245 2.893 7.867 6.918 7.867 10.943Z"/></g><path fill-rule="evenodd" clip-rule="evenodd" d="m452.109 132.308 39.994-20.401-3.627-2.09-17 2.171-3.334 4.093 10.74-1.483-30.504 15.561 3.731 2.149Zm18.25 10.829 7.525-3.863-8.203-4.745 16.164-2.166c1.032-.15 2.057-.324 3.076-.524 1.018-.199 2.063-.456 3.136-.769s2.193-.703 3.36-1.169c1.167-.466 2.397-1.03 3.689-1.694 2.015-1.034 3.629-2.029 4.845-2.986 1.215-.957 2.057-1.85 2.524-2.68.467-.829.592-1.587.374-2.273-.219-.687-.746-1.272-1.582-1.756-.906-.523-2.002-.878-3.29-1.063-1.289-.185-2.733-.18-4.334.015-1.601.194-3.345.586-5.233 1.174-1.887.589-3.902 1.405-6.045 2.448l3.291 2.589c1.497-.712 2.944-1.203 4.341-1.473 1.398-.271 2.462-.194 3.194.229.609.352.751.859.424 1.521-.326.662-1.173 1.345-2.541 2.047-1.217.624-2.464 1.065-3.742 1.322-1.277.256-2.46.464-3.548.624l-21.266 3.073-9.064 4.654 12.905 7.465Zm11.365 6.491c-1.319-.208-2.435-.566-3.351-1.075-1.672-.93-2.266-2.149-1.782-3.657.485-1.508 2.359-3.273 5.622-5.297l6.305 1.264c-1.319.802-2.186 1.532-2.6 2.19-.414.659-.198 1.223.647 1.693.863.479 1.991.592 3.384.336 1.394-.255 2.859-.763 4.396-1.524 1.153-.571 1.936-1.075 2.35-1.511.414-.436.599-.829.554-1.177-.044-.348-.258-.658-.641-.932-.382-.273-.793-.532-1.234-.777l-.924-.514 7.493-3.71 1.294.719c.37.206.789.378 1.256.517.467.138 1.01.207 1.627.207s1.311-.099 2.083-.296c.771-.197 1.638-.533 2.598-1.009 1.23-.609 2.024-1.238 2.382-1.887.358-.65.211-1.155-.44-1.517-.617-.343-1.492-.446-2.627-.31-1.135.137-2.302.437-3.501.901l-2.398-3.393c1.979-.758 3.804-1.329 5.475-1.712 1.672-.384 3.182-.604 4.532-.662 1.349-.057 2.563.022 3.641.237 1.078.216 2.013.544 2.805.985.828.46 1.404 1.012 1.727 1.657.324.645.306 1.361-.054 2.151-.361.789-1.08 1.631-2.159 2.526-1.078.895-2.597 1.828-4.557 2.798-2.267 1.123-4.48 1.932-6.64 2.428-2.16.496-3.99.569-5.489.22l-.173.086c.409.389.542.846.397 1.372-.145.525-.491 1.08-1.037 1.665-.546.585-1.278 1.188-2.195 1.809-.918.621-1.972 1.227-3.163 1.817-2.037 1.008-4.004 1.793-5.902 2.353-1.898.561-3.66.924-5.286 1.091-1.625.166-3.097.146-4.415-.062Z" fill="#1B127D"/><path fill-rule="evenodd" clip-rule="evenodd" d="m504.688 96.3804 35.458 20.7496c3.377 1.961 3.963 5.014 1.308 6.82-2.654 1.805-7.544 1.679-10.921-.282l-35.458-20.75c-3.377-1.961-3.963-5.0138-1.309-6.8192 2.655-1.8054 7.545-1.6794 10.922.2816Z" fill="#fff" style="mix-blend-mode:overlay" opacity=".590634"/><path opacity=".49328" fill-rule="evenodd" clip-rule="evenodd" d="m459.869 145.255-1.59 1.524 1.948 1.497-20.696-2.64-.227 1.87 21.682 2.766-2.707 2.161 1.058 1.533 4.225-3.366.265.034.033-.271 1.019-.811-.834-.715.009-.073-.111-.014-4.074-3.495Z" fill="#fff"/></g><g><path d="M179.948 246.232c0 3.998-2.623 7.871-7.868 10.869l-58.026 34.419c-10.615 5.997-27.8481 5.997-38.463 0l-61.8485-35.781c-5.245-2.998-7.8675-6.996-7.8675-10.868 0-3.998 2.6225-7.871 7.8675-10.869l58.0258-34.419c10.6148-5.997 27.8484-5.997 38.4637 0l61.848 35.781c5.245 2.873 7.868 6.871 7.868 10.868Z" fill="#fff" stroke="#1B127D"/><path d="M179.948 241.268c0 3.998-2.623 7.871-7.868 10.869l-58.026 34.419c-10.615 5.997-27.8481 5.997-38.463 0l-61.8485-35.78c-5.245-2.999-7.8675-6.996-7.8675-10.869 0-3.998 2.6225-7.87 7.8675-10.869l58.0258-34.419c10.6148-5.996 27.8484-5.996 38.4637 0L172.08 230.4c5.245 2.873 7.868 6.871 7.868 10.868Z" fill="#fff" stroke="#1B127D"/><path fill-rule="evenodd" clip-rule="evenodd" d="M122.213 227.127c5.655 3.681 8.719 8.163 9.274 12.752l-.032 2.853c.004.067.004.134 0 .201-.458 3.808-2.622 7.552-6.435 10.841-2.045 1.734-4.296 3.215-6.708 4.416-16.015 8.143-40.2426 7.481-54.1098-1.561-.9732-.638-1.9083-1.337-2.7992-2.092-4.1746-3.488-6.3303-7.519-6.5314-11.566v-1.259c.3137-5.938 4.7859-11.835 13.2318-16.138 16.0149-8.15 40.2426-7.488 54.1096 1.553Zm-18.074 21.92c1.533-.739 2.896-1.767 4.022-3.032l-.033-.003c2.856-3.364 2.156-7.479-2.356-10.393-6.0009-3.899-16.4737-4.223-23.3992-.677-5.8076 2.963-7.2393 7.686-4.0219 11.421.6896.779 1.484 1.457 2.3568 2.013 6.0167 3.892 16.4734 4.191 23.4313.671Z" fill="#BFC9D1"/><path d="M82.3893 193.702c6.9255-3.546 17.3984-3.221 23.3987.669.631.409 1.224.878 1.77 1.399.201-.204.394-16.532.571-16.738 2.855-3.364 2.156-7.479-2.341-10.392-6.0003-3.899-16.4732-4.199-23.3987-.677-5.8236 2.962-7.2393 7.686-4.0219 11.421.183.214.3763 16.551.5792 16.746 1.011-.983 2.1709-1.801 3.4427-2.428Z" fill="#1B127D"/><path fill-rule="evenodd" clip-rule="evenodd" d="M122.213 160.147c5.655 3.68 8.719 8.163 9.274 12.751l-.032 2.853c.004.068.004.135 0 .202-.458 3.807-2.622 7.551-6.435 10.841-2.045 1.733-4.296 3.215-6.708 4.416-16.015 8.143-40.2426 7.48-54.1098-1.561-.9732-.638-1.9083-1.337-2.7992-2.092-4.1746-3.488-6.3303-7.519-6.5314-11.566v-1.259c.3137-5.939 4.7859-11.835 13.2318-16.138 16.0149-8.151 40.2426-7.488 54.1096 1.553Zm-18.074 21.92c1.533-.739 2.896-1.767 4.022-3.032l-.033-.003c2.856-3.364 2.156-7.479-2.356-10.393-6.0009-3.899-16.4737-4.224-23.3993-.677-5.8075 2.963-7.2392 7.686-4.0218 11.421.6896.779 1.484 1.457 2.3568 2.013 6.0167 3.892 16.4734 4.191 23.4313.671Z" fill="#fff"/><path d="m131.487 172.898.5.006.001-.033-.004-.033-.497.06Zm-9.274-12.751-.273.419.273-.419Zm9.242 15.604-.5-.005v.017l.001.017.499-.029Zm0 .202.497.06.001-.016.001-.015-.499-.029Zm-6.435 10.841.323.381.004-.003-.327-.378Zm-6.708 4.416-.223-.447-.004.002.227.445Zm-54.1098-1.561-.2743.418.0012.001.2731-.419Zm-2.7992-2.092.3233-.382-.0027-.002-.3206.384Zm-6.5314-11.566h-.5v.012l.0006.012.4994-.024Zm0-1.259-.4993-.026-.0007.013v.013h.5Zm13.2318-16.138-.2268-.446h-.0002l.227.446Zm40.0576 20.441.373.332.676-.76-1.014-.071-.035.499Zm-4.022 3.032-.217-.45-.009.004.226.446Zm3.989-3.035-.381-.323-.639.753.985.069.035-.499Zm-2.356-10.393-.273.419.001.001.272-.42Zm-23.3993-.677.2273.445h.0006l-.2279-.445Zm-4.0218 11.421-.3788.327.0046.005.3742-.332Zm2.3568 2.013.2716-.42-.0029-.002-.2687.422Zm51.2763-8.558c-.578-4.779-3.762-9.377-9.498-13.11l-.546.838c5.573 3.627 8.519 7.994 9.051 12.392l.993-.12Zm-.029 2.919.032-2.853-1-.011-.032 2.853 1 .011Zm-.001.225c.005-.086.005-.173 0-.259l-.998.057c.003.048.003.097 0 .144l.998.058Zm-6.607 11.19c3.882-3.349 6.128-7.199 6.605-11.159l-.993-.12c-.44 3.655-2.522 7.293-6.265 10.522l.653.757Zm-6.812 4.486c2.448-1.219 4.732-2.723 6.808-4.483l-.646-.763c-2.015 1.708-4.231 3.167-6.608 4.351l.446.895Zm-54.6059-1.59c7.0322 4.585 16.6534 7.026 26.5083 7.305 9.8576.28 20.0046-1.601 28.1006-5.717l-.453-.891c-7.918 4.026-17.893 5.885-27.6192 5.609-9.7293-.276-19.1554-2.687-25.9905-7.144l-.5462.838Zm-2.8493-2.13c.9064.768 1.8578 1.48 2.8481 2.129l.5486-.836c-.9561-.627-1.8748-1.314-2.7503-2.056l-.6464.763Zm-6.7076-11.923c.2096 4.219 2.4555 8.371 6.7102 11.926l.6412-.768c-4.0946-3.421-6.16-7.331-6.3526-11.207l-.9988.049Zm-.0006-1.283v1.259h1v-1.259h-1Zm13.5048-16.584c-8.53 4.346-13.1773 10.37-13.5041 16.558l.9986.053c.3005-5.691 4.5978-11.46 12.9594-15.719l-.4539-.892Zm54.6096 1.58c-7.032-4.585-16.653-7.025-26.5083-7.304-9.8578-.279-20.0046 1.604-28.1011 5.724l.4536.892c7.9184-4.03 17.8927-5.892 27.6192-5.617 9.7296.276 19.1556 2.686 25.9906 7.143l.546-.838Zm-14.699 18.974c-1.081 1.216-2.392 2.204-3.865 2.915l.434.9c1.592-.768 3.009-1.836 4.178-3.15l-.747-.665Zm.306.829.033.002.07-.997-.032-.003-.071.998Zm-2.593-10.472c2.181 1.408 3.377 3.064 3.724 4.711.345 1.636-.13 3.352-1.477 4.939l.763.647c1.509-1.778 2.112-3.802 1.692-5.792-.417-1.981-1.827-3.839-4.159-5.345l-.543.84Zm-22.8994-.652c3.3729-1.727 7.6354-2.522 11.8037-2.399 4.1709.124 8.1927 1.164 11.0947 3.05l.545-.839c-3.098-2.012-7.3131-3.083-11.6101-3.21-4.2997-.128-8.7363.689-12.289 2.508l.4557.89Zm-3.8708 10.65c-1.5077-1.75-1.897-3.683-1.2786-5.514.6264-1.854 2.3174-3.691 5.1488-5.136l-.4545-.891c-2.9761 1.519-4.9048 3.526-5.6417 5.707-.745 2.206-.2415 4.502 1.4683 6.487l.7577-.653Zm2.2466 1.917c-.8335-.531-1.5923-1.179-2.2512-1.922l-.7485.663c.7203.813 1.5501 1.522 2.4624 2.103l.5373-.844Zm22.9366.647c-3.39 1.715-7.6579 2.509-11.8283 2.39-4.1732-.119-8.1949-1.152-11.1054-3.035l-.5431.84c3.106 2.009 7.3211 3.072 11.6199 3.195 4.3015.123 8.7409-.693 12.3089-2.498l-.452-.892Z" fill="#1B127D"/><path d="M118.328 215.773c-16.015 8.151-40.2183 7.458-54.1097-1.553-6.0086-3.907-9.0893-8.729-9.3467-13.611v-24.618c.2011 4.047 2.3568 8.078 6.5314 11.566.8909.755 1.826 1.454 2.7992 2.092 13.8672 9.041 38.0948 9.704 54.1098 1.561 2.412-1.201 4.663-2.683 6.708-4.416 3.845-3.312 6.017-7.095 6.435-10.922l.064 22.365c.411 6.401-4.078 12.901-13.191 17.536Z" fill="#fff" stroke="#1B127D"/><path d="m107.292 179.893 17.463 7.681v24.198s-10.063 9.707-30.3409 9.693c-.3218-6.355-.9814-24.179-.9814-24.179l-4.4561-13.034s10.7463 1.909 18.3154-4.359Z" fill="#ED26B7"/><path d="M93.3247 196.9s19.9163-.457 31.4303-9.736v24.657s-12.153 10.471-31.4303 9.639V196.9Z" fill="#ED26B7"/><path d="m131.487 172.898.5.006.001-.033-.004-.033-.497.06Zm-9.274-12.751-.273.419.273-.419Zm9.242 15.604-.5-.005v.017l.001.017.499-.029Zm0 .202.497.06.001-.016.001-.015-.499-.029Zm-6.435 10.841.323.381.004-.003-.327-.378Zm-6.708 4.416-.223-.447-.004.002.227.445Zm-54.1098-1.561-.2743.418.0012.001.2731-.419Zm-2.7992-2.092.3233-.382-.0027-.002-.3206.384Zm-6.5314-11.566h-.5v.012l.0006.012.4994-.024Zm0-1.259-.4993-.026-.0007.013v.013h.5Zm13.2318-16.138-.2268-.446h-.0002l.227.446Zm40.0576 20.441.373.332.676-.76-1.014-.071-.035.499Zm-4.022 3.032-.217-.45-.009.004.226.446Zm3.989-3.035-.381-.323-.639.753.985.069.035-.499Zm-2.356-10.393-.273.419.001.001.272-.42Zm-23.3993-.677.2273.445h.0006l-.2279-.445Zm-4.0218 11.421-.3788.327.0046.005.3742-.332Zm2.3568 2.013.2716-.42-.0029-.002-.2687.422Zm51.2763-8.558c-.578-4.779-3.762-9.377-9.498-13.11l-.546.838c5.573 3.627 8.519 7.994 9.051 12.392l.993-.12Zm-.029 2.919.032-2.853-1-.011-.032 2.853 1 .011Zm-.001.225c.005-.086.005-.173 0-.259l-.998.057c.003.048.003.097 0 .144l.998.058Zm-6.607 11.19c3.882-3.349 6.128-7.199 6.605-11.159l-.993-.12c-.44 3.655-2.522 7.293-6.265 10.522l.653.757Zm-6.812 4.486c2.448-1.219 4.732-2.723 6.808-4.483l-.646-.763c-2.015 1.708-4.231 3.167-6.608 4.351l.446.895Zm-54.6059-1.59c7.0322 4.585 16.6534 7.026 26.5083 7.305 9.8576.28 20.0046-1.601 28.1006-5.717l-.453-.891c-7.918 4.026-17.893 5.885-27.6192 5.609-9.7293-.276-19.1554-2.687-25.9905-7.144l-.5462.838Zm-2.8493-2.13c.9064.768 1.8578 1.48 2.8481 2.129l.5486-.836c-.9561-.627-1.8748-1.314-2.7503-2.056l-.6464.763Zm-6.7076-11.923c.2096 4.219 2.4555 8.371 6.7102 11.926l.6412-.768c-4.0946-3.421-6.16-7.331-6.3526-11.207l-.9988.049Zm-.0006-1.283v1.259h1v-1.259h-1Zm13.5048-16.584c-8.53 4.346-13.1773 10.37-13.5041 16.558l.9986.053c.3005-5.691 4.5978-11.46 12.9594-15.719l-.4539-.892Zm54.6096 1.58c-7.032-4.585-16.653-7.025-26.5083-7.304-9.8578-.279-20.0046 1.604-28.1011 5.724l.4536.892c7.9184-4.03 17.8927-5.892 27.6192-5.617 9.7296.276 19.1556 2.686 25.9906 7.143l.546-.838Zm-14.699 18.974c-1.081 1.216-2.392 2.204-3.865 2.915l.434.9c1.592-.768 3.009-1.836 4.178-3.15l-.747-.665Zm.306.829.033.002.07-.997-.032-.003-.071.998Zm-2.593-10.472c2.181 1.408 3.377 3.064 3.724 4.711.345 1.636-.13 3.352-1.477 4.939l.763.647c1.509-1.778 2.112-3.802 1.692-5.792-.417-1.981-1.827-3.839-4.159-5.345l-.543.84Zm-22.8994-.652c3.3729-1.727 7.6354-2.522 11.8037-2.399 4.1709.124 8.1927 1.164 11.0947 3.05l.545-.839c-3.098-2.012-7.3131-3.083-11.6101-3.21-4.2997-.128-8.7363.689-12.289 2.508l.4557.89Zm-3.8708 10.65c-1.5077-1.75-1.897-3.683-1.2786-5.514.6264-1.854 2.3174-3.691 5.1488-5.136l-.4545-.891c-2.9761 1.519-4.9048 3.526-5.6417 5.707-.745 2.206-.2415 4.502 1.4683 6.487l.7577-.653Zm2.2466 1.917c-.8335-.531-1.5923-1.179-2.2512-1.922l-.7485.663c.7203.813 1.5501 1.522 2.4624 2.103l.5373-.844Zm22.9366.647c-3.39 1.715-7.6579 2.509-11.8283 2.39-4.1732-.119-8.1949-1.152-11.1054-3.035l-.5431.84c3.106 2.009 7.3211 3.072 11.6199 3.195 4.3015.123 8.7409-.693 12.3089-2.498l-.452-.892Z" fill="#1B127D"/><path d="M35.6758 161.966c.3995.216.734.507 1.0686.798l22.4793 25.675 7.5586 5.274s4.4347.893 6.6831.768c2.2484-.124 7.7204 2.302 7.6208 4.132-.1865 3.425-7.0479-.21-6.8075 1.515.3339 2.394 8.0681 7.701 7.3721 8.698-.5662.82-3.4348 1.328-4.5591 1.39-1.1242.062-11.2986-3.17-13.2499-4.473l-.0836-.073c-.0836-.072-.0836-.072-.1673-.145l-37.1775-28.512c-.3159-.143-.4831-.289-.799-.432-2.1372-1.595-4.3462-3.138-4.9604-5.641-.3168-1.486-.3295-5.82 0-7.119.2419-.954 1.4169-4.232 2.034-5.085 1.3923-1.94 3.6128-.687 6.1019-1.017 2.7028-.407 4.7487 2.652 6.8859 4.247Z" fill="#DFE4E8"/></g><g fill-rule="evenodd" clip-rule="evenodd" fill="#fff" stroke="#1B127D"><path d="M879.792 306.903c0 4.005-2.631 7.885-7.894 10.888l-161.83 92.555c-10.65 6.007-27.942 6.007-38.592 0L408.13 259.774c-5.262-3.004-7.894-7.009-7.894-10.888 0-4.005 2.632-7.885 7.894-10.889l161.831-92.554c10.65-6.008 27.941-6.008 38.592 0l263.345 150.571c5.263 2.879 7.894 6.884 7.894 10.889Z"/><path d="M879.792 301.938c0 4.005-2.631 7.884-7.894 10.888l-161.83 92.554c-10.65 6.008-27.942 6.008-38.592 0L408.13 254.809c-5.262-3.004-7.894-7.009-7.894-10.889 0-4.005 2.632-7.884 7.894-10.888l161.831-92.554c10.65-6.008 27.941-6.008 38.592 0l263.345 150.571c5.263 2.879 7.894 6.884 7.894 10.889Z"/></g><g fill-rule="evenodd" clip-rule="evenodd" fill="#fff" stroke="#1B127D"><path d="M581.715 477.358c0 3.994-2.626 7.863-7.878 10.858l-62.111 33.156c-10.63 5.991-27.887 5.991-38.517 0l-262.833-150.15c-5.252-2.995-7.878-6.989-7.878-10.858 0-3.994 2.626-7.863 7.878-10.858l62.111-33.156c10.629-5.991 27.887-5.991 38.517 0L573.837 466.5c5.252 2.871 7.878 6.864 7.878 10.858Z"/><path d="M581.715 472.401c0 3.993-2.626 7.862-7.878 10.858l-62.111 33.155c-10.63 5.991-27.887 5.991-38.517 0l-262.833-150.15c-5.252-2.995-7.878-6.989-7.878-10.858 0-3.994 2.626-7.862 7.878-10.858l62.111-33.156c10.629-5.99 27.887-5.99 38.517 0l262.833 150.151c5.252 2.87 7.878 6.864 7.878 10.858Z"/></g><g stroke="#ED26B7" stroke-dasharray="4.47"><path d="M109.069 100.856v85.36M288.165 201.134v85.36M371.085 158.868v85.36M185.346 49.4743v85.3597M208.563 33.7283v85.3597M386.839 151.409v85.36M465.611 103.342v85.36M288.165 6.37991V91.74M315.114 257.073l-.415 49.31M387.046 212.114l-.415 49.31M667.313 370.404l-.415 49.309M591.026 412.669l-.414 49.31"/></g><g><ellipse cx="416.061" cy="16.2291" rx="9.12144" ry="5.38057" fill="#ED26B7"/><ellipse cx="435.962" cy="27.8181" rx="9.12144" ry="5.38057" fill="#BFC9D1"/><ellipse cx="457.522" cy="39.407" rx="9.12144" ry="5.38057" fill="#20CA8B"/><g fill-rule="evenodd" clip-rule="evenodd" fill="#1B127D"><path d="M884.112 279.19c7.282 4.066 8.957 7.606 5.026 10.62l-21.151-12.043c3.468-3.117 8.843-2.643 16.125 1.423Zm7.022-6.232c3.326 1.792 4.384 4.675 2.363 6.438-2.021 1.764-6.356 1.742-9.682-.05-3.326-1.792-4.384-4.675-2.363-6.439 2.021-1.764 6.355-1.741 9.682.051ZM846.397 253.905l21.326 12.429c2.031 1.175 2.383 3.004.786 4.085-1.596 1.082-4.537 1.006-6.568-.169l-21.325-12.429c-2.031-1.174-2.384-3.003-.787-4.085 1.596-1.081 4.537-1.006 6.568.169ZM830.348 244.79l6.763 4.211c1.952 1.163 2.291 2.973.757 4.043-1.535 1.07-4.361.995-6.313-.167l-6.764-4.212c-1.952-1.162-2.29-2.972-.756-4.042 1.534-1.07 4.361-.996 6.313.167Z"/></g></g><g><path fill-rule="evenodd" clip-rule="evenodd" d="m245.565 344.878 86.212 49.934c2.863 1.653 3.36 4.226 1.109 5.747-2.25 1.522-6.396 1.415-9.259-.237l-86.212-49.934c-2.863-1.652-3.36-4.225-1.109-5.747 2.25-1.521 6.396-1.415 9.259.237ZM434.572 436.848c2.387-1.366 3.043-3.211 1.465-4.122l-67.588-39.022c-1.577-.911-4.791-.542-7.177.824l-19.687 11.266c-2.386 1.366-3.043 3.211-1.465 4.122l67.588 39.022c1.577.911 4.791.542 7.177-.824l19.687-11.266Zm-71.921-41.207c.794-.449 1.865-.565 2.393-.26l67.837 39.165c.527.305.312.915-.482 1.364l-19.635 11.092c-.793.449-1.864.565-2.392.26l-67.837-39.165c-.528-.305-.312-.915.481-1.364l19.635-11.092ZM527.346 489.11c2.387-1.366 3.043-3.212 1.466-4.122l-67.589-39.022c-1.577-.911-4.79-.542-7.177.824l-19.686 11.266c-2.387 1.365-3.043 3.211-1.466 4.122l67.589 39.022c1.577.91 4.79.541 7.177-.824l19.686-11.266Zm-71.92-41.208c.793-.448 1.864-.565 2.392-.26l67.837 39.166c.528.304.312.915-.481 1.363l-19.635 11.093c-.794.448-1.865.565-2.392.26l-67.837-39.166c-.528-.304-.313-.915.481-1.363l19.635-11.093ZM257.995 338.257l48.103 28.274c2.864 1.671 3.361 4.273 1.109 5.812-2.251 1.538-6.398 1.431-9.263-.24l-48.103-28.275c-2.864-1.671-3.361-4.273-1.109-5.811 2.251-1.539 6.398-1.431 9.263.24ZM282.086 324.973l56.301 33.319c2.883 1.657 3.383 4.238 1.117 5.764-2.266 1.526-6.44 1.419-9.323-.238l-56.301-33.319c-2.883-1.657-3.383-4.238-1.117-5.764 2.266-1.526 6.44-1.419 9.323.238ZM270.34 331.6l25.008 15.128c2.843 1.645 3.336 4.207 1.102 5.722-2.235 1.515-6.351 1.409-9.194-.236l-25.008-15.128c-2.843-1.646-3.336-4.207-1.102-5.722 2.235-1.515 6.351-1.409 9.194.236ZM308.443 353.998l25.008 15.128c2.843 1.645 3.336 4.207 1.102 5.722-2.235 1.515-6.351 1.409-9.194-.236l-25.008-15.128c-2.843-1.646-3.336-4.208-1.102-5.723 2.235-1.514 6.351-1.409 9.194.237Z" fill="#1B127D"/></g><g fill-rule="evenodd" clip-rule="evenodd" fill="#1B127D"><path d="m592.06 284.46 110.651 64.045c3.675 2.119 4.313 5.419 1.424 7.371-2.888 1.951-8.209 1.815-11.884-.305L581.6 291.527c-3.675-2.12-4.313-5.42-1.424-7.371 2.889-1.952 8.209-1.816 11.884.304ZM607.811 276.186l61.76 35.898c3.678 2.122 4.316 5.426 1.425 7.379-2.891 1.953-8.216 1.817-11.893-.305l-61.761-35.898c-3.678-2.122-4.316-5.425-1.425-7.378 2.891-1.954 8.216-1.817 11.894.304ZM638.572 258.804l72.395 42.544c3.707 2.117 4.35 5.412 1.436 7.36-2.913 1.949-8.281 1.813-11.988-.303L628.02 265.86c-3.707-2.116-4.35-5.412-1.436-7.36 2.914-1.949 8.281-1.813 11.988.304ZM654.313 249.701l48.806 28.193c3.707 2.117 4.35 5.412 1.436 7.36-2.914 1.949-8.281 1.813-11.988-.304l-48.806-28.193c-3.707-2.116-4.35-5.412-1.436-7.36 2.914-1.948 8.281-1.812 11.988.304ZM718.102 286.94l32.983 19.008c3.707 2.116 4.35 5.411 1.436 7.36-2.914 1.948-8.281 1.812-11.988-.304l-32.983-19.008c-3.707-2.116-4.35-5.411-1.436-7.36 2.914-1.948 8.281-1.812 11.988.304ZM624.265 267.902l32.079 19.403c3.647 2.11 4.279 5.396 1.413 7.339-2.867 1.943-8.147 1.808-11.794-.303l-32.079-19.403c-3.647-2.11-4.279-5.396-1.413-7.339 2.867-1.943 8.147-1.807 11.794.303ZM673.142 296.038l32.079 19.403c3.647 2.111 4.28 5.396 1.413 7.339-2.866 1.943-8.146 1.808-11.793-.303l-32.079-19.403c-3.647-2.11-4.28-5.396-1.413-7.339 2.866-1.943 8.146-1.807 11.793.303ZM689.546 232.161l87.88 50.001c5.381 2.955 6.315 7.557 2.085 10.278-4.23 2.72-12.021 2.53-17.402-.425l-87.88-50.001c-5.381-2.955-6.314-7.556-2.085-10.277 4.23-2.721 12.021-2.531 17.402.424ZM641.249 205.142c4.747-2.698 5.232-6.767 1.082-9.07l-57.206-31.75c-4.15-2.303-11.389-1.983-16.135.715l-65.422 37.181c-4.747 2.698-5.232 6.767-1.081 9.07l57.205 31.75c4.151 2.303 11.389 1.983 16.135-.715l65.422-37.181Zm-77.511 5.857 34.796-1.541-2.119 17.782-23.599 13.412c-2.848 1.619-7.19 1.811-9.681.429l-57.205-31.75c-1.779-.987-2.139-2.513-1.163-3.895l55.387-2.453-1.731 14.521 4.563-.202.752-6.303Zm75.15-12.97-57.206-31.75c-2.491-1.382-6.833-1.19-9.681.429l-63.351 36.004 56.374-2.496-.98 8.218 39.361-1.744-2.121 17.783 36.955-21.002c2.848-1.619 3.139-4.06.649-5.442Zm-76.808 26.857.593-4.977-4.563.202-.593 4.977 4.563-.202Zm22.71-45.922c4.88 2.709 4.31 7.492-1.271 10.664-5.58 3.171-14.092 3.548-18.971.84-4.88-2.708-4.311-7.492 1.271-10.664 5.58-3.172 14.09-3.549 18.971-.84Zm-15.959 2.51c3.681-2.092 9.297-2.34 12.517-.554 3.219 1.787 2.843 4.944-.838 7.036-3.683 2.093-9.298 2.342-12.518.555-3.22-1.787-2.844-4.944.839-7.037Z"/></g><defs><linearGradient id="a" x1="26.8498" y1="452.784" x2="703.158" y2="598.856" gradientUnits="userSpaceOnUse"><stop stop-color="#7FC1D5"/><stop offset="1" stop-color="#B0BECA"/></linearGradient><linearGradient id="b" x1="67.6723" y1="143.613" x2="66.2024" y2="131.025" gradientUnits="userSpaceOnUse"><stop stop-color="#FA1E58"/><stop offset="1" stop-color="#FECD85"/></linearGradient><linearGradient id="c" x1="54.292" y1="124.417" x2="64.2406" y2="139.113" gradientUnits="userSpaceOnUse"><stop stop-color="#6D6AFE"/><stop offset="1" stop-color="#3FB0F7"/></linearGradient><linearGradient id="d" x1="63.7613" y1="164.834" x2="63.7441" y2="174.328" gradientUnits="userSpaceOnUse"><stop stop-color="#6D6AFE"/><stop offset="1" stop-color="#3FB0F7"/></linearGradient></defs></svg>